%TF.GenerationSoftware,KiCad,Pcbnew,8.0.6-8.0.6-0~ubuntu24.04.1*%
%TF.CreationDate,2024-11-13T11:48:41+01:00*%
%TF.ProjectId,HEXBERRY-V-20Q100,48455842-4552-4525-992d-562d32305131,1.0*%
%TF.SameCoordinates,PX5f5e100PY5f5e100*%
%TF.FileFunction,Drillmap*%
%TF.FilePolarity,Positive*%
%FSLAX45Y45*%
G04 Gerber Fmt 4.5, Leading zero omitted, Abs format (unit mm)*
G04 Created by KiCad (PCBNEW 8.0.6-8.0.6-0~ubuntu24.04.1) date 2024-11-13 11:48:41*
%MOMM*%
%LPD*%
G01*
G04 APERTURE LIST*
%ADD10C,0.100000*%
%ADD11C,0.200000*%
G04 APERTURE END LIST*
D10*
X13312240Y-894332D02*
X7412250Y-894332D01*
X13312240Y-894332D02*
G75*
G02*
X13612252Y-1192443I0J-300018D01*
G01*
X7412250Y-4894332D02*
G75*
G02*
X7112252Y-4595860I0J300002D01*
G01*
X7412250Y-4894332D02*
X13312250Y-4894332D01*
X7112252Y-1194330D02*
X7112252Y-4595860D01*
X7112252Y-1194330D02*
G75*
G02*
X7412250Y-894332I299998J0D01*
G01*
X13612252Y-4594330D02*
X13612252Y-1192443D01*
X13612252Y-4594330D02*
G75*
G02*
X13312250Y-4894332I-300002J0D01*
G01*
D11*
X7368029Y-5210816D02*
X7368029Y-5010816D01*
X7368029Y-5010816D02*
X7415648Y-5010816D01*
X7415648Y-5010816D02*
X7444219Y-5020340D01*
X7444219Y-5020340D02*
X7463267Y-5039387D01*
X7463267Y-5039387D02*
X7472791Y-5058435D01*
X7472791Y-5058435D02*
X7482314Y-5096530D01*
X7482314Y-5096530D02*
X7482314Y-5125102D01*
X7482314Y-5125102D02*
X7472791Y-5163197D01*
X7472791Y-5163197D02*
X7463267Y-5182244D01*
X7463267Y-5182244D02*
X7444219Y-5201292D01*
X7444219Y-5201292D02*
X7415648Y-5210816D01*
X7415648Y-5210816D02*
X7368029Y-5210816D01*
X7568029Y-5210816D02*
X7568029Y-5077482D01*
X7568029Y-5115578D02*
X7577553Y-5096530D01*
X7577553Y-5096530D02*
X7587076Y-5087006D01*
X7587076Y-5087006D02*
X7606124Y-5077482D01*
X7606124Y-5077482D02*
X7625172Y-5077482D01*
X7691838Y-5210816D02*
X7691838Y-5077482D01*
X7691838Y-5010816D02*
X7682314Y-5020340D01*
X7682314Y-5020340D02*
X7691838Y-5029863D01*
X7691838Y-5029863D02*
X7701362Y-5020340D01*
X7701362Y-5020340D02*
X7691838Y-5010816D01*
X7691838Y-5010816D02*
X7691838Y-5029863D01*
X7815648Y-5210816D02*
X7796600Y-5201292D01*
X7796600Y-5201292D02*
X7787076Y-5182244D01*
X7787076Y-5182244D02*
X7787076Y-5010816D01*
X7920410Y-5210816D02*
X7901362Y-5201292D01*
X7901362Y-5201292D02*
X7891838Y-5182244D01*
X7891838Y-5182244D02*
X7891838Y-5010816D01*
X8148981Y-5210816D02*
X8148981Y-5010816D01*
X8148981Y-5010816D02*
X8215648Y-5153673D01*
X8215648Y-5153673D02*
X8282314Y-5010816D01*
X8282314Y-5010816D02*
X8282314Y-5210816D01*
X8463267Y-5210816D02*
X8463267Y-5106054D01*
X8463267Y-5106054D02*
X8453743Y-5087006D01*
X8453743Y-5087006D02*
X8434696Y-5077482D01*
X8434696Y-5077482D02*
X8396600Y-5077482D01*
X8396600Y-5077482D02*
X8377553Y-5087006D01*
X8463267Y-5201292D02*
X8444219Y-5210816D01*
X8444219Y-5210816D02*
X8396600Y-5210816D01*
X8396600Y-5210816D02*
X8377553Y-5201292D01*
X8377553Y-5201292D02*
X8368029Y-5182244D01*
X8368029Y-5182244D02*
X8368029Y-5163197D01*
X8368029Y-5163197D02*
X8377553Y-5144149D01*
X8377553Y-5144149D02*
X8396600Y-5134625D01*
X8396600Y-5134625D02*
X8444219Y-5134625D01*
X8444219Y-5134625D02*
X8463267Y-5125102D01*
X8558505Y-5077482D02*
X8558505Y-5277482D01*
X8558505Y-5087006D02*
X8577553Y-5077482D01*
X8577553Y-5077482D02*
X8615648Y-5077482D01*
X8615648Y-5077482D02*
X8634696Y-5087006D01*
X8634696Y-5087006D02*
X8644219Y-5096530D01*
X8644219Y-5096530D02*
X8653743Y-5115578D01*
X8653743Y-5115578D02*
X8653743Y-5172721D01*
X8653743Y-5172721D02*
X8644219Y-5191768D01*
X8644219Y-5191768D02*
X8634696Y-5201292D01*
X8634696Y-5201292D02*
X8615648Y-5210816D01*
X8615648Y-5210816D02*
X8577553Y-5210816D01*
X8577553Y-5210816D02*
X8558505Y-5201292D01*
X8739457Y-5191768D02*
X8748981Y-5201292D01*
X8748981Y-5201292D02*
X8739457Y-5210816D01*
X8739457Y-5210816D02*
X8729934Y-5201292D01*
X8729934Y-5201292D02*
X8739457Y-5191768D01*
X8739457Y-5191768D02*
X8739457Y-5210816D01*
X8739457Y-5087006D02*
X8748981Y-5096530D01*
X8748981Y-5096530D02*
X8739457Y-5106054D01*
X8739457Y-5106054D02*
X8729934Y-5096530D01*
X8729934Y-5096530D02*
X8739457Y-5087006D01*
X8739457Y-5087006D02*
X8739457Y-5106054D01*
M02*
