%TF.GenerationSoftware,KiCad,Pcbnew,8.0.6-8.0.6-0~ubuntu24.04.1*%
%TF.CreationDate,2024-11-13T11:48:59+01:00*%
%TF.ProjectId,HEXBERRY-V-20Q100,48455842-4552-4525-992d-562d32305131,1.0*%
%TF.SameCoordinates,PX5f5e100PY5f5e100*%
%TF.FileFunction,Legend,Bot*%
%TF.FilePolarity,Positive*%
%FSLAX46Y46*%
G04 Gerber Fmt 4.6, Leading zero omitted, Abs format (unit mm)*
G04 Created by KiCad (PCBNEW 8.0.6-8.0.6-0~ubuntu24.04.1) date 2024-11-13 11:48:59*
%MOMM*%
%LPD*%
G01*
G04 APERTURE LIST*
%ADD10C,0.100000*%
%ADD11C,0.150000*%
%ADD12C,0.300000*%
%ADD13C,0.400000*%
%ADD14C,0.200000*%
%ADD15C,0.130000*%
%ADD16C,0.120000*%
%ADD17C,0.000000*%
G04 APERTURE END LIST*
D10*
D11*
X199989000Y-153002200D02*
X307989000Y-153002200D01*
X307989000Y-185002200D01*
X199989000Y-185002200D01*
X199989000Y-153002200D01*
D10*
D11*
X-90000000Y90000000D02*
X309989000Y90000000D01*
X309989000Y-187002200D01*
X-90000000Y-187002200D01*
X-90000000Y90000000D01*
D10*
D11*
X-88000000Y88000000D02*
X307989000Y88000000D01*
X307989000Y-185002200D01*
X-88000000Y-185002200D01*
X-88000000Y88000000D01*
D10*
D11*
X-40000000Y88000000D02*
X-40000000Y90000000D01*
D10*
D11*
X10000000Y88000000D02*
X10000000Y90000000D01*
D10*
D11*
X60000000Y88000000D02*
X60000000Y90000000D01*
D10*
D11*
X110000000Y88000000D02*
X110000000Y90000000D01*
D10*
D11*
X160000000Y88000000D02*
X160000000Y90000000D01*
D10*
D11*
X210000000Y88000000D02*
X210000000Y90000000D01*
D10*
D11*
X260000000Y88000000D02*
X260000000Y90000000D01*
D10*
D11*
X-63910840Y88406396D02*
X-64653697Y88406396D01*
X-64282269Y88406396D02*
X-64282269Y89706396D01*
X-64282269Y89706396D02*
X-64406078Y89520681D01*
X-64406078Y89520681D02*
X-64529888Y89396872D01*
X-64529888Y89396872D02*
X-64653697Y89334967D01*
D10*
D11*
X-14653697Y89582586D02*
X-14591793Y89644491D01*
X-14591793Y89644491D02*
X-14467983Y89706396D01*
X-14467983Y89706396D02*
X-14158459Y89706396D01*
X-14158459Y89706396D02*
X-14034650Y89644491D01*
X-14034650Y89644491D02*
X-13972745Y89582586D01*
X-13972745Y89582586D02*
X-13910840Y89458777D01*
X-13910840Y89458777D02*
X-13910840Y89334967D01*
X-13910840Y89334967D02*
X-13972745Y89149253D01*
X-13972745Y89149253D02*
X-14715602Y88406396D01*
X-14715602Y88406396D02*
X-13910840Y88406396D01*
D10*
D11*
X35284398Y89706396D02*
X36089160Y89706396D01*
X36089160Y89706396D02*
X35655826Y89211158D01*
X35655826Y89211158D02*
X35841541Y89211158D01*
X35841541Y89211158D02*
X35965350Y89149253D01*
X35965350Y89149253D02*
X36027255Y89087348D01*
X36027255Y89087348D02*
X36089160Y88963539D01*
X36089160Y88963539D02*
X36089160Y88654015D01*
X36089160Y88654015D02*
X36027255Y88530205D01*
X36027255Y88530205D02*
X35965350Y88468300D01*
X35965350Y88468300D02*
X35841541Y88406396D01*
X35841541Y88406396D02*
X35470112Y88406396D01*
X35470112Y88406396D02*
X35346303Y88468300D01*
X35346303Y88468300D02*
X35284398Y88530205D01*
D10*
D11*
X85965350Y89273062D02*
X85965350Y88406396D01*
X85655826Y89768300D02*
X85346303Y88839729D01*
X85346303Y88839729D02*
X86151064Y88839729D01*
D10*
D11*
X136027255Y89706396D02*
X135408207Y89706396D01*
X135408207Y89706396D02*
X135346303Y89087348D01*
X135346303Y89087348D02*
X135408207Y89149253D01*
X135408207Y89149253D02*
X135532017Y89211158D01*
X135532017Y89211158D02*
X135841541Y89211158D01*
X135841541Y89211158D02*
X135965350Y89149253D01*
X135965350Y89149253D02*
X136027255Y89087348D01*
X136027255Y89087348D02*
X136089160Y88963539D01*
X136089160Y88963539D02*
X136089160Y88654015D01*
X136089160Y88654015D02*
X136027255Y88530205D01*
X136027255Y88530205D02*
X135965350Y88468300D01*
X135965350Y88468300D02*
X135841541Y88406396D01*
X135841541Y88406396D02*
X135532017Y88406396D01*
X135532017Y88406396D02*
X135408207Y88468300D01*
X135408207Y88468300D02*
X135346303Y88530205D01*
D10*
D11*
X185965350Y89706396D02*
X185717731Y89706396D01*
X185717731Y89706396D02*
X185593922Y89644491D01*
X185593922Y89644491D02*
X185532017Y89582586D01*
X185532017Y89582586D02*
X185408207Y89396872D01*
X185408207Y89396872D02*
X185346303Y89149253D01*
X185346303Y89149253D02*
X185346303Y88654015D01*
X185346303Y88654015D02*
X185408207Y88530205D01*
X185408207Y88530205D02*
X185470112Y88468300D01*
X185470112Y88468300D02*
X185593922Y88406396D01*
X185593922Y88406396D02*
X185841541Y88406396D01*
X185841541Y88406396D02*
X185965350Y88468300D01*
X185965350Y88468300D02*
X186027255Y88530205D01*
X186027255Y88530205D02*
X186089160Y88654015D01*
X186089160Y88654015D02*
X186089160Y88963539D01*
X186089160Y88963539D02*
X186027255Y89087348D01*
X186027255Y89087348D02*
X185965350Y89149253D01*
X185965350Y89149253D02*
X185841541Y89211158D01*
X185841541Y89211158D02*
X185593922Y89211158D01*
X185593922Y89211158D02*
X185470112Y89149253D01*
X185470112Y89149253D02*
X185408207Y89087348D01*
X185408207Y89087348D02*
X185346303Y88963539D01*
D10*
D11*
X235284398Y89706396D02*
X236151064Y89706396D01*
X236151064Y89706396D02*
X235593922Y88406396D01*
D10*
D11*
X285593922Y89149253D02*
X285470112Y89211158D01*
X285470112Y89211158D02*
X285408207Y89273062D01*
X285408207Y89273062D02*
X285346303Y89396872D01*
X285346303Y89396872D02*
X285346303Y89458777D01*
X285346303Y89458777D02*
X285408207Y89582586D01*
X285408207Y89582586D02*
X285470112Y89644491D01*
X285470112Y89644491D02*
X285593922Y89706396D01*
X285593922Y89706396D02*
X285841541Y89706396D01*
X285841541Y89706396D02*
X285965350Y89644491D01*
X285965350Y89644491D02*
X286027255Y89582586D01*
X286027255Y89582586D02*
X286089160Y89458777D01*
X286089160Y89458777D02*
X286089160Y89396872D01*
X286089160Y89396872D02*
X286027255Y89273062D01*
X286027255Y89273062D02*
X285965350Y89211158D01*
X285965350Y89211158D02*
X285841541Y89149253D01*
X285841541Y89149253D02*
X285593922Y89149253D01*
X285593922Y89149253D02*
X285470112Y89087348D01*
X285470112Y89087348D02*
X285408207Y89025443D01*
X285408207Y89025443D02*
X285346303Y88901634D01*
X285346303Y88901634D02*
X285346303Y88654015D01*
X285346303Y88654015D02*
X285408207Y88530205D01*
X285408207Y88530205D02*
X285470112Y88468300D01*
X285470112Y88468300D02*
X285593922Y88406396D01*
X285593922Y88406396D02*
X285841541Y88406396D01*
X285841541Y88406396D02*
X285965350Y88468300D01*
X285965350Y88468300D02*
X286027255Y88530205D01*
X286027255Y88530205D02*
X286089160Y88654015D01*
X286089160Y88654015D02*
X286089160Y88901634D01*
X286089160Y88901634D02*
X286027255Y89025443D01*
X286027255Y89025443D02*
X285965350Y89087348D01*
X285965350Y89087348D02*
X285841541Y89149253D01*
D10*
D11*
X-40000000Y-185002200D02*
X-40000000Y-187002200D01*
D10*
D11*
X10000000Y-185002200D02*
X10000000Y-187002200D01*
D10*
D11*
X60000000Y-185002200D02*
X60000000Y-187002200D01*
D10*
D11*
X110000000Y-185002200D02*
X110000000Y-187002200D01*
D10*
D11*
X160000000Y-185002200D02*
X160000000Y-187002200D01*
D10*
D11*
X210000000Y-185002200D02*
X210000000Y-187002200D01*
D10*
D11*
X260000000Y-185002200D02*
X260000000Y-187002200D01*
D10*
D11*
X-63910840Y-186595804D02*
X-64653697Y-186595804D01*
X-64282269Y-186595804D02*
X-64282269Y-185295804D01*
X-64282269Y-185295804D02*
X-64406078Y-185481519D01*
X-64406078Y-185481519D02*
X-64529888Y-185605328D01*
X-64529888Y-185605328D02*
X-64653697Y-185667233D01*
D10*
D11*
X-14653697Y-185419614D02*
X-14591793Y-185357709D01*
X-14591793Y-185357709D02*
X-14467983Y-185295804D01*
X-14467983Y-185295804D02*
X-14158459Y-185295804D01*
X-14158459Y-185295804D02*
X-14034650Y-185357709D01*
X-14034650Y-185357709D02*
X-13972745Y-185419614D01*
X-13972745Y-185419614D02*
X-13910840Y-185543423D01*
X-13910840Y-185543423D02*
X-13910840Y-185667233D01*
X-13910840Y-185667233D02*
X-13972745Y-185852947D01*
X-13972745Y-185852947D02*
X-14715602Y-186595804D01*
X-14715602Y-186595804D02*
X-13910840Y-186595804D01*
D10*
D11*
X35284398Y-185295804D02*
X36089160Y-185295804D01*
X36089160Y-185295804D02*
X35655826Y-185791042D01*
X35655826Y-185791042D02*
X35841541Y-185791042D01*
X35841541Y-185791042D02*
X35965350Y-185852947D01*
X35965350Y-185852947D02*
X36027255Y-185914852D01*
X36027255Y-185914852D02*
X36089160Y-186038661D01*
X36089160Y-186038661D02*
X36089160Y-186348185D01*
X36089160Y-186348185D02*
X36027255Y-186471995D01*
X36027255Y-186471995D02*
X35965350Y-186533900D01*
X35965350Y-186533900D02*
X35841541Y-186595804D01*
X35841541Y-186595804D02*
X35470112Y-186595804D01*
X35470112Y-186595804D02*
X35346303Y-186533900D01*
X35346303Y-186533900D02*
X35284398Y-186471995D01*
D10*
D11*
X85965350Y-185729138D02*
X85965350Y-186595804D01*
X85655826Y-185233900D02*
X85346303Y-186162471D01*
X85346303Y-186162471D02*
X86151064Y-186162471D01*
D10*
D11*
X136027255Y-185295804D02*
X135408207Y-185295804D01*
X135408207Y-185295804D02*
X135346303Y-185914852D01*
X135346303Y-185914852D02*
X135408207Y-185852947D01*
X135408207Y-185852947D02*
X135532017Y-185791042D01*
X135532017Y-185791042D02*
X135841541Y-185791042D01*
X135841541Y-185791042D02*
X135965350Y-185852947D01*
X135965350Y-185852947D02*
X136027255Y-185914852D01*
X136027255Y-185914852D02*
X136089160Y-186038661D01*
X136089160Y-186038661D02*
X136089160Y-186348185D01*
X136089160Y-186348185D02*
X136027255Y-186471995D01*
X136027255Y-186471995D02*
X135965350Y-186533900D01*
X135965350Y-186533900D02*
X135841541Y-186595804D01*
X135841541Y-186595804D02*
X135532017Y-186595804D01*
X135532017Y-186595804D02*
X135408207Y-186533900D01*
X135408207Y-186533900D02*
X135346303Y-186471995D01*
D10*
D11*
X185965350Y-185295804D02*
X185717731Y-185295804D01*
X185717731Y-185295804D02*
X185593922Y-185357709D01*
X185593922Y-185357709D02*
X185532017Y-185419614D01*
X185532017Y-185419614D02*
X185408207Y-185605328D01*
X185408207Y-185605328D02*
X185346303Y-185852947D01*
X185346303Y-185852947D02*
X185346303Y-186348185D01*
X185346303Y-186348185D02*
X185408207Y-186471995D01*
X185408207Y-186471995D02*
X185470112Y-186533900D01*
X185470112Y-186533900D02*
X185593922Y-186595804D01*
X185593922Y-186595804D02*
X185841541Y-186595804D01*
X185841541Y-186595804D02*
X185965350Y-186533900D01*
X185965350Y-186533900D02*
X186027255Y-186471995D01*
X186027255Y-186471995D02*
X186089160Y-186348185D01*
X186089160Y-186348185D02*
X186089160Y-186038661D01*
X186089160Y-186038661D02*
X186027255Y-185914852D01*
X186027255Y-185914852D02*
X185965350Y-185852947D01*
X185965350Y-185852947D02*
X185841541Y-185791042D01*
X185841541Y-185791042D02*
X185593922Y-185791042D01*
X185593922Y-185791042D02*
X185470112Y-185852947D01*
X185470112Y-185852947D02*
X185408207Y-185914852D01*
X185408207Y-185914852D02*
X185346303Y-186038661D01*
D10*
D11*
X235284398Y-185295804D02*
X236151064Y-185295804D01*
X236151064Y-185295804D02*
X235593922Y-186595804D01*
D10*
D11*
X285593922Y-185852947D02*
X285470112Y-185791042D01*
X285470112Y-185791042D02*
X285408207Y-185729138D01*
X285408207Y-185729138D02*
X285346303Y-185605328D01*
X285346303Y-185605328D02*
X285346303Y-185543423D01*
X285346303Y-185543423D02*
X285408207Y-185419614D01*
X285408207Y-185419614D02*
X285470112Y-185357709D01*
X285470112Y-185357709D02*
X285593922Y-185295804D01*
X285593922Y-185295804D02*
X285841541Y-185295804D01*
X285841541Y-185295804D02*
X285965350Y-185357709D01*
X285965350Y-185357709D02*
X286027255Y-185419614D01*
X286027255Y-185419614D02*
X286089160Y-185543423D01*
X286089160Y-185543423D02*
X286089160Y-185605328D01*
X286089160Y-185605328D02*
X286027255Y-185729138D01*
X286027255Y-185729138D02*
X285965350Y-185791042D01*
X285965350Y-185791042D02*
X285841541Y-185852947D01*
X285841541Y-185852947D02*
X285593922Y-185852947D01*
X285593922Y-185852947D02*
X285470112Y-185914852D01*
X285470112Y-185914852D02*
X285408207Y-185976757D01*
X285408207Y-185976757D02*
X285346303Y-186100566D01*
X285346303Y-186100566D02*
X285346303Y-186348185D01*
X285346303Y-186348185D02*
X285408207Y-186471995D01*
X285408207Y-186471995D02*
X285470112Y-186533900D01*
X285470112Y-186533900D02*
X285593922Y-186595804D01*
X285593922Y-186595804D02*
X285841541Y-186595804D01*
X285841541Y-186595804D02*
X285965350Y-186533900D01*
X285965350Y-186533900D02*
X286027255Y-186471995D01*
X286027255Y-186471995D02*
X286089160Y-186348185D01*
X286089160Y-186348185D02*
X286089160Y-186100566D01*
X286089160Y-186100566D02*
X286027255Y-185976757D01*
X286027255Y-185976757D02*
X285965350Y-185914852D01*
X285965350Y-185914852D02*
X285841541Y-185852947D01*
D10*
D11*
X-90000000Y40000000D02*
X-88000000Y40000000D01*
D10*
D11*
X-90000000Y-10000000D02*
X-88000000Y-10000000D01*
D10*
D11*
X-90000000Y-60000000D02*
X-88000000Y-60000000D01*
D10*
D11*
X-90000000Y-110000000D02*
X-88000000Y-110000000D01*
D10*
D11*
X-90000000Y-160000000D02*
X-88000000Y-160000000D01*
D10*
D11*
X-89309524Y64777824D02*
X-88690477Y64777824D01*
X-89433334Y64406396D02*
X-89000001Y65706396D01*
X-89000001Y65706396D02*
X-88566667Y64406396D01*
D10*
D11*
X-88907143Y15087348D02*
X-88721429Y15025443D01*
X-88721429Y15025443D02*
X-88659524Y14963539D01*
X-88659524Y14963539D02*
X-88597620Y14839729D01*
X-88597620Y14839729D02*
X-88597620Y14654015D01*
X-88597620Y14654015D02*
X-88659524Y14530205D01*
X-88659524Y14530205D02*
X-88721429Y14468300D01*
X-88721429Y14468300D02*
X-88845239Y14406396D01*
X-88845239Y14406396D02*
X-89340477Y14406396D01*
X-89340477Y14406396D02*
X-89340477Y15706396D01*
X-89340477Y15706396D02*
X-88907143Y15706396D01*
X-88907143Y15706396D02*
X-88783334Y15644491D01*
X-88783334Y15644491D02*
X-88721429Y15582586D01*
X-88721429Y15582586D02*
X-88659524Y15458777D01*
X-88659524Y15458777D02*
X-88659524Y15334967D01*
X-88659524Y15334967D02*
X-88721429Y15211158D01*
X-88721429Y15211158D02*
X-88783334Y15149253D01*
X-88783334Y15149253D02*
X-88907143Y15087348D01*
X-88907143Y15087348D02*
X-89340477Y15087348D01*
D10*
D11*
X-88597620Y-35469795D02*
X-88659524Y-35531700D01*
X-88659524Y-35531700D02*
X-88845239Y-35593604D01*
X-88845239Y-35593604D02*
X-88969048Y-35593604D01*
X-88969048Y-35593604D02*
X-89154762Y-35531700D01*
X-89154762Y-35531700D02*
X-89278572Y-35407890D01*
X-89278572Y-35407890D02*
X-89340477Y-35284080D01*
X-89340477Y-35284080D02*
X-89402381Y-35036461D01*
X-89402381Y-35036461D02*
X-89402381Y-34850747D01*
X-89402381Y-34850747D02*
X-89340477Y-34603128D01*
X-89340477Y-34603128D02*
X-89278572Y-34479319D01*
X-89278572Y-34479319D02*
X-89154762Y-34355509D01*
X-89154762Y-34355509D02*
X-88969048Y-34293604D01*
X-88969048Y-34293604D02*
X-88845239Y-34293604D01*
X-88845239Y-34293604D02*
X-88659524Y-34355509D01*
X-88659524Y-34355509D02*
X-88597620Y-34417414D01*
D10*
D11*
X-89340477Y-85593604D02*
X-89340477Y-84293604D01*
X-89340477Y-84293604D02*
X-89030953Y-84293604D01*
X-89030953Y-84293604D02*
X-88845239Y-84355509D01*
X-88845239Y-84355509D02*
X-88721429Y-84479319D01*
X-88721429Y-84479319D02*
X-88659524Y-84603128D01*
X-88659524Y-84603128D02*
X-88597620Y-84850747D01*
X-88597620Y-84850747D02*
X-88597620Y-85036461D01*
X-88597620Y-85036461D02*
X-88659524Y-85284080D01*
X-88659524Y-85284080D02*
X-88721429Y-85407890D01*
X-88721429Y-85407890D02*
X-88845239Y-85531700D01*
X-88845239Y-85531700D02*
X-89030953Y-85593604D01*
X-89030953Y-85593604D02*
X-89340477Y-85593604D01*
D10*
D11*
X-89278572Y-134912652D02*
X-88845238Y-134912652D01*
X-88659524Y-135593604D02*
X-89278572Y-135593604D01*
X-89278572Y-135593604D02*
X-89278572Y-134293604D01*
X-89278572Y-134293604D02*
X-88659524Y-134293604D01*
D10*
D11*
X-88814286Y-184912652D02*
X-89247620Y-184912652D01*
X-89247620Y-185593604D02*
X-89247620Y-184293604D01*
X-89247620Y-184293604D02*
X-88628572Y-184293604D01*
D10*
D11*
X309989000Y40000000D02*
X307989000Y40000000D01*
D10*
D11*
X309989000Y-10000000D02*
X307989000Y-10000000D01*
D10*
D11*
X309989000Y-60000000D02*
X307989000Y-60000000D01*
D10*
D11*
X309989000Y-110000000D02*
X307989000Y-110000000D01*
D10*
D11*
X309989000Y-160000000D02*
X307989000Y-160000000D01*
D10*
D11*
X308679476Y64777824D02*
X309298523Y64777824D01*
X308555666Y64406396D02*
X308988999Y65706396D01*
X308988999Y65706396D02*
X309422333Y64406396D01*
D10*
D11*
X309081857Y15087348D02*
X309267571Y15025443D01*
X309267571Y15025443D02*
X309329476Y14963539D01*
X309329476Y14963539D02*
X309391380Y14839729D01*
X309391380Y14839729D02*
X309391380Y14654015D01*
X309391380Y14654015D02*
X309329476Y14530205D01*
X309329476Y14530205D02*
X309267571Y14468300D01*
X309267571Y14468300D02*
X309143761Y14406396D01*
X309143761Y14406396D02*
X308648523Y14406396D01*
X308648523Y14406396D02*
X308648523Y15706396D01*
X308648523Y15706396D02*
X309081857Y15706396D01*
X309081857Y15706396D02*
X309205666Y15644491D01*
X309205666Y15644491D02*
X309267571Y15582586D01*
X309267571Y15582586D02*
X309329476Y15458777D01*
X309329476Y15458777D02*
X309329476Y15334967D01*
X309329476Y15334967D02*
X309267571Y15211158D01*
X309267571Y15211158D02*
X309205666Y15149253D01*
X309205666Y15149253D02*
X309081857Y15087348D01*
X309081857Y15087348D02*
X308648523Y15087348D01*
D10*
D11*
X309391380Y-35469795D02*
X309329476Y-35531700D01*
X309329476Y-35531700D02*
X309143761Y-35593604D01*
X309143761Y-35593604D02*
X309019952Y-35593604D01*
X309019952Y-35593604D02*
X308834238Y-35531700D01*
X308834238Y-35531700D02*
X308710428Y-35407890D01*
X308710428Y-35407890D02*
X308648523Y-35284080D01*
X308648523Y-35284080D02*
X308586619Y-35036461D01*
X308586619Y-35036461D02*
X308586619Y-34850747D01*
X308586619Y-34850747D02*
X308648523Y-34603128D01*
X308648523Y-34603128D02*
X308710428Y-34479319D01*
X308710428Y-34479319D02*
X308834238Y-34355509D01*
X308834238Y-34355509D02*
X309019952Y-34293604D01*
X309019952Y-34293604D02*
X309143761Y-34293604D01*
X309143761Y-34293604D02*
X309329476Y-34355509D01*
X309329476Y-34355509D02*
X309391380Y-34417414D01*
D10*
D11*
X308648523Y-85593604D02*
X308648523Y-84293604D01*
X308648523Y-84293604D02*
X308958047Y-84293604D01*
X308958047Y-84293604D02*
X309143761Y-84355509D01*
X309143761Y-84355509D02*
X309267571Y-84479319D01*
X309267571Y-84479319D02*
X309329476Y-84603128D01*
X309329476Y-84603128D02*
X309391380Y-84850747D01*
X309391380Y-84850747D02*
X309391380Y-85036461D01*
X309391380Y-85036461D02*
X309329476Y-85284080D01*
X309329476Y-85284080D02*
X309267571Y-85407890D01*
X309267571Y-85407890D02*
X309143761Y-85531700D01*
X309143761Y-85531700D02*
X308958047Y-85593604D01*
X308958047Y-85593604D02*
X308648523Y-85593604D01*
D10*
D11*
X308710428Y-134912652D02*
X309143762Y-134912652D01*
X309329476Y-135593604D02*
X308710428Y-135593604D01*
X308710428Y-135593604D02*
X308710428Y-134293604D01*
X308710428Y-134293604D02*
X309329476Y-134293604D01*
D10*
D11*
X309174714Y-184912652D02*
X308741380Y-184912652D01*
X308741380Y-185593604D02*
X308741380Y-184293604D01*
X308741380Y-184293604D02*
X309360428Y-184293604D01*
D10*
D11*
X223444826Y-180788328D02*
X223444826Y-179288328D01*
X223444826Y-179288328D02*
X223801969Y-179288328D01*
X223801969Y-179288328D02*
X224016255Y-179359757D01*
X224016255Y-179359757D02*
X224159112Y-179502614D01*
X224159112Y-179502614D02*
X224230541Y-179645471D01*
X224230541Y-179645471D02*
X224301969Y-179931185D01*
X224301969Y-179931185D02*
X224301969Y-180145471D01*
X224301969Y-180145471D02*
X224230541Y-180431185D01*
X224230541Y-180431185D02*
X224159112Y-180574042D01*
X224159112Y-180574042D02*
X224016255Y-180716900D01*
X224016255Y-180716900D02*
X223801969Y-180788328D01*
X223801969Y-180788328D02*
X223444826Y-180788328D01*
X225587684Y-180788328D02*
X225587684Y-180002614D01*
X225587684Y-180002614D02*
X225516255Y-179859757D01*
X225516255Y-179859757D02*
X225373398Y-179788328D01*
X225373398Y-179788328D02*
X225087684Y-179788328D01*
X225087684Y-179788328D02*
X224944826Y-179859757D01*
X225587684Y-180716900D02*
X225444826Y-180788328D01*
X225444826Y-180788328D02*
X225087684Y-180788328D01*
X225087684Y-180788328D02*
X224944826Y-180716900D01*
X224944826Y-180716900D02*
X224873398Y-180574042D01*
X224873398Y-180574042D02*
X224873398Y-180431185D01*
X224873398Y-180431185D02*
X224944826Y-180288328D01*
X224944826Y-180288328D02*
X225087684Y-180216900D01*
X225087684Y-180216900D02*
X225444826Y-180216900D01*
X225444826Y-180216900D02*
X225587684Y-180145471D01*
X226087684Y-179788328D02*
X226659112Y-179788328D01*
X226301969Y-179288328D02*
X226301969Y-180574042D01*
X226301969Y-180574042D02*
X226373398Y-180716900D01*
X226373398Y-180716900D02*
X226516255Y-180788328D01*
X226516255Y-180788328D02*
X226659112Y-180788328D01*
X227730541Y-180716900D02*
X227587684Y-180788328D01*
X227587684Y-180788328D02*
X227301970Y-180788328D01*
X227301970Y-180788328D02*
X227159112Y-180716900D01*
X227159112Y-180716900D02*
X227087684Y-180574042D01*
X227087684Y-180574042D02*
X227087684Y-180002614D01*
X227087684Y-180002614D02*
X227159112Y-179859757D01*
X227159112Y-179859757D02*
X227301970Y-179788328D01*
X227301970Y-179788328D02*
X227587684Y-179788328D01*
X227587684Y-179788328D02*
X227730541Y-179859757D01*
X227730541Y-179859757D02*
X227801970Y-180002614D01*
X227801970Y-180002614D02*
X227801970Y-180145471D01*
X227801970Y-180145471D02*
X227087684Y-180288328D01*
X228444826Y-180645471D02*
X228516255Y-180716900D01*
X228516255Y-180716900D02*
X228444826Y-180788328D01*
X228444826Y-180788328D02*
X228373398Y-180716900D01*
X228373398Y-180716900D02*
X228444826Y-180645471D01*
X228444826Y-180645471D02*
X228444826Y-180788328D01*
X228444826Y-179859757D02*
X228516255Y-179931185D01*
X228516255Y-179931185D02*
X228444826Y-180002614D01*
X228444826Y-180002614D02*
X228373398Y-179931185D01*
X228373398Y-179931185D02*
X228444826Y-179859757D01*
X228444826Y-179859757D02*
X228444826Y-180002614D01*
X230230541Y-179431185D02*
X230301969Y-179359757D01*
X230301969Y-179359757D02*
X230444827Y-179288328D01*
X230444827Y-179288328D02*
X230801969Y-179288328D01*
X230801969Y-179288328D02*
X230944827Y-179359757D01*
X230944827Y-179359757D02*
X231016255Y-179431185D01*
X231016255Y-179431185D02*
X231087684Y-179574042D01*
X231087684Y-179574042D02*
X231087684Y-179716900D01*
X231087684Y-179716900D02*
X231016255Y-179931185D01*
X231016255Y-179931185D02*
X230159112Y-180788328D01*
X230159112Y-180788328D02*
X231087684Y-180788328D01*
X232016255Y-179288328D02*
X232159112Y-179288328D01*
X232159112Y-179288328D02*
X232301969Y-179359757D01*
X232301969Y-179359757D02*
X232373398Y-179431185D01*
X232373398Y-179431185D02*
X232444826Y-179574042D01*
X232444826Y-179574042D02*
X232516255Y-179859757D01*
X232516255Y-179859757D02*
X232516255Y-180216900D01*
X232516255Y-180216900D02*
X232444826Y-180502614D01*
X232444826Y-180502614D02*
X232373398Y-180645471D01*
X232373398Y-180645471D02*
X232301969Y-180716900D01*
X232301969Y-180716900D02*
X232159112Y-180788328D01*
X232159112Y-180788328D02*
X232016255Y-180788328D01*
X232016255Y-180788328D02*
X231873398Y-180716900D01*
X231873398Y-180716900D02*
X231801969Y-180645471D01*
X231801969Y-180645471D02*
X231730540Y-180502614D01*
X231730540Y-180502614D02*
X231659112Y-180216900D01*
X231659112Y-180216900D02*
X231659112Y-179859757D01*
X231659112Y-179859757D02*
X231730540Y-179574042D01*
X231730540Y-179574042D02*
X231801969Y-179431185D01*
X231801969Y-179431185D02*
X231873398Y-179359757D01*
X231873398Y-179359757D02*
X232016255Y-179288328D01*
X233087683Y-179431185D02*
X233159111Y-179359757D01*
X233159111Y-179359757D02*
X233301969Y-179288328D01*
X233301969Y-179288328D02*
X233659111Y-179288328D01*
X233659111Y-179288328D02*
X233801969Y-179359757D01*
X233801969Y-179359757D02*
X233873397Y-179431185D01*
X233873397Y-179431185D02*
X233944826Y-179574042D01*
X233944826Y-179574042D02*
X233944826Y-179716900D01*
X233944826Y-179716900D02*
X233873397Y-179931185D01*
X233873397Y-179931185D02*
X233016254Y-180788328D01*
X233016254Y-180788328D02*
X233944826Y-180788328D01*
X235230540Y-179788328D02*
X235230540Y-180788328D01*
X234873397Y-179216900D02*
X234516254Y-180288328D01*
X234516254Y-180288328D02*
X235444825Y-180288328D01*
X236016253Y-180216900D02*
X237159111Y-180216900D01*
X238159111Y-179288328D02*
X238301968Y-179288328D01*
X238301968Y-179288328D02*
X238444825Y-179359757D01*
X238444825Y-179359757D02*
X238516254Y-179431185D01*
X238516254Y-179431185D02*
X238587682Y-179574042D01*
X238587682Y-179574042D02*
X238659111Y-179859757D01*
X238659111Y-179859757D02*
X238659111Y-180216900D01*
X238659111Y-180216900D02*
X238587682Y-180502614D01*
X238587682Y-180502614D02*
X238516254Y-180645471D01*
X238516254Y-180645471D02*
X238444825Y-180716900D01*
X238444825Y-180716900D02*
X238301968Y-180788328D01*
X238301968Y-180788328D02*
X238159111Y-180788328D01*
X238159111Y-180788328D02*
X238016254Y-180716900D01*
X238016254Y-180716900D02*
X237944825Y-180645471D01*
X237944825Y-180645471D02*
X237873396Y-180502614D01*
X237873396Y-180502614D02*
X237801968Y-180216900D01*
X237801968Y-180216900D02*
X237801968Y-179859757D01*
X237801968Y-179859757D02*
X237873396Y-179574042D01*
X237873396Y-179574042D02*
X237944825Y-179431185D01*
X237944825Y-179431185D02*
X238016254Y-179359757D01*
X238016254Y-179359757D02*
X238159111Y-179288328D01*
X239373396Y-180788328D02*
X239659110Y-180788328D01*
X239659110Y-180788328D02*
X239801967Y-180716900D01*
X239801967Y-180716900D02*
X239873396Y-180645471D01*
X239873396Y-180645471D02*
X240016253Y-180431185D01*
X240016253Y-180431185D02*
X240087682Y-180145471D01*
X240087682Y-180145471D02*
X240087682Y-179574042D01*
X240087682Y-179574042D02*
X240016253Y-179431185D01*
X240016253Y-179431185D02*
X239944825Y-179359757D01*
X239944825Y-179359757D02*
X239801967Y-179288328D01*
X239801967Y-179288328D02*
X239516253Y-179288328D01*
X239516253Y-179288328D02*
X239373396Y-179359757D01*
X239373396Y-179359757D02*
X239301967Y-179431185D01*
X239301967Y-179431185D02*
X239230539Y-179574042D01*
X239230539Y-179574042D02*
X239230539Y-179931185D01*
X239230539Y-179931185D02*
X239301967Y-180074042D01*
X239301967Y-180074042D02*
X239373396Y-180145471D01*
X239373396Y-180145471D02*
X239516253Y-180216900D01*
X239516253Y-180216900D02*
X239801967Y-180216900D01*
X239801967Y-180216900D02*
X239944825Y-180145471D01*
X239944825Y-180145471D02*
X240016253Y-180074042D01*
X240016253Y-180074042D02*
X240087682Y-179931185D01*
X240730538Y-180216900D02*
X241873396Y-180216900D01*
X242516253Y-179431185D02*
X242587681Y-179359757D01*
X242587681Y-179359757D02*
X242730539Y-179288328D01*
X242730539Y-179288328D02*
X243087681Y-179288328D01*
X243087681Y-179288328D02*
X243230539Y-179359757D01*
X243230539Y-179359757D02*
X243301967Y-179431185D01*
X243301967Y-179431185D02*
X243373396Y-179574042D01*
X243373396Y-179574042D02*
X243373396Y-179716900D01*
X243373396Y-179716900D02*
X243301967Y-179931185D01*
X243301967Y-179931185D02*
X242444824Y-180788328D01*
X242444824Y-180788328D02*
X243373396Y-180788328D01*
X244659110Y-179788328D02*
X244659110Y-180788328D01*
X244301967Y-179216900D02*
X243944824Y-180288328D01*
X243944824Y-180288328D02*
X244873395Y-180288328D01*
D10*
D11*
X199989000Y-181502200D02*
X307989000Y-181502200D01*
D10*
D11*
X201444826Y-183588328D02*
X201444826Y-182088328D01*
X202301969Y-183588328D02*
X201659112Y-182731185D01*
X202301969Y-182088328D02*
X201444826Y-182945471D01*
X202944826Y-183588328D02*
X202944826Y-182588328D01*
X202944826Y-182088328D02*
X202873398Y-182159757D01*
X202873398Y-182159757D02*
X202944826Y-182231185D01*
X202944826Y-182231185D02*
X203016255Y-182159757D01*
X203016255Y-182159757D02*
X202944826Y-182088328D01*
X202944826Y-182088328D02*
X202944826Y-182231185D01*
X204516255Y-183445471D02*
X204444827Y-183516900D01*
X204444827Y-183516900D02*
X204230541Y-183588328D01*
X204230541Y-183588328D02*
X204087684Y-183588328D01*
X204087684Y-183588328D02*
X203873398Y-183516900D01*
X203873398Y-183516900D02*
X203730541Y-183374042D01*
X203730541Y-183374042D02*
X203659112Y-183231185D01*
X203659112Y-183231185D02*
X203587684Y-182945471D01*
X203587684Y-182945471D02*
X203587684Y-182731185D01*
X203587684Y-182731185D02*
X203659112Y-182445471D01*
X203659112Y-182445471D02*
X203730541Y-182302614D01*
X203730541Y-182302614D02*
X203873398Y-182159757D01*
X203873398Y-182159757D02*
X204087684Y-182088328D01*
X204087684Y-182088328D02*
X204230541Y-182088328D01*
X204230541Y-182088328D02*
X204444827Y-182159757D01*
X204444827Y-182159757D02*
X204516255Y-182231185D01*
X205801970Y-183588328D02*
X205801970Y-182802614D01*
X205801970Y-182802614D02*
X205730541Y-182659757D01*
X205730541Y-182659757D02*
X205587684Y-182588328D01*
X205587684Y-182588328D02*
X205301970Y-182588328D01*
X205301970Y-182588328D02*
X205159112Y-182659757D01*
X205801970Y-183516900D02*
X205659112Y-183588328D01*
X205659112Y-183588328D02*
X205301970Y-183588328D01*
X205301970Y-183588328D02*
X205159112Y-183516900D01*
X205159112Y-183516900D02*
X205087684Y-183374042D01*
X205087684Y-183374042D02*
X205087684Y-183231185D01*
X205087684Y-183231185D02*
X205159112Y-183088328D01*
X205159112Y-183088328D02*
X205301970Y-183016900D01*
X205301970Y-183016900D02*
X205659112Y-183016900D01*
X205659112Y-183016900D02*
X205801970Y-182945471D01*
X207159113Y-183588328D02*
X207159113Y-182088328D01*
X207159113Y-183516900D02*
X207016255Y-183588328D01*
X207016255Y-183588328D02*
X206730541Y-183588328D01*
X206730541Y-183588328D02*
X206587684Y-183516900D01*
X206587684Y-183516900D02*
X206516255Y-183445471D01*
X206516255Y-183445471D02*
X206444827Y-183302614D01*
X206444827Y-183302614D02*
X206444827Y-182874042D01*
X206444827Y-182874042D02*
X206516255Y-182731185D01*
X206516255Y-182731185D02*
X206587684Y-182659757D01*
X206587684Y-182659757D02*
X206730541Y-182588328D01*
X206730541Y-182588328D02*
X207016255Y-182588328D01*
X207016255Y-182588328D02*
X207159113Y-182659757D01*
X209016255Y-182802614D02*
X209516255Y-182802614D01*
X209730541Y-183588328D02*
X209016255Y-183588328D01*
X209016255Y-183588328D02*
X209016255Y-182088328D01*
X209016255Y-182088328D02*
X209730541Y-182088328D01*
X210373398Y-183445471D02*
X210444827Y-183516900D01*
X210444827Y-183516900D02*
X210373398Y-183588328D01*
X210373398Y-183588328D02*
X210301970Y-183516900D01*
X210301970Y-183516900D02*
X210373398Y-183445471D01*
X210373398Y-183445471D02*
X210373398Y-183588328D01*
X211087684Y-183588328D02*
X211087684Y-182088328D01*
X211087684Y-182088328D02*
X211444827Y-182088328D01*
X211444827Y-182088328D02*
X211659113Y-182159757D01*
X211659113Y-182159757D02*
X211801970Y-182302614D01*
X211801970Y-182302614D02*
X211873399Y-182445471D01*
X211873399Y-182445471D02*
X211944827Y-182731185D01*
X211944827Y-182731185D02*
X211944827Y-182945471D01*
X211944827Y-182945471D02*
X211873399Y-183231185D01*
X211873399Y-183231185D02*
X211801970Y-183374042D01*
X211801970Y-183374042D02*
X211659113Y-183516900D01*
X211659113Y-183516900D02*
X211444827Y-183588328D01*
X211444827Y-183588328D02*
X211087684Y-183588328D01*
X212587684Y-183445471D02*
X212659113Y-183516900D01*
X212659113Y-183516900D02*
X212587684Y-183588328D01*
X212587684Y-183588328D02*
X212516256Y-183516900D01*
X212516256Y-183516900D02*
X212587684Y-183445471D01*
X212587684Y-183445471D02*
X212587684Y-183588328D01*
X213230542Y-183159757D02*
X213944828Y-183159757D01*
X213087685Y-183588328D02*
X213587685Y-182088328D01*
X213587685Y-182088328D02*
X214087685Y-183588328D01*
X214587684Y-183445471D02*
X214659113Y-183516900D01*
X214659113Y-183516900D02*
X214587684Y-183588328D01*
X214587684Y-183588328D02*
X214516256Y-183516900D01*
X214516256Y-183516900D02*
X214587684Y-183445471D01*
X214587684Y-183445471D02*
X214587684Y-183588328D01*
X216659113Y-182731185D02*
X216516256Y-182659757D01*
X216516256Y-182659757D02*
X216444827Y-182588328D01*
X216444827Y-182588328D02*
X216373399Y-182445471D01*
X216373399Y-182445471D02*
X216373399Y-182374042D01*
X216373399Y-182374042D02*
X216444827Y-182231185D01*
X216444827Y-182231185D02*
X216516256Y-182159757D01*
X216516256Y-182159757D02*
X216659113Y-182088328D01*
X216659113Y-182088328D02*
X216944827Y-182088328D01*
X216944827Y-182088328D02*
X217087685Y-182159757D01*
X217087685Y-182159757D02*
X217159113Y-182231185D01*
X217159113Y-182231185D02*
X217230542Y-182374042D01*
X217230542Y-182374042D02*
X217230542Y-182445471D01*
X217230542Y-182445471D02*
X217159113Y-182588328D01*
X217159113Y-182588328D02*
X217087685Y-182659757D01*
X217087685Y-182659757D02*
X216944827Y-182731185D01*
X216944827Y-182731185D02*
X216659113Y-182731185D01*
X216659113Y-182731185D02*
X216516256Y-182802614D01*
X216516256Y-182802614D02*
X216444827Y-182874042D01*
X216444827Y-182874042D02*
X216373399Y-183016900D01*
X216373399Y-183016900D02*
X216373399Y-183302614D01*
X216373399Y-183302614D02*
X216444827Y-183445471D01*
X216444827Y-183445471D02*
X216516256Y-183516900D01*
X216516256Y-183516900D02*
X216659113Y-183588328D01*
X216659113Y-183588328D02*
X216944827Y-183588328D01*
X216944827Y-183588328D02*
X217087685Y-183516900D01*
X217087685Y-183516900D02*
X217159113Y-183445471D01*
X217159113Y-183445471D02*
X217230542Y-183302614D01*
X217230542Y-183302614D02*
X217230542Y-183016900D01*
X217230542Y-183016900D02*
X217159113Y-182874042D01*
X217159113Y-182874042D02*
X217087685Y-182802614D01*
X217087685Y-182802614D02*
X216944827Y-182731185D01*
X217873398Y-183445471D02*
X217944827Y-183516900D01*
X217944827Y-183516900D02*
X217873398Y-183588328D01*
X217873398Y-183588328D02*
X217801970Y-183516900D01*
X217801970Y-183516900D02*
X217873398Y-183445471D01*
X217873398Y-183445471D02*
X217873398Y-183588328D01*
X218873399Y-182088328D02*
X219016256Y-182088328D01*
X219016256Y-182088328D02*
X219159113Y-182159757D01*
X219159113Y-182159757D02*
X219230542Y-182231185D01*
X219230542Y-182231185D02*
X219301970Y-182374042D01*
X219301970Y-182374042D02*
X219373399Y-182659757D01*
X219373399Y-182659757D02*
X219373399Y-183016900D01*
X219373399Y-183016900D02*
X219301970Y-183302614D01*
X219301970Y-183302614D02*
X219230542Y-183445471D01*
X219230542Y-183445471D02*
X219159113Y-183516900D01*
X219159113Y-183516900D02*
X219016256Y-183588328D01*
X219016256Y-183588328D02*
X218873399Y-183588328D01*
X218873399Y-183588328D02*
X218730542Y-183516900D01*
X218730542Y-183516900D02*
X218659113Y-183445471D01*
X218659113Y-183445471D02*
X218587684Y-183302614D01*
X218587684Y-183302614D02*
X218516256Y-183016900D01*
X218516256Y-183016900D02*
X218516256Y-182659757D01*
X218516256Y-182659757D02*
X218587684Y-182374042D01*
X218587684Y-182374042D02*
X218659113Y-182231185D01*
X218659113Y-182231185D02*
X218730542Y-182159757D01*
X218730542Y-182159757D02*
X218873399Y-182088328D01*
X220016255Y-183445471D02*
X220087684Y-183516900D01*
X220087684Y-183516900D02*
X220016255Y-183588328D01*
X220016255Y-183588328D02*
X219944827Y-183516900D01*
X219944827Y-183516900D02*
X220016255Y-183445471D01*
X220016255Y-183445471D02*
X220016255Y-183588328D01*
X221373399Y-182088328D02*
X221087684Y-182088328D01*
X221087684Y-182088328D02*
X220944827Y-182159757D01*
X220944827Y-182159757D02*
X220873399Y-182231185D01*
X220873399Y-182231185D02*
X220730541Y-182445471D01*
X220730541Y-182445471D02*
X220659113Y-182731185D01*
X220659113Y-182731185D02*
X220659113Y-183302614D01*
X220659113Y-183302614D02*
X220730541Y-183445471D01*
X220730541Y-183445471D02*
X220801970Y-183516900D01*
X220801970Y-183516900D02*
X220944827Y-183588328D01*
X220944827Y-183588328D02*
X221230541Y-183588328D01*
X221230541Y-183588328D02*
X221373399Y-183516900D01*
X221373399Y-183516900D02*
X221444827Y-183445471D01*
X221444827Y-183445471D02*
X221516256Y-183302614D01*
X221516256Y-183302614D02*
X221516256Y-182945471D01*
X221516256Y-182945471D02*
X221444827Y-182802614D01*
X221444827Y-182802614D02*
X221373399Y-182731185D01*
X221373399Y-182731185D02*
X221230541Y-182659757D01*
X221230541Y-182659757D02*
X220944827Y-182659757D01*
X220944827Y-182659757D02*
X220801970Y-182731185D01*
X220801970Y-182731185D02*
X220730541Y-182802614D01*
X220730541Y-182802614D02*
X220659113Y-182945471D01*
D10*
D11*
X199989000Y-178502200D02*
X307989000Y-178502200D01*
D10*
D12*
X287400653Y-180780528D02*
X286900653Y-180066242D01*
X286543510Y-180780528D02*
X286543510Y-179280528D01*
X286543510Y-179280528D02*
X287114939Y-179280528D01*
X287114939Y-179280528D02*
X287257796Y-179351957D01*
X287257796Y-179351957D02*
X287329225Y-179423385D01*
X287329225Y-179423385D02*
X287400653Y-179566242D01*
X287400653Y-179566242D02*
X287400653Y-179780528D01*
X287400653Y-179780528D02*
X287329225Y-179923385D01*
X287329225Y-179923385D02*
X287257796Y-179994814D01*
X287257796Y-179994814D02*
X287114939Y-180066242D01*
X287114939Y-180066242D02*
X286543510Y-180066242D01*
X288614939Y-180709100D02*
X288472082Y-180780528D01*
X288472082Y-180780528D02*
X288186368Y-180780528D01*
X288186368Y-180780528D02*
X288043510Y-180709100D01*
X288043510Y-180709100D02*
X287972082Y-180566242D01*
X287972082Y-180566242D02*
X287972082Y-179994814D01*
X287972082Y-179994814D02*
X288043510Y-179851957D01*
X288043510Y-179851957D02*
X288186368Y-179780528D01*
X288186368Y-179780528D02*
X288472082Y-179780528D01*
X288472082Y-179780528D02*
X288614939Y-179851957D01*
X288614939Y-179851957D02*
X288686368Y-179994814D01*
X288686368Y-179994814D02*
X288686368Y-180137671D01*
X288686368Y-180137671D02*
X287972082Y-180280528D01*
X289186367Y-179780528D02*
X289543510Y-180780528D01*
X289543510Y-180780528D02*
X289900653Y-179780528D01*
X290472081Y-180637671D02*
X290543510Y-180709100D01*
X290543510Y-180709100D02*
X290472081Y-180780528D01*
X290472081Y-180780528D02*
X290400653Y-180709100D01*
X290400653Y-180709100D02*
X290472081Y-180637671D01*
X290472081Y-180637671D02*
X290472081Y-180780528D01*
X290472081Y-179851957D02*
X290543510Y-179923385D01*
X290543510Y-179923385D02*
X290472081Y-179994814D01*
X290472081Y-179994814D02*
X290400653Y-179923385D01*
X290400653Y-179923385D02*
X290472081Y-179851957D01*
X290472081Y-179851957D02*
X290472081Y-179994814D01*
X293114939Y-180780528D02*
X292257796Y-180780528D01*
X292686367Y-180780528D02*
X292686367Y-179280528D01*
X292686367Y-179280528D02*
X292543510Y-179494814D01*
X292543510Y-179494814D02*
X292400653Y-179637671D01*
X292400653Y-179637671D02*
X292257796Y-179709100D01*
X293757795Y-180637671D02*
X293829224Y-180709100D01*
X293829224Y-180709100D02*
X293757795Y-180780528D01*
X293757795Y-180780528D02*
X293686367Y-180709100D01*
X293686367Y-180709100D02*
X293757795Y-180637671D01*
X293757795Y-180637671D02*
X293757795Y-180780528D01*
X294757796Y-179280528D02*
X294900653Y-179280528D01*
X294900653Y-179280528D02*
X295043510Y-179351957D01*
X295043510Y-179351957D02*
X295114939Y-179423385D01*
X295114939Y-179423385D02*
X295186367Y-179566242D01*
X295186367Y-179566242D02*
X295257796Y-179851957D01*
X295257796Y-179851957D02*
X295257796Y-180209100D01*
X295257796Y-180209100D02*
X295186367Y-180494814D01*
X295186367Y-180494814D02*
X295114939Y-180637671D01*
X295114939Y-180637671D02*
X295043510Y-180709100D01*
X295043510Y-180709100D02*
X294900653Y-180780528D01*
X294900653Y-180780528D02*
X294757796Y-180780528D01*
X294757796Y-180780528D02*
X294614939Y-180709100D01*
X294614939Y-180709100D02*
X294543510Y-180637671D01*
X294543510Y-180637671D02*
X294472081Y-180494814D01*
X294472081Y-180494814D02*
X294400653Y-180209100D01*
X294400653Y-180209100D02*
X294400653Y-179851957D01*
X294400653Y-179851957D02*
X294472081Y-179566242D01*
X294472081Y-179566242D02*
X294543510Y-179423385D01*
X294543510Y-179423385D02*
X294614939Y-179351957D01*
X294614939Y-179351957D02*
X294757796Y-179280528D01*
D10*
D11*
X201373398Y-180716900D02*
X201587684Y-180788328D01*
X201587684Y-180788328D02*
X201944826Y-180788328D01*
X201944826Y-180788328D02*
X202087684Y-180716900D01*
X202087684Y-180716900D02*
X202159112Y-180645471D01*
X202159112Y-180645471D02*
X202230541Y-180502614D01*
X202230541Y-180502614D02*
X202230541Y-180359757D01*
X202230541Y-180359757D02*
X202159112Y-180216900D01*
X202159112Y-180216900D02*
X202087684Y-180145471D01*
X202087684Y-180145471D02*
X201944826Y-180074042D01*
X201944826Y-180074042D02*
X201659112Y-180002614D01*
X201659112Y-180002614D02*
X201516255Y-179931185D01*
X201516255Y-179931185D02*
X201444826Y-179859757D01*
X201444826Y-179859757D02*
X201373398Y-179716900D01*
X201373398Y-179716900D02*
X201373398Y-179574042D01*
X201373398Y-179574042D02*
X201444826Y-179431185D01*
X201444826Y-179431185D02*
X201516255Y-179359757D01*
X201516255Y-179359757D02*
X201659112Y-179288328D01*
X201659112Y-179288328D02*
X202016255Y-179288328D01*
X202016255Y-179288328D02*
X202230541Y-179359757D01*
X202873397Y-180788328D02*
X202873397Y-179788328D01*
X202873397Y-179288328D02*
X202801969Y-179359757D01*
X202801969Y-179359757D02*
X202873397Y-179431185D01*
X202873397Y-179431185D02*
X202944826Y-179359757D01*
X202944826Y-179359757D02*
X202873397Y-179288328D01*
X202873397Y-179288328D02*
X202873397Y-179431185D01*
X203444826Y-179788328D02*
X204230541Y-179788328D01*
X204230541Y-179788328D02*
X203444826Y-180788328D01*
X203444826Y-180788328D02*
X204230541Y-180788328D01*
X205373398Y-180716900D02*
X205230541Y-180788328D01*
X205230541Y-180788328D02*
X204944827Y-180788328D01*
X204944827Y-180788328D02*
X204801969Y-180716900D01*
X204801969Y-180716900D02*
X204730541Y-180574042D01*
X204730541Y-180574042D02*
X204730541Y-180002614D01*
X204730541Y-180002614D02*
X204801969Y-179859757D01*
X204801969Y-179859757D02*
X204944827Y-179788328D01*
X204944827Y-179788328D02*
X205230541Y-179788328D01*
X205230541Y-179788328D02*
X205373398Y-179859757D01*
X205373398Y-179859757D02*
X205444827Y-180002614D01*
X205444827Y-180002614D02*
X205444827Y-180145471D01*
X205444827Y-180145471D02*
X204730541Y-180288328D01*
X206087683Y-180645471D02*
X206159112Y-180716900D01*
X206159112Y-180716900D02*
X206087683Y-180788328D01*
X206087683Y-180788328D02*
X206016255Y-180716900D01*
X206016255Y-180716900D02*
X206087683Y-180645471D01*
X206087683Y-180645471D02*
X206087683Y-180788328D01*
X206087683Y-179859757D02*
X206159112Y-179931185D01*
X206159112Y-179931185D02*
X206087683Y-180002614D01*
X206087683Y-180002614D02*
X206016255Y-179931185D01*
X206016255Y-179931185D02*
X206087683Y-179859757D01*
X206087683Y-179859757D02*
X206087683Y-180002614D01*
X207873398Y-180359757D02*
X208587684Y-180359757D01*
X207730541Y-180788328D02*
X208230541Y-179288328D01*
X208230541Y-179288328D02*
X208730541Y-180788328D01*
X209087683Y-179288328D02*
X210016255Y-179288328D01*
X210016255Y-179288328D02*
X209516255Y-179859757D01*
X209516255Y-179859757D02*
X209730540Y-179859757D01*
X209730540Y-179859757D02*
X209873398Y-179931185D01*
X209873398Y-179931185D02*
X209944826Y-180002614D01*
X209944826Y-180002614D02*
X210016255Y-180145471D01*
X210016255Y-180145471D02*
X210016255Y-180502614D01*
X210016255Y-180502614D02*
X209944826Y-180645471D01*
X209944826Y-180645471D02*
X209873398Y-180716900D01*
X209873398Y-180716900D02*
X209730540Y-180788328D01*
X209730540Y-180788328D02*
X209301969Y-180788328D01*
X209301969Y-180788328D02*
X209159112Y-180716900D01*
X209159112Y-180716900D02*
X209087683Y-180645471D01*
D10*
D11*
X286444826Y-183588328D02*
X286444826Y-182088328D01*
X287801970Y-183588328D02*
X287801970Y-182088328D01*
X287801970Y-183516900D02*
X287659112Y-183588328D01*
X287659112Y-183588328D02*
X287373398Y-183588328D01*
X287373398Y-183588328D02*
X287230541Y-183516900D01*
X287230541Y-183516900D02*
X287159112Y-183445471D01*
X287159112Y-183445471D02*
X287087684Y-183302614D01*
X287087684Y-183302614D02*
X287087684Y-182874042D01*
X287087684Y-182874042D02*
X287159112Y-182731185D01*
X287159112Y-182731185D02*
X287230541Y-182659757D01*
X287230541Y-182659757D02*
X287373398Y-182588328D01*
X287373398Y-182588328D02*
X287659112Y-182588328D01*
X287659112Y-182588328D02*
X287801970Y-182659757D01*
X288516255Y-183445471D02*
X288587684Y-183516900D01*
X288587684Y-183516900D02*
X288516255Y-183588328D01*
X288516255Y-183588328D02*
X288444827Y-183516900D01*
X288444827Y-183516900D02*
X288516255Y-183445471D01*
X288516255Y-183445471D02*
X288516255Y-183588328D01*
X288516255Y-182659757D02*
X288587684Y-182731185D01*
X288587684Y-182731185D02*
X288516255Y-182802614D01*
X288516255Y-182802614D02*
X288444827Y-182731185D01*
X288444827Y-182731185D02*
X288516255Y-182659757D01*
X288516255Y-182659757D02*
X288516255Y-182802614D01*
X291159113Y-183588328D02*
X290301970Y-183588328D01*
X290730541Y-183588328D02*
X290730541Y-182088328D01*
X290730541Y-182088328D02*
X290587684Y-182302614D01*
X290587684Y-182302614D02*
X290444827Y-182445471D01*
X290444827Y-182445471D02*
X290301970Y-182516900D01*
X292873398Y-182016900D02*
X291587684Y-183945471D01*
X294159113Y-183588328D02*
X293301970Y-183588328D01*
X293730541Y-183588328D02*
X293730541Y-182088328D01*
X293730541Y-182088328D02*
X293587684Y-182302614D01*
X293587684Y-182302614D02*
X293444827Y-182445471D01*
X293444827Y-182445471D02*
X293301970Y-182516900D01*
D10*
D11*
X199989000Y-174502200D02*
X307989000Y-174502200D01*
D10*
D13*
X201680728Y-175206638D02*
X202823585Y-175206638D01*
X202002157Y-177206638D02*
X202252157Y-175206638D01*
X203240252Y-177206638D02*
X203406919Y-175873304D01*
X203490252Y-175206638D02*
X203383109Y-175301876D01*
X203383109Y-175301876D02*
X203466443Y-175397114D01*
X203466443Y-175397114D02*
X203573586Y-175301876D01*
X203573586Y-175301876D02*
X203490252Y-175206638D01*
X203490252Y-175206638D02*
X203466443Y-175397114D01*
X204073586Y-175873304D02*
X204835490Y-175873304D01*
X204442633Y-175206638D02*
X204228348Y-176920923D01*
X204228348Y-176920923D02*
X204299776Y-177111400D01*
X204299776Y-177111400D02*
X204478348Y-177206638D01*
X204478348Y-177206638D02*
X204668824Y-177206638D01*
X205621205Y-177206638D02*
X205442633Y-177111400D01*
X205442633Y-177111400D02*
X205371205Y-176920923D01*
X205371205Y-176920923D02*
X205585490Y-175206638D01*
X207156919Y-177111400D02*
X206954538Y-177206638D01*
X206954538Y-177206638D02*
X206573585Y-177206638D01*
X206573585Y-177206638D02*
X206395014Y-177111400D01*
X206395014Y-177111400D02*
X206323585Y-176920923D01*
X206323585Y-176920923D02*
X206418824Y-176159019D01*
X206418824Y-176159019D02*
X206537871Y-175968542D01*
X206537871Y-175968542D02*
X206740252Y-175873304D01*
X206740252Y-175873304D02*
X207121204Y-175873304D01*
X207121204Y-175873304D02*
X207299776Y-175968542D01*
X207299776Y-175968542D02*
X207371204Y-176159019D01*
X207371204Y-176159019D02*
X207347395Y-176349495D01*
X207347395Y-176349495D02*
X206371204Y-176539971D01*
X208121205Y-177016161D02*
X208204538Y-177111400D01*
X208204538Y-177111400D02*
X208097395Y-177206638D01*
X208097395Y-177206638D02*
X208014062Y-177111400D01*
X208014062Y-177111400D02*
X208121205Y-177016161D01*
X208121205Y-177016161D02*
X208097395Y-177206638D01*
X208252157Y-175968542D02*
X208335490Y-176063780D01*
X208335490Y-176063780D02*
X208228348Y-176159019D01*
X208228348Y-176159019D02*
X208145014Y-176063780D01*
X208145014Y-176063780D02*
X208252157Y-175968542D01*
X208252157Y-175968542D02*
X208228348Y-176159019D01*
X210573586Y-177206638D02*
X210823586Y-175206638D01*
X210704539Y-176159019D02*
X211847396Y-176159019D01*
X211716443Y-177206638D02*
X211966443Y-175206638D01*
X212799777Y-176159019D02*
X213466443Y-176159019D01*
X213621205Y-177206638D02*
X212668824Y-177206638D01*
X212668824Y-177206638D02*
X212918824Y-175206638D01*
X212918824Y-175206638D02*
X213871205Y-175206638D01*
X214537872Y-175206638D02*
X215621205Y-177206638D01*
X215871205Y-175206638D02*
X214287872Y-177206638D01*
X217180729Y-176159019D02*
X217454539Y-176254257D01*
X217454539Y-176254257D02*
X217537872Y-176349495D01*
X217537872Y-176349495D02*
X217609301Y-176539971D01*
X217609301Y-176539971D02*
X217573586Y-176825685D01*
X217573586Y-176825685D02*
X217454539Y-177016161D01*
X217454539Y-177016161D02*
X217347396Y-177111400D01*
X217347396Y-177111400D02*
X217145015Y-177206638D01*
X217145015Y-177206638D02*
X216383110Y-177206638D01*
X216383110Y-177206638D02*
X216633110Y-175206638D01*
X216633110Y-175206638D02*
X217299777Y-175206638D01*
X217299777Y-175206638D02*
X217478348Y-175301876D01*
X217478348Y-175301876D02*
X217561682Y-175397114D01*
X217561682Y-175397114D02*
X217633110Y-175587590D01*
X217633110Y-175587590D02*
X217609301Y-175778066D01*
X217609301Y-175778066D02*
X217490253Y-175968542D01*
X217490253Y-175968542D02*
X217383110Y-176063780D01*
X217383110Y-176063780D02*
X217180729Y-176159019D01*
X217180729Y-176159019D02*
X216514063Y-176159019D01*
X218514063Y-176159019D02*
X219180729Y-176159019D01*
X219335491Y-177206638D02*
X218383110Y-177206638D01*
X218383110Y-177206638D02*
X218633110Y-175206638D01*
X218633110Y-175206638D02*
X219585491Y-175206638D01*
X221335491Y-177206638D02*
X220787872Y-176254257D01*
X220192634Y-177206638D02*
X220442634Y-175206638D01*
X220442634Y-175206638D02*
X221204539Y-175206638D01*
X221204539Y-175206638D02*
X221383110Y-175301876D01*
X221383110Y-175301876D02*
X221466444Y-175397114D01*
X221466444Y-175397114D02*
X221537872Y-175587590D01*
X221537872Y-175587590D02*
X221502158Y-175873304D01*
X221502158Y-175873304D02*
X221383110Y-176063780D01*
X221383110Y-176063780D02*
X221275968Y-176159019D01*
X221275968Y-176159019D02*
X221073587Y-176254257D01*
X221073587Y-176254257D02*
X220311682Y-176254257D01*
X223335491Y-177206638D02*
X222787872Y-176254257D01*
X222192634Y-177206638D02*
X222442634Y-175206638D01*
X222442634Y-175206638D02*
X223204539Y-175206638D01*
X223204539Y-175206638D02*
X223383110Y-175301876D01*
X223383110Y-175301876D02*
X223466444Y-175397114D01*
X223466444Y-175397114D02*
X223537872Y-175587590D01*
X223537872Y-175587590D02*
X223502158Y-175873304D01*
X223502158Y-175873304D02*
X223383110Y-176063780D01*
X223383110Y-176063780D02*
X223275968Y-176159019D01*
X223275968Y-176159019D02*
X223073587Y-176254257D01*
X223073587Y-176254257D02*
X222311682Y-176254257D01*
X224692634Y-176254257D02*
X224573587Y-177206638D01*
X224156920Y-175206638D02*
X224692634Y-176254257D01*
X224692634Y-176254257D02*
X225490253Y-175206638D01*
X226002158Y-176444733D02*
X227525968Y-176444733D01*
X228347396Y-175206638D02*
X228764063Y-177206638D01*
X228764063Y-177206638D02*
X229680729Y-175206638D01*
X230192634Y-176444733D02*
X231716444Y-176444733D01*
X232704539Y-175397114D02*
X232811681Y-175301876D01*
X232811681Y-175301876D02*
X233014062Y-175206638D01*
X233014062Y-175206638D02*
X233490253Y-175206638D01*
X233490253Y-175206638D02*
X233668824Y-175301876D01*
X233668824Y-175301876D02*
X233752158Y-175397114D01*
X233752158Y-175397114D02*
X233823586Y-175587590D01*
X233823586Y-175587590D02*
X233799777Y-175778066D01*
X233799777Y-175778066D02*
X233668824Y-176063780D01*
X233668824Y-176063780D02*
X232383110Y-177206638D01*
X232383110Y-177206638D02*
X233621205Y-177206638D01*
X235109301Y-175206638D02*
X235299777Y-175206638D01*
X235299777Y-175206638D02*
X235478348Y-175301876D01*
X235478348Y-175301876D02*
X235561682Y-175397114D01*
X235561682Y-175397114D02*
X235633110Y-175587590D01*
X235633110Y-175587590D02*
X235680729Y-175968542D01*
X235680729Y-175968542D02*
X235621205Y-176444733D01*
X235621205Y-176444733D02*
X235478348Y-176825685D01*
X235478348Y-176825685D02*
X235359301Y-177016161D01*
X235359301Y-177016161D02*
X235252158Y-177111400D01*
X235252158Y-177111400D02*
X235049777Y-177206638D01*
X235049777Y-177206638D02*
X234859301Y-177206638D01*
X234859301Y-177206638D02*
X234680729Y-177111400D01*
X234680729Y-177111400D02*
X234597396Y-177016161D01*
X234597396Y-177016161D02*
X234525967Y-176825685D01*
X234525967Y-176825685D02*
X234478348Y-176444733D01*
X234478348Y-176444733D02*
X234537872Y-175968542D01*
X234537872Y-175968542D02*
X234680729Y-175587590D01*
X234680729Y-175587590D02*
X234799777Y-175397114D01*
X234799777Y-175397114D02*
X234906920Y-175301876D01*
X234906920Y-175301876D02*
X235109301Y-175206638D01*
X237692634Y-177397114D02*
X237514063Y-177301876D01*
X237514063Y-177301876D02*
X237347396Y-177111400D01*
X237347396Y-177111400D02*
X237097396Y-176825685D01*
X237097396Y-176825685D02*
X236918825Y-176730447D01*
X236918825Y-176730447D02*
X236728348Y-176730447D01*
X236764063Y-177206638D02*
X236585491Y-177111400D01*
X236585491Y-177111400D02*
X236418825Y-176920923D01*
X236418825Y-176920923D02*
X236371205Y-176539971D01*
X236371205Y-176539971D02*
X236454539Y-175873304D01*
X236454539Y-175873304D02*
X236597396Y-175492352D01*
X236597396Y-175492352D02*
X236811682Y-175301876D01*
X236811682Y-175301876D02*
X237014063Y-175206638D01*
X237014063Y-175206638D02*
X237395015Y-175206638D01*
X237395015Y-175206638D02*
X237573586Y-175301876D01*
X237573586Y-175301876D02*
X237740253Y-175492352D01*
X237740253Y-175492352D02*
X237787872Y-175873304D01*
X237787872Y-175873304D02*
X237704539Y-176539971D01*
X237704539Y-176539971D02*
X237561682Y-176920923D01*
X237561682Y-176920923D02*
X237347396Y-177111400D01*
X237347396Y-177111400D02*
X237145015Y-177206638D01*
X237145015Y-177206638D02*
X236764063Y-177206638D01*
X239525967Y-177206638D02*
X238383110Y-177206638D01*
X238954539Y-177206638D02*
X239204539Y-175206638D01*
X239204539Y-175206638D02*
X238978348Y-175492352D01*
X238978348Y-175492352D02*
X238764063Y-175682828D01*
X238764063Y-175682828D02*
X238561682Y-175778066D01*
X241014063Y-175206638D02*
X241204539Y-175206638D01*
X241204539Y-175206638D02*
X241383110Y-175301876D01*
X241383110Y-175301876D02*
X241466444Y-175397114D01*
X241466444Y-175397114D02*
X241537872Y-175587590D01*
X241537872Y-175587590D02*
X241585491Y-175968542D01*
X241585491Y-175968542D02*
X241525967Y-176444733D01*
X241525967Y-176444733D02*
X241383110Y-176825685D01*
X241383110Y-176825685D02*
X241264063Y-177016161D01*
X241264063Y-177016161D02*
X241156920Y-177111400D01*
X241156920Y-177111400D02*
X240954539Y-177206638D01*
X240954539Y-177206638D02*
X240764063Y-177206638D01*
X240764063Y-177206638D02*
X240585491Y-177111400D01*
X240585491Y-177111400D02*
X240502158Y-177016161D01*
X240502158Y-177016161D02*
X240430729Y-176825685D01*
X240430729Y-176825685D02*
X240383110Y-176444733D01*
X240383110Y-176444733D02*
X240442634Y-175968542D01*
X240442634Y-175968542D02*
X240585491Y-175587590D01*
X240585491Y-175587590D02*
X240704539Y-175397114D01*
X240704539Y-175397114D02*
X240811682Y-175301876D01*
X240811682Y-175301876D02*
X241014063Y-175206638D01*
X242918825Y-175206638D02*
X243109301Y-175206638D01*
X243109301Y-175206638D02*
X243287872Y-175301876D01*
X243287872Y-175301876D02*
X243371206Y-175397114D01*
X243371206Y-175397114D02*
X243442634Y-175587590D01*
X243442634Y-175587590D02*
X243490253Y-175968542D01*
X243490253Y-175968542D02*
X243430729Y-176444733D01*
X243430729Y-176444733D02*
X243287872Y-176825685D01*
X243287872Y-176825685D02*
X243168825Y-177016161D01*
X243168825Y-177016161D02*
X243061682Y-177111400D01*
X243061682Y-177111400D02*
X242859301Y-177206638D01*
X242859301Y-177206638D02*
X242668825Y-177206638D01*
X242668825Y-177206638D02*
X242490253Y-177111400D01*
X242490253Y-177111400D02*
X242406920Y-177016161D01*
X242406920Y-177016161D02*
X242335491Y-176825685D01*
X242335491Y-176825685D02*
X242287872Y-176444733D01*
X242287872Y-176444733D02*
X242347396Y-175968542D01*
X242347396Y-175968542D02*
X242490253Y-175587590D01*
X242490253Y-175587590D02*
X242609301Y-175397114D01*
X242609301Y-175397114D02*
X242716444Y-175301876D01*
X242716444Y-175301876D02*
X242918825Y-175206638D01*
D10*
D11*
X201944826Y-172602614D02*
X201444826Y-172602614D01*
X201444826Y-173388328D02*
X201444826Y-171888328D01*
X201444826Y-171888328D02*
X202159112Y-171888328D01*
X202730540Y-173388328D02*
X202730540Y-172388328D01*
X202730540Y-171888328D02*
X202659112Y-171959757D01*
X202659112Y-171959757D02*
X202730540Y-172031185D01*
X202730540Y-172031185D02*
X202801969Y-171959757D01*
X202801969Y-171959757D02*
X202730540Y-171888328D01*
X202730540Y-171888328D02*
X202730540Y-172031185D01*
X203659112Y-173388328D02*
X203516255Y-173316900D01*
X203516255Y-173316900D02*
X203444826Y-173174042D01*
X203444826Y-173174042D02*
X203444826Y-171888328D01*
X204801969Y-173316900D02*
X204659112Y-173388328D01*
X204659112Y-173388328D02*
X204373398Y-173388328D01*
X204373398Y-173388328D02*
X204230540Y-173316900D01*
X204230540Y-173316900D02*
X204159112Y-173174042D01*
X204159112Y-173174042D02*
X204159112Y-172602614D01*
X204159112Y-172602614D02*
X204230540Y-172459757D01*
X204230540Y-172459757D02*
X204373398Y-172388328D01*
X204373398Y-172388328D02*
X204659112Y-172388328D01*
X204659112Y-172388328D02*
X204801969Y-172459757D01*
X204801969Y-172459757D02*
X204873398Y-172602614D01*
X204873398Y-172602614D02*
X204873398Y-172745471D01*
X204873398Y-172745471D02*
X204159112Y-172888328D01*
X205516254Y-173245471D02*
X205587683Y-173316900D01*
X205587683Y-173316900D02*
X205516254Y-173388328D01*
X205516254Y-173388328D02*
X205444826Y-173316900D01*
X205444826Y-173316900D02*
X205516254Y-173245471D01*
X205516254Y-173245471D02*
X205516254Y-173388328D01*
X205516254Y-172459757D02*
X205587683Y-172531185D01*
X205587683Y-172531185D02*
X205516254Y-172602614D01*
X205516254Y-172602614D02*
X205444826Y-172531185D01*
X205444826Y-172531185D02*
X205516254Y-172459757D01*
X205516254Y-172459757D02*
X205516254Y-172602614D01*
X207373397Y-173388328D02*
X207373397Y-171888328D01*
X207373397Y-172602614D02*
X208230540Y-172602614D01*
X208230540Y-173388328D02*
X208230540Y-171888328D01*
X208944826Y-172602614D02*
X209444826Y-172602614D01*
X209659112Y-173388328D02*
X208944826Y-173388328D01*
X208944826Y-173388328D02*
X208944826Y-171888328D01*
X208944826Y-171888328D02*
X209659112Y-171888328D01*
X210159112Y-171888328D02*
X211159112Y-173388328D01*
X211159112Y-171888328D02*
X210159112Y-173388328D01*
X212230540Y-172602614D02*
X212444826Y-172674042D01*
X212444826Y-172674042D02*
X212516255Y-172745471D01*
X212516255Y-172745471D02*
X212587683Y-172888328D01*
X212587683Y-172888328D02*
X212587683Y-173102614D01*
X212587683Y-173102614D02*
X212516255Y-173245471D01*
X212516255Y-173245471D02*
X212444826Y-173316900D01*
X212444826Y-173316900D02*
X212301969Y-173388328D01*
X212301969Y-173388328D02*
X211730540Y-173388328D01*
X211730540Y-173388328D02*
X211730540Y-171888328D01*
X211730540Y-171888328D02*
X212230540Y-171888328D01*
X212230540Y-171888328D02*
X212373398Y-171959757D01*
X212373398Y-171959757D02*
X212444826Y-172031185D01*
X212444826Y-172031185D02*
X212516255Y-172174042D01*
X212516255Y-172174042D02*
X212516255Y-172316900D01*
X212516255Y-172316900D02*
X212444826Y-172459757D01*
X212444826Y-172459757D02*
X212373398Y-172531185D01*
X212373398Y-172531185D02*
X212230540Y-172602614D01*
X212230540Y-172602614D02*
X211730540Y-172602614D01*
X213230540Y-172602614D02*
X213730540Y-172602614D01*
X213944826Y-173388328D02*
X213230540Y-173388328D01*
X213230540Y-173388328D02*
X213230540Y-171888328D01*
X213230540Y-171888328D02*
X213944826Y-171888328D01*
X215444826Y-173388328D02*
X214944826Y-172674042D01*
X214587683Y-173388328D02*
X214587683Y-171888328D01*
X214587683Y-171888328D02*
X215159112Y-171888328D01*
X215159112Y-171888328D02*
X215301969Y-171959757D01*
X215301969Y-171959757D02*
X215373398Y-172031185D01*
X215373398Y-172031185D02*
X215444826Y-172174042D01*
X215444826Y-172174042D02*
X215444826Y-172388328D01*
X215444826Y-172388328D02*
X215373398Y-172531185D01*
X215373398Y-172531185D02*
X215301969Y-172602614D01*
X215301969Y-172602614D02*
X215159112Y-172674042D01*
X215159112Y-172674042D02*
X214587683Y-172674042D01*
X216944826Y-173388328D02*
X216444826Y-172674042D01*
X216087683Y-173388328D02*
X216087683Y-171888328D01*
X216087683Y-171888328D02*
X216659112Y-171888328D01*
X216659112Y-171888328D02*
X216801969Y-171959757D01*
X216801969Y-171959757D02*
X216873398Y-172031185D01*
X216873398Y-172031185D02*
X216944826Y-172174042D01*
X216944826Y-172174042D02*
X216944826Y-172388328D01*
X216944826Y-172388328D02*
X216873398Y-172531185D01*
X216873398Y-172531185D02*
X216801969Y-172602614D01*
X216801969Y-172602614D02*
X216659112Y-172674042D01*
X216659112Y-172674042D02*
X216087683Y-172674042D01*
X217873398Y-172674042D02*
X217873398Y-173388328D01*
X217373398Y-171888328D02*
X217873398Y-172674042D01*
X217873398Y-172674042D02*
X218373398Y-171888328D01*
X218873397Y-172816900D02*
X220016255Y-172816900D01*
X220516255Y-171888328D02*
X221016255Y-173388328D01*
X221016255Y-173388328D02*
X221516255Y-171888328D01*
X222016254Y-172816900D02*
X223159112Y-172816900D01*
X223801969Y-172031185D02*
X223873397Y-171959757D01*
X223873397Y-171959757D02*
X224016255Y-171888328D01*
X224016255Y-171888328D02*
X224373397Y-171888328D01*
X224373397Y-171888328D02*
X224516255Y-171959757D01*
X224516255Y-171959757D02*
X224587683Y-172031185D01*
X224587683Y-172031185D02*
X224659112Y-172174042D01*
X224659112Y-172174042D02*
X224659112Y-172316900D01*
X224659112Y-172316900D02*
X224587683Y-172531185D01*
X224587683Y-172531185D02*
X223730540Y-173388328D01*
X223730540Y-173388328D02*
X224659112Y-173388328D01*
X225587683Y-171888328D02*
X225730540Y-171888328D01*
X225730540Y-171888328D02*
X225873397Y-171959757D01*
X225873397Y-171959757D02*
X225944826Y-172031185D01*
X225944826Y-172031185D02*
X226016254Y-172174042D01*
X226016254Y-172174042D02*
X226087683Y-172459757D01*
X226087683Y-172459757D02*
X226087683Y-172816900D01*
X226087683Y-172816900D02*
X226016254Y-173102614D01*
X226016254Y-173102614D02*
X225944826Y-173245471D01*
X225944826Y-173245471D02*
X225873397Y-173316900D01*
X225873397Y-173316900D02*
X225730540Y-173388328D01*
X225730540Y-173388328D02*
X225587683Y-173388328D01*
X225587683Y-173388328D02*
X225444826Y-173316900D01*
X225444826Y-173316900D02*
X225373397Y-173245471D01*
X225373397Y-173245471D02*
X225301968Y-173102614D01*
X225301968Y-173102614D02*
X225230540Y-172816900D01*
X225230540Y-172816900D02*
X225230540Y-172459757D01*
X225230540Y-172459757D02*
X225301968Y-172174042D01*
X225301968Y-172174042D02*
X225373397Y-172031185D01*
X225373397Y-172031185D02*
X225444826Y-171959757D01*
X225444826Y-171959757D02*
X225587683Y-171888328D01*
X227730539Y-173531185D02*
X227587682Y-173459757D01*
X227587682Y-173459757D02*
X227444825Y-173316900D01*
X227444825Y-173316900D02*
X227230539Y-173102614D01*
X227230539Y-173102614D02*
X227087682Y-173031185D01*
X227087682Y-173031185D02*
X226944825Y-173031185D01*
X227016254Y-173388328D02*
X226873397Y-173316900D01*
X226873397Y-173316900D02*
X226730539Y-173174042D01*
X226730539Y-173174042D02*
X226659111Y-172888328D01*
X226659111Y-172888328D02*
X226659111Y-172388328D01*
X226659111Y-172388328D02*
X226730539Y-172102614D01*
X226730539Y-172102614D02*
X226873397Y-171959757D01*
X226873397Y-171959757D02*
X227016254Y-171888328D01*
X227016254Y-171888328D02*
X227301968Y-171888328D01*
X227301968Y-171888328D02*
X227444825Y-171959757D01*
X227444825Y-171959757D02*
X227587682Y-172102614D01*
X227587682Y-172102614D02*
X227659111Y-172388328D01*
X227659111Y-172388328D02*
X227659111Y-172888328D01*
X227659111Y-172888328D02*
X227587682Y-173174042D01*
X227587682Y-173174042D02*
X227444825Y-173316900D01*
X227444825Y-173316900D02*
X227301968Y-173388328D01*
X227301968Y-173388328D02*
X227016254Y-173388328D01*
X229087683Y-173388328D02*
X228230540Y-173388328D01*
X228659111Y-173388328D02*
X228659111Y-171888328D01*
X228659111Y-171888328D02*
X228516254Y-172102614D01*
X228516254Y-172102614D02*
X228373397Y-172245471D01*
X228373397Y-172245471D02*
X228230540Y-172316900D01*
X230016254Y-171888328D02*
X230159111Y-171888328D01*
X230159111Y-171888328D02*
X230301968Y-171959757D01*
X230301968Y-171959757D02*
X230373397Y-172031185D01*
X230373397Y-172031185D02*
X230444825Y-172174042D01*
X230444825Y-172174042D02*
X230516254Y-172459757D01*
X230516254Y-172459757D02*
X230516254Y-172816900D01*
X230516254Y-172816900D02*
X230444825Y-173102614D01*
X230444825Y-173102614D02*
X230373397Y-173245471D01*
X230373397Y-173245471D02*
X230301968Y-173316900D01*
X230301968Y-173316900D02*
X230159111Y-173388328D01*
X230159111Y-173388328D02*
X230016254Y-173388328D01*
X230016254Y-173388328D02*
X229873397Y-173316900D01*
X229873397Y-173316900D02*
X229801968Y-173245471D01*
X229801968Y-173245471D02*
X229730539Y-173102614D01*
X229730539Y-173102614D02*
X229659111Y-172816900D01*
X229659111Y-172816900D02*
X229659111Y-172459757D01*
X229659111Y-172459757D02*
X229730539Y-172174042D01*
X229730539Y-172174042D02*
X229801968Y-172031185D01*
X229801968Y-172031185D02*
X229873397Y-171959757D01*
X229873397Y-171959757D02*
X230016254Y-171888328D01*
X231444825Y-171888328D02*
X231587682Y-171888328D01*
X231587682Y-171888328D02*
X231730539Y-171959757D01*
X231730539Y-171959757D02*
X231801968Y-172031185D01*
X231801968Y-172031185D02*
X231873396Y-172174042D01*
X231873396Y-172174042D02*
X231944825Y-172459757D01*
X231944825Y-172459757D02*
X231944825Y-172816900D01*
X231944825Y-172816900D02*
X231873396Y-173102614D01*
X231873396Y-173102614D02*
X231801968Y-173245471D01*
X231801968Y-173245471D02*
X231730539Y-173316900D01*
X231730539Y-173316900D02*
X231587682Y-173388328D01*
X231587682Y-173388328D02*
X231444825Y-173388328D01*
X231444825Y-173388328D02*
X231301968Y-173316900D01*
X231301968Y-173316900D02*
X231230539Y-173245471D01*
X231230539Y-173245471D02*
X231159110Y-173102614D01*
X231159110Y-173102614D02*
X231087682Y-172816900D01*
X231087682Y-172816900D02*
X231087682Y-172459757D01*
X231087682Y-172459757D02*
X231159110Y-172174042D01*
X231159110Y-172174042D02*
X231230539Y-172031185D01*
X231230539Y-172031185D02*
X231301968Y-171959757D01*
X231301968Y-171959757D02*
X231444825Y-171888328D01*
X232587681Y-173245471D02*
X232659110Y-173316900D01*
X232659110Y-173316900D02*
X232587681Y-173388328D01*
X232587681Y-173388328D02*
X232516253Y-173316900D01*
X232516253Y-173316900D02*
X232587681Y-173245471D01*
X232587681Y-173245471D02*
X232587681Y-173388328D01*
X233301967Y-173388328D02*
X233301967Y-171888328D01*
X233444825Y-172816900D02*
X233873396Y-173388328D01*
X233873396Y-172388328D02*
X233301967Y-172959757D01*
X234516253Y-173388328D02*
X234516253Y-172388328D01*
X234516253Y-171888328D02*
X234444825Y-171959757D01*
X234444825Y-171959757D02*
X234516253Y-172031185D01*
X234516253Y-172031185D02*
X234587682Y-171959757D01*
X234587682Y-171959757D02*
X234516253Y-171888328D01*
X234516253Y-171888328D02*
X234516253Y-172031185D01*
X235873397Y-173316900D02*
X235730539Y-173388328D01*
X235730539Y-173388328D02*
X235444825Y-173388328D01*
X235444825Y-173388328D02*
X235301968Y-173316900D01*
X235301968Y-173316900D02*
X235230539Y-173245471D01*
X235230539Y-173245471D02*
X235159111Y-173102614D01*
X235159111Y-173102614D02*
X235159111Y-172674042D01*
X235159111Y-172674042D02*
X235230539Y-172531185D01*
X235230539Y-172531185D02*
X235301968Y-172459757D01*
X235301968Y-172459757D02*
X235444825Y-172388328D01*
X235444825Y-172388328D02*
X235730539Y-172388328D01*
X235730539Y-172388328D02*
X235873397Y-172459757D01*
X237159111Y-173388328D02*
X237159111Y-172602614D01*
X237159111Y-172602614D02*
X237087682Y-172459757D01*
X237087682Y-172459757D02*
X236944825Y-172388328D01*
X236944825Y-172388328D02*
X236659111Y-172388328D01*
X236659111Y-172388328D02*
X236516253Y-172459757D01*
X237159111Y-173316900D02*
X237016253Y-173388328D01*
X237016253Y-173388328D02*
X236659111Y-173388328D01*
X236659111Y-173388328D02*
X236516253Y-173316900D01*
X236516253Y-173316900D02*
X236444825Y-173174042D01*
X236444825Y-173174042D02*
X236444825Y-173031185D01*
X236444825Y-173031185D02*
X236516253Y-172888328D01*
X236516253Y-172888328D02*
X236659111Y-172816900D01*
X236659111Y-172816900D02*
X237016253Y-172816900D01*
X237016253Y-172816900D02*
X237159111Y-172745471D01*
X238516254Y-173388328D02*
X238516254Y-171888328D01*
X238516254Y-173316900D02*
X238373396Y-173388328D01*
X238373396Y-173388328D02*
X238087682Y-173388328D01*
X238087682Y-173388328D02*
X237944825Y-173316900D01*
X237944825Y-173316900D02*
X237873396Y-173245471D01*
X237873396Y-173245471D02*
X237801968Y-173102614D01*
X237801968Y-173102614D02*
X237801968Y-172674042D01*
X237801968Y-172674042D02*
X237873396Y-172531185D01*
X237873396Y-172531185D02*
X237944825Y-172459757D01*
X237944825Y-172459757D02*
X238087682Y-172388328D01*
X238087682Y-172388328D02*
X238373396Y-172388328D01*
X238373396Y-172388328D02*
X238516254Y-172459757D01*
X238873397Y-173531185D02*
X240016254Y-173531185D01*
X240373396Y-172388328D02*
X240373396Y-173888328D01*
X240373396Y-172459757D02*
X240516254Y-172388328D01*
X240516254Y-172388328D02*
X240801968Y-172388328D01*
X240801968Y-172388328D02*
X240944825Y-172459757D01*
X240944825Y-172459757D02*
X241016254Y-172531185D01*
X241016254Y-172531185D02*
X241087682Y-172674042D01*
X241087682Y-172674042D02*
X241087682Y-173102614D01*
X241087682Y-173102614D02*
X241016254Y-173245471D01*
X241016254Y-173245471D02*
X240944825Y-173316900D01*
X240944825Y-173316900D02*
X240801968Y-173388328D01*
X240801968Y-173388328D02*
X240516254Y-173388328D01*
X240516254Y-173388328D02*
X240373396Y-173316900D01*
X242373397Y-173316900D02*
X242230539Y-173388328D01*
X242230539Y-173388328D02*
X241944825Y-173388328D01*
X241944825Y-173388328D02*
X241801968Y-173316900D01*
X241801968Y-173316900D02*
X241730539Y-173245471D01*
X241730539Y-173245471D02*
X241659111Y-173102614D01*
X241659111Y-173102614D02*
X241659111Y-172674042D01*
X241659111Y-172674042D02*
X241730539Y-172531185D01*
X241730539Y-172531185D02*
X241801968Y-172459757D01*
X241801968Y-172459757D02*
X241944825Y-172388328D01*
X241944825Y-172388328D02*
X242230539Y-172388328D01*
X242230539Y-172388328D02*
X242373397Y-172459757D01*
X243016253Y-173388328D02*
X243016253Y-171888328D01*
X243016253Y-172459757D02*
X243159111Y-172388328D01*
X243159111Y-172388328D02*
X243444825Y-172388328D01*
X243444825Y-172388328D02*
X243587682Y-172459757D01*
X243587682Y-172459757D02*
X243659111Y-172531185D01*
X243659111Y-172531185D02*
X243730539Y-172674042D01*
X243730539Y-172674042D02*
X243730539Y-173102614D01*
X243730539Y-173102614D02*
X243659111Y-173245471D01*
X243659111Y-173245471D02*
X243587682Y-173316900D01*
X243587682Y-173316900D02*
X243444825Y-173388328D01*
X243444825Y-173388328D02*
X243159111Y-173388328D01*
X243159111Y-173388328D02*
X243016253Y-173316900D01*
D10*
D11*
X199989000Y-168502200D02*
X307989000Y-168502200D01*
D10*
D11*
X201373398Y-170616900D02*
X201587684Y-170688328D01*
X201587684Y-170688328D02*
X201944826Y-170688328D01*
X201944826Y-170688328D02*
X202087684Y-170616900D01*
X202087684Y-170616900D02*
X202159112Y-170545471D01*
X202159112Y-170545471D02*
X202230541Y-170402614D01*
X202230541Y-170402614D02*
X202230541Y-170259757D01*
X202230541Y-170259757D02*
X202159112Y-170116900D01*
X202159112Y-170116900D02*
X202087684Y-170045471D01*
X202087684Y-170045471D02*
X201944826Y-169974042D01*
X201944826Y-169974042D02*
X201659112Y-169902614D01*
X201659112Y-169902614D02*
X201516255Y-169831185D01*
X201516255Y-169831185D02*
X201444826Y-169759757D01*
X201444826Y-169759757D02*
X201373398Y-169616900D01*
X201373398Y-169616900D02*
X201373398Y-169474042D01*
X201373398Y-169474042D02*
X201444826Y-169331185D01*
X201444826Y-169331185D02*
X201516255Y-169259757D01*
X201516255Y-169259757D02*
X201659112Y-169188328D01*
X201659112Y-169188328D02*
X202016255Y-169188328D01*
X202016255Y-169188328D02*
X202230541Y-169259757D01*
X202873397Y-170688328D02*
X202873397Y-169188328D01*
X203516255Y-170688328D02*
X203516255Y-169902614D01*
X203516255Y-169902614D02*
X203444826Y-169759757D01*
X203444826Y-169759757D02*
X203301969Y-169688328D01*
X203301969Y-169688328D02*
X203087683Y-169688328D01*
X203087683Y-169688328D02*
X202944826Y-169759757D01*
X202944826Y-169759757D02*
X202873397Y-169831185D01*
X204801969Y-170616900D02*
X204659112Y-170688328D01*
X204659112Y-170688328D02*
X204373398Y-170688328D01*
X204373398Y-170688328D02*
X204230540Y-170616900D01*
X204230540Y-170616900D02*
X204159112Y-170474042D01*
X204159112Y-170474042D02*
X204159112Y-169902614D01*
X204159112Y-169902614D02*
X204230540Y-169759757D01*
X204230540Y-169759757D02*
X204373398Y-169688328D01*
X204373398Y-169688328D02*
X204659112Y-169688328D01*
X204659112Y-169688328D02*
X204801969Y-169759757D01*
X204801969Y-169759757D02*
X204873398Y-169902614D01*
X204873398Y-169902614D02*
X204873398Y-170045471D01*
X204873398Y-170045471D02*
X204159112Y-170188328D01*
X206087683Y-170616900D02*
X205944826Y-170688328D01*
X205944826Y-170688328D02*
X205659112Y-170688328D01*
X205659112Y-170688328D02*
X205516254Y-170616900D01*
X205516254Y-170616900D02*
X205444826Y-170474042D01*
X205444826Y-170474042D02*
X205444826Y-169902614D01*
X205444826Y-169902614D02*
X205516254Y-169759757D01*
X205516254Y-169759757D02*
X205659112Y-169688328D01*
X205659112Y-169688328D02*
X205944826Y-169688328D01*
X205944826Y-169688328D02*
X206087683Y-169759757D01*
X206087683Y-169759757D02*
X206159112Y-169902614D01*
X206159112Y-169902614D02*
X206159112Y-170045471D01*
X206159112Y-170045471D02*
X205444826Y-170188328D01*
X206587683Y-169688328D02*
X207159111Y-169688328D01*
X206801968Y-169188328D02*
X206801968Y-170474042D01*
X206801968Y-170474042D02*
X206873397Y-170616900D01*
X206873397Y-170616900D02*
X207016254Y-170688328D01*
X207016254Y-170688328D02*
X207159111Y-170688328D01*
X207659111Y-170545471D02*
X207730540Y-170616900D01*
X207730540Y-170616900D02*
X207659111Y-170688328D01*
X207659111Y-170688328D02*
X207587683Y-170616900D01*
X207587683Y-170616900D02*
X207659111Y-170545471D01*
X207659111Y-170545471D02*
X207659111Y-170688328D01*
X207659111Y-169759757D02*
X207730540Y-169831185D01*
X207730540Y-169831185D02*
X207659111Y-169902614D01*
X207659111Y-169902614D02*
X207587683Y-169831185D01*
X207587683Y-169831185D02*
X207659111Y-169759757D01*
X207659111Y-169759757D02*
X207659111Y-169902614D01*
D10*
D12*
X202257796Y-167680528D02*
X201543510Y-167680528D01*
X201543510Y-167680528D02*
X201543510Y-166180528D01*
X203043511Y-166180528D02*
X203329225Y-166180528D01*
X203329225Y-166180528D02*
X203472082Y-166251957D01*
X203472082Y-166251957D02*
X203614939Y-166394814D01*
X203614939Y-166394814D02*
X203686368Y-166680528D01*
X203686368Y-166680528D02*
X203686368Y-167180528D01*
X203686368Y-167180528D02*
X203614939Y-167466242D01*
X203614939Y-167466242D02*
X203472082Y-167609100D01*
X203472082Y-167609100D02*
X203329225Y-167680528D01*
X203329225Y-167680528D02*
X203043511Y-167680528D01*
X203043511Y-167680528D02*
X202900654Y-167609100D01*
X202900654Y-167609100D02*
X202757796Y-167466242D01*
X202757796Y-167466242D02*
X202686368Y-167180528D01*
X202686368Y-167180528D02*
X202686368Y-166680528D01*
X202686368Y-166680528D02*
X202757796Y-166394814D01*
X202757796Y-166394814D02*
X202900654Y-166251957D01*
X202900654Y-166251957D02*
X203043511Y-166180528D01*
X205114940Y-166251957D02*
X204972083Y-166180528D01*
X204972083Y-166180528D02*
X204757797Y-166180528D01*
X204757797Y-166180528D02*
X204543511Y-166251957D01*
X204543511Y-166251957D02*
X204400654Y-166394814D01*
X204400654Y-166394814D02*
X204329225Y-166537671D01*
X204329225Y-166537671D02*
X204257797Y-166823385D01*
X204257797Y-166823385D02*
X204257797Y-167037671D01*
X204257797Y-167037671D02*
X204329225Y-167323385D01*
X204329225Y-167323385D02*
X204400654Y-167466242D01*
X204400654Y-167466242D02*
X204543511Y-167609100D01*
X204543511Y-167609100D02*
X204757797Y-167680528D01*
X204757797Y-167680528D02*
X204900654Y-167680528D01*
X204900654Y-167680528D02*
X205114940Y-167609100D01*
X205114940Y-167609100D02*
X205186368Y-167537671D01*
X205186368Y-167537671D02*
X205186368Y-167037671D01*
X205186368Y-167037671D02*
X204900654Y-167037671D01*
X205829225Y-167680528D02*
X205829225Y-166180528D01*
X206329226Y-166180528D02*
X207186369Y-166180528D01*
X206757797Y-167680528D02*
X206757797Y-166180528D01*
X207686368Y-167680528D02*
X207686368Y-166180528D01*
X209114940Y-167680528D02*
X208400654Y-167680528D01*
X208400654Y-167680528D02*
X208400654Y-166180528D01*
X209614940Y-166894814D02*
X210114940Y-166894814D01*
X210329226Y-167680528D02*
X209614940Y-167680528D01*
X209614940Y-167680528D02*
X209614940Y-166180528D01*
X209614940Y-166180528D02*
X210329226Y-166180528D01*
X210900655Y-167609100D02*
X211114941Y-167680528D01*
X211114941Y-167680528D02*
X211472083Y-167680528D01*
X211472083Y-167680528D02*
X211614941Y-167609100D01*
X211614941Y-167609100D02*
X211686369Y-167537671D01*
X211686369Y-167537671D02*
X211757798Y-167394814D01*
X211757798Y-167394814D02*
X211757798Y-167251957D01*
X211757798Y-167251957D02*
X211686369Y-167109100D01*
X211686369Y-167109100D02*
X211614941Y-167037671D01*
X211614941Y-167037671D02*
X211472083Y-166966242D01*
X211472083Y-166966242D02*
X211186369Y-166894814D01*
X211186369Y-166894814D02*
X211043512Y-166823385D01*
X211043512Y-166823385D02*
X210972083Y-166751957D01*
X210972083Y-166751957D02*
X210900655Y-166609100D01*
X210900655Y-166609100D02*
X210900655Y-166466242D01*
X210900655Y-166466242D02*
X210972083Y-166323385D01*
X210972083Y-166323385D02*
X211043512Y-166251957D01*
X211043512Y-166251957D02*
X211186369Y-166180528D01*
X211186369Y-166180528D02*
X211543512Y-166180528D01*
X211543512Y-166180528D02*
X211757798Y-166251957D01*
X213543511Y-167680528D02*
X213543511Y-166180528D01*
X213543511Y-166751957D02*
X213686369Y-166680528D01*
X213686369Y-166680528D02*
X213972083Y-166680528D01*
X213972083Y-166680528D02*
X214114940Y-166751957D01*
X214114940Y-166751957D02*
X214186369Y-166823385D01*
X214186369Y-166823385D02*
X214257797Y-166966242D01*
X214257797Y-166966242D02*
X214257797Y-167394814D01*
X214257797Y-167394814D02*
X214186369Y-167537671D01*
X214186369Y-167537671D02*
X214114940Y-167609100D01*
X214114940Y-167609100D02*
X213972083Y-167680528D01*
X213972083Y-167680528D02*
X213686369Y-167680528D01*
X213686369Y-167680528D02*
X213543511Y-167609100D01*
X214757797Y-166680528D02*
X215114940Y-167680528D01*
X215472083Y-166680528D02*
X215114940Y-167680528D01*
X215114940Y-167680528D02*
X214972083Y-168037671D01*
X214972083Y-168037671D02*
X214900654Y-168109100D01*
X214900654Y-168109100D02*
X214757797Y-168180528D01*
X217186368Y-167680528D02*
X217186368Y-166180528D01*
X217186368Y-166894814D02*
X218043511Y-166894814D01*
X218043511Y-167680528D02*
X218043511Y-166180528D01*
X218757797Y-166894814D02*
X219257797Y-166894814D01*
X219472083Y-167680528D02*
X218757797Y-167680528D01*
X218757797Y-167680528D02*
X218757797Y-166180528D01*
X218757797Y-166180528D02*
X219472083Y-166180528D01*
X219972083Y-166180528D02*
X220972083Y-167680528D01*
X220972083Y-166180528D02*
X219972083Y-167680528D01*
X222400654Y-167537671D02*
X222329226Y-167609100D01*
X222329226Y-167609100D02*
X222114940Y-167680528D01*
X222114940Y-167680528D02*
X221972083Y-167680528D01*
X221972083Y-167680528D02*
X221757797Y-167609100D01*
X221757797Y-167609100D02*
X221614940Y-167466242D01*
X221614940Y-167466242D02*
X221543511Y-167323385D01*
X221543511Y-167323385D02*
X221472083Y-167037671D01*
X221472083Y-167037671D02*
X221472083Y-166823385D01*
X221472083Y-166823385D02*
X221543511Y-166537671D01*
X221543511Y-166537671D02*
X221614940Y-166394814D01*
X221614940Y-166394814D02*
X221757797Y-166251957D01*
X221757797Y-166251957D02*
X221972083Y-166180528D01*
X221972083Y-166180528D02*
X222114940Y-166180528D01*
X222114940Y-166180528D02*
X222329226Y-166251957D01*
X222329226Y-166251957D02*
X222400654Y-166323385D01*
X222972083Y-167251957D02*
X223686369Y-167251957D01*
X222829226Y-167680528D02*
X223329226Y-166180528D01*
X223329226Y-166180528D02*
X223829226Y-167680528D01*
X224329225Y-167680528D02*
X224329225Y-166180528D01*
X224329225Y-166180528D02*
X224900654Y-166180528D01*
X224900654Y-166180528D02*
X225043511Y-166251957D01*
X225043511Y-166251957D02*
X225114940Y-166323385D01*
X225114940Y-166323385D02*
X225186368Y-166466242D01*
X225186368Y-166466242D02*
X225186368Y-166680528D01*
X225186368Y-166680528D02*
X225114940Y-166823385D01*
X225114940Y-166823385D02*
X225043511Y-166894814D01*
X225043511Y-166894814D02*
X224900654Y-166966242D01*
X224900654Y-166966242D02*
X224329225Y-166966242D01*
X225829225Y-166894814D02*
X226329225Y-166894814D01*
X226543511Y-167680528D02*
X225829225Y-167680528D01*
X225829225Y-167680528D02*
X225829225Y-166180528D01*
X225829225Y-166180528D02*
X226543511Y-166180528D01*
D10*
D11*
X201444826Y-164688328D02*
X201444826Y-163188328D01*
X201444826Y-163188328D02*
X202016255Y-163188328D01*
X202016255Y-163188328D02*
X202159112Y-163259757D01*
X202159112Y-163259757D02*
X202230541Y-163331185D01*
X202230541Y-163331185D02*
X202301969Y-163474042D01*
X202301969Y-163474042D02*
X202301969Y-163688328D01*
X202301969Y-163688328D02*
X202230541Y-163831185D01*
X202230541Y-163831185D02*
X202159112Y-163902614D01*
X202159112Y-163902614D02*
X202016255Y-163974042D01*
X202016255Y-163974042D02*
X201444826Y-163974042D01*
X202944826Y-164688328D02*
X202944826Y-163688328D01*
X202944826Y-163188328D02*
X202873398Y-163259757D01*
X202873398Y-163259757D02*
X202944826Y-163331185D01*
X202944826Y-163331185D02*
X203016255Y-163259757D01*
X203016255Y-163259757D02*
X202944826Y-163188328D01*
X202944826Y-163188328D02*
X202944826Y-163331185D01*
X204230541Y-164616900D02*
X204087684Y-164688328D01*
X204087684Y-164688328D02*
X203801970Y-164688328D01*
X203801970Y-164688328D02*
X203659112Y-164616900D01*
X203659112Y-164616900D02*
X203587684Y-164474042D01*
X203587684Y-164474042D02*
X203587684Y-163902614D01*
X203587684Y-163902614D02*
X203659112Y-163759757D01*
X203659112Y-163759757D02*
X203801970Y-163688328D01*
X203801970Y-163688328D02*
X204087684Y-163688328D01*
X204087684Y-163688328D02*
X204230541Y-163759757D01*
X204230541Y-163759757D02*
X204301970Y-163902614D01*
X204301970Y-163902614D02*
X204301970Y-164045471D01*
X204301970Y-164045471D02*
X203587684Y-164188328D01*
X204944826Y-164688328D02*
X204944826Y-163688328D01*
X204944826Y-163974042D02*
X205016255Y-163831185D01*
X205016255Y-163831185D02*
X205087684Y-163759757D01*
X205087684Y-163759757D02*
X205230541Y-163688328D01*
X205230541Y-163688328D02*
X205373398Y-163688328D01*
X207516254Y-163902614D02*
X207016254Y-163902614D01*
X207016254Y-164688328D02*
X207016254Y-163188328D01*
X207016254Y-163188328D02*
X207730540Y-163188328D01*
X208301968Y-164688328D02*
X208301968Y-163688328D01*
X208301968Y-163974042D02*
X208373397Y-163831185D01*
X208373397Y-163831185D02*
X208444826Y-163759757D01*
X208444826Y-163759757D02*
X208587683Y-163688328D01*
X208587683Y-163688328D02*
X208730540Y-163688328D01*
X209873397Y-164688328D02*
X209873397Y-163902614D01*
X209873397Y-163902614D02*
X209801968Y-163759757D01*
X209801968Y-163759757D02*
X209659111Y-163688328D01*
X209659111Y-163688328D02*
X209373397Y-163688328D01*
X209373397Y-163688328D02*
X209230539Y-163759757D01*
X209873397Y-164616900D02*
X209730539Y-164688328D01*
X209730539Y-164688328D02*
X209373397Y-164688328D01*
X209373397Y-164688328D02*
X209230539Y-164616900D01*
X209230539Y-164616900D02*
X209159111Y-164474042D01*
X209159111Y-164474042D02*
X209159111Y-164331185D01*
X209159111Y-164331185D02*
X209230539Y-164188328D01*
X209230539Y-164188328D02*
X209373397Y-164116900D01*
X209373397Y-164116900D02*
X209730539Y-164116900D01*
X209730539Y-164116900D02*
X209873397Y-164045471D01*
X210587682Y-163688328D02*
X210587682Y-164688328D01*
X210587682Y-163831185D02*
X210659111Y-163759757D01*
X210659111Y-163759757D02*
X210801968Y-163688328D01*
X210801968Y-163688328D02*
X211016254Y-163688328D01*
X211016254Y-163688328D02*
X211159111Y-163759757D01*
X211159111Y-163759757D02*
X211230540Y-163902614D01*
X211230540Y-163902614D02*
X211230540Y-164688328D01*
X212587683Y-164616900D02*
X212444825Y-164688328D01*
X212444825Y-164688328D02*
X212159111Y-164688328D01*
X212159111Y-164688328D02*
X212016254Y-164616900D01*
X212016254Y-164616900D02*
X211944825Y-164545471D01*
X211944825Y-164545471D02*
X211873397Y-164402614D01*
X211873397Y-164402614D02*
X211873397Y-163974042D01*
X211873397Y-163974042D02*
X211944825Y-163831185D01*
X211944825Y-163831185D02*
X212016254Y-163759757D01*
X212016254Y-163759757D02*
X212159111Y-163688328D01*
X212159111Y-163688328D02*
X212444825Y-163688328D01*
X212444825Y-163688328D02*
X212587683Y-163759757D01*
X213801968Y-164616900D02*
X213659111Y-164688328D01*
X213659111Y-164688328D02*
X213373397Y-164688328D01*
X213373397Y-164688328D02*
X213230539Y-164616900D01*
X213230539Y-164616900D02*
X213159111Y-164474042D01*
X213159111Y-164474042D02*
X213159111Y-163902614D01*
X213159111Y-163902614D02*
X213230539Y-163759757D01*
X213230539Y-163759757D02*
X213373397Y-163688328D01*
X213373397Y-163688328D02*
X213659111Y-163688328D01*
X213659111Y-163688328D02*
X213801968Y-163759757D01*
X213801968Y-163759757D02*
X213873397Y-163902614D01*
X213873397Y-163902614D02*
X213873397Y-164045471D01*
X213873397Y-164045471D02*
X213159111Y-164188328D01*
X214444825Y-164616900D02*
X214587682Y-164688328D01*
X214587682Y-164688328D02*
X214873396Y-164688328D01*
X214873396Y-164688328D02*
X215016253Y-164616900D01*
X215016253Y-164616900D02*
X215087682Y-164474042D01*
X215087682Y-164474042D02*
X215087682Y-164402614D01*
X215087682Y-164402614D02*
X215016253Y-164259757D01*
X215016253Y-164259757D02*
X214873396Y-164188328D01*
X214873396Y-164188328D02*
X214659111Y-164188328D01*
X214659111Y-164188328D02*
X214516253Y-164116900D01*
X214516253Y-164116900D02*
X214444825Y-163974042D01*
X214444825Y-163974042D02*
X214444825Y-163902614D01*
X214444825Y-163902614D02*
X214516253Y-163759757D01*
X214516253Y-163759757D02*
X214659111Y-163688328D01*
X214659111Y-163688328D02*
X214873396Y-163688328D01*
X214873396Y-163688328D02*
X215016253Y-163759757D01*
X216373397Y-164616900D02*
X216230539Y-164688328D01*
X216230539Y-164688328D02*
X215944825Y-164688328D01*
X215944825Y-164688328D02*
X215801968Y-164616900D01*
X215801968Y-164616900D02*
X215730539Y-164545471D01*
X215730539Y-164545471D02*
X215659111Y-164402614D01*
X215659111Y-164402614D02*
X215659111Y-163974042D01*
X215659111Y-163974042D02*
X215730539Y-163831185D01*
X215730539Y-163831185D02*
X215801968Y-163759757D01*
X215801968Y-163759757D02*
X215944825Y-163688328D01*
X215944825Y-163688328D02*
X216230539Y-163688328D01*
X216230539Y-163688328D02*
X216373397Y-163759757D01*
X217230539Y-164688328D02*
X217087682Y-164616900D01*
X217087682Y-164616900D02*
X217016253Y-164545471D01*
X217016253Y-164545471D02*
X216944825Y-164402614D01*
X216944825Y-164402614D02*
X216944825Y-163974042D01*
X216944825Y-163974042D02*
X217016253Y-163831185D01*
X217016253Y-163831185D02*
X217087682Y-163759757D01*
X217087682Y-163759757D02*
X217230539Y-163688328D01*
X217230539Y-163688328D02*
X217444825Y-163688328D01*
X217444825Y-163688328D02*
X217587682Y-163759757D01*
X217587682Y-163759757D02*
X217659111Y-163831185D01*
X217659111Y-163831185D02*
X217730539Y-163974042D01*
X217730539Y-163974042D02*
X217730539Y-164402614D01*
X217730539Y-164402614D02*
X217659111Y-164545471D01*
X217659111Y-164545471D02*
X217587682Y-164616900D01*
X217587682Y-164616900D02*
X217444825Y-164688328D01*
X217444825Y-164688328D02*
X217230539Y-164688328D01*
X219516253Y-164688328D02*
X219516253Y-163188328D01*
X219516253Y-163188328D02*
X220016253Y-164259757D01*
X220016253Y-164259757D02*
X220516253Y-163188328D01*
X220516253Y-163188328D02*
X220516253Y-164688328D01*
X221873397Y-164688328D02*
X221873397Y-163902614D01*
X221873397Y-163902614D02*
X221801968Y-163759757D01*
X221801968Y-163759757D02*
X221659111Y-163688328D01*
X221659111Y-163688328D02*
X221373397Y-163688328D01*
X221373397Y-163688328D02*
X221230539Y-163759757D01*
X221873397Y-164616900D02*
X221730539Y-164688328D01*
X221730539Y-164688328D02*
X221373397Y-164688328D01*
X221373397Y-164688328D02*
X221230539Y-164616900D01*
X221230539Y-164616900D02*
X221159111Y-164474042D01*
X221159111Y-164474042D02*
X221159111Y-164331185D01*
X221159111Y-164331185D02*
X221230539Y-164188328D01*
X221230539Y-164188328D02*
X221373397Y-164116900D01*
X221373397Y-164116900D02*
X221730539Y-164116900D01*
X221730539Y-164116900D02*
X221873397Y-164045471D01*
X222587682Y-164688328D02*
X222587682Y-163688328D01*
X222587682Y-163974042D02*
X222659111Y-163831185D01*
X222659111Y-163831185D02*
X222730540Y-163759757D01*
X222730540Y-163759757D02*
X222873397Y-163688328D01*
X222873397Y-163688328D02*
X223016254Y-163688328D01*
X223516253Y-164688328D02*
X223516253Y-163688328D01*
X223516253Y-163188328D02*
X223444825Y-163259757D01*
X223444825Y-163259757D02*
X223516253Y-163331185D01*
X223516253Y-163331185D02*
X223587682Y-163259757D01*
X223587682Y-163259757D02*
X223516253Y-163188328D01*
X223516253Y-163188328D02*
X223516253Y-163331185D01*
X224873397Y-164688328D02*
X224873397Y-163902614D01*
X224873397Y-163902614D02*
X224801968Y-163759757D01*
X224801968Y-163759757D02*
X224659111Y-163688328D01*
X224659111Y-163688328D02*
X224373397Y-163688328D01*
X224373397Y-163688328D02*
X224230539Y-163759757D01*
X224873397Y-164616900D02*
X224730539Y-164688328D01*
X224730539Y-164688328D02*
X224373397Y-164688328D01*
X224373397Y-164688328D02*
X224230539Y-164616900D01*
X224230539Y-164616900D02*
X224159111Y-164474042D01*
X224159111Y-164474042D02*
X224159111Y-164331185D01*
X224159111Y-164331185D02*
X224230539Y-164188328D01*
X224230539Y-164188328D02*
X224373397Y-164116900D01*
X224373397Y-164116900D02*
X224730539Y-164116900D01*
X224730539Y-164116900D02*
X224873397Y-164045471D01*
X226659111Y-164616900D02*
X226873397Y-164688328D01*
X226873397Y-164688328D02*
X227230539Y-164688328D01*
X227230539Y-164688328D02*
X227373397Y-164616900D01*
X227373397Y-164616900D02*
X227444825Y-164545471D01*
X227444825Y-164545471D02*
X227516254Y-164402614D01*
X227516254Y-164402614D02*
X227516254Y-164259757D01*
X227516254Y-164259757D02*
X227444825Y-164116900D01*
X227444825Y-164116900D02*
X227373397Y-164045471D01*
X227373397Y-164045471D02*
X227230539Y-163974042D01*
X227230539Y-163974042D02*
X226944825Y-163902614D01*
X226944825Y-163902614D02*
X226801968Y-163831185D01*
X226801968Y-163831185D02*
X226730539Y-163759757D01*
X226730539Y-163759757D02*
X226659111Y-163616900D01*
X226659111Y-163616900D02*
X226659111Y-163474042D01*
X226659111Y-163474042D02*
X226730539Y-163331185D01*
X226730539Y-163331185D02*
X226801968Y-163259757D01*
X226801968Y-163259757D02*
X226944825Y-163188328D01*
X226944825Y-163188328D02*
X227301968Y-163188328D01*
X227301968Y-163188328D02*
X227516254Y-163259757D01*
X228801968Y-164688328D02*
X228801968Y-163902614D01*
X228801968Y-163902614D02*
X228730539Y-163759757D01*
X228730539Y-163759757D02*
X228587682Y-163688328D01*
X228587682Y-163688328D02*
X228301968Y-163688328D01*
X228301968Y-163688328D02*
X228159110Y-163759757D01*
X228801968Y-164616900D02*
X228659110Y-164688328D01*
X228659110Y-164688328D02*
X228301968Y-164688328D01*
X228301968Y-164688328D02*
X228159110Y-164616900D01*
X228159110Y-164616900D02*
X228087682Y-164474042D01*
X228087682Y-164474042D02*
X228087682Y-164331185D01*
X228087682Y-164331185D02*
X228159110Y-164188328D01*
X228159110Y-164188328D02*
X228301968Y-164116900D01*
X228301968Y-164116900D02*
X228659110Y-164116900D01*
X228659110Y-164116900D02*
X228801968Y-164045471D01*
X229516253Y-163688328D02*
X229516253Y-164688328D01*
X229516253Y-163831185D02*
X229587682Y-163759757D01*
X229587682Y-163759757D02*
X229730539Y-163688328D01*
X229730539Y-163688328D02*
X229944825Y-163688328D01*
X229944825Y-163688328D02*
X230087682Y-163759757D01*
X230087682Y-163759757D02*
X230159111Y-163902614D01*
X230159111Y-163902614D02*
X230159111Y-164688328D01*
X230659111Y-163688328D02*
X231230539Y-163688328D01*
X230873396Y-163188328D02*
X230873396Y-164474042D01*
X230873396Y-164474042D02*
X230944825Y-164616900D01*
X230944825Y-164616900D02*
X231087682Y-164688328D01*
X231087682Y-164688328D02*
X231230539Y-164688328D01*
X231730539Y-164688328D02*
X231730539Y-163688328D01*
X231730539Y-163188328D02*
X231659111Y-163259757D01*
X231659111Y-163259757D02*
X231730539Y-163331185D01*
X231730539Y-163331185D02*
X231801968Y-163259757D01*
X231801968Y-163259757D02*
X231730539Y-163188328D01*
X231730539Y-163188328D02*
X231730539Y-163331185D01*
D10*
D11*
X219989000Y-178502200D02*
X219989000Y-181502200D01*
D10*
D11*
X283989000Y-178502200D02*
X283989000Y-185002200D01*
D14*
X109985526Y-40220019D02*
X109985526Y-39553352D01*
X109985526Y-39743828D02*
X109937907Y-39648590D01*
X109937907Y-39648590D02*
X109890288Y-39600971D01*
X109890288Y-39600971D02*
X109795050Y-39553352D01*
X109795050Y-39553352D02*
X109699812Y-39553352D01*
X108985526Y-40172400D02*
X109080764Y-40220019D01*
X109080764Y-40220019D02*
X109271240Y-40220019D01*
X109271240Y-40220019D02*
X109366478Y-40172400D01*
X109366478Y-40172400D02*
X109414097Y-40077161D01*
X109414097Y-40077161D02*
X109414097Y-39696209D01*
X109414097Y-39696209D02*
X109366478Y-39600971D01*
X109366478Y-39600971D02*
X109271240Y-39553352D01*
X109271240Y-39553352D02*
X109080764Y-39553352D01*
X109080764Y-39553352D02*
X108985526Y-39600971D01*
X108985526Y-39600971D02*
X108937907Y-39696209D01*
X108937907Y-39696209D02*
X108937907Y-39791447D01*
X108937907Y-39791447D02*
X109414097Y-39886685D01*
X108604573Y-39553352D02*
X108366478Y-40220019D01*
X108366478Y-40220019D02*
X108128383Y-39553352D01*
X107747430Y-40124780D02*
X107699811Y-40172400D01*
X107699811Y-40172400D02*
X107747430Y-40220019D01*
X107747430Y-40220019D02*
X107795049Y-40172400D01*
X107795049Y-40172400D02*
X107747430Y-40124780D01*
X107747430Y-40124780D02*
X107747430Y-40220019D01*
X106318859Y-39220019D02*
X106223621Y-39220019D01*
X106223621Y-39220019D02*
X106128383Y-39267638D01*
X106128383Y-39267638D02*
X106080764Y-39315257D01*
X106080764Y-39315257D02*
X106033145Y-39410495D01*
X106033145Y-39410495D02*
X105985526Y-39600971D01*
X105985526Y-39600971D02*
X105985526Y-39839066D01*
X105985526Y-39839066D02*
X106033145Y-40029542D01*
X106033145Y-40029542D02*
X106080764Y-40124780D01*
X106080764Y-40124780D02*
X106128383Y-40172400D01*
X106128383Y-40172400D02*
X106223621Y-40220019D01*
X106223621Y-40220019D02*
X106318859Y-40220019D01*
X106318859Y-40220019D02*
X106414097Y-40172400D01*
X106414097Y-40172400D02*
X106461716Y-40124780D01*
X106461716Y-40124780D02*
X106509335Y-40029542D01*
X106509335Y-40029542D02*
X106556954Y-39839066D01*
X106556954Y-39839066D02*
X106556954Y-39600971D01*
X106556954Y-39600971D02*
X106509335Y-39410495D01*
X106509335Y-39410495D02*
X106461716Y-39315257D01*
X106461716Y-39315257D02*
X106414097Y-39267638D01*
X106414097Y-39267638D02*
X106318859Y-39220019D01*
X105556954Y-40124780D02*
X105509335Y-40172400D01*
X105509335Y-40172400D02*
X105556954Y-40220019D01*
X105556954Y-40220019D02*
X105604573Y-40172400D01*
X105604573Y-40172400D02*
X105556954Y-40124780D01*
X105556954Y-40124780D02*
X105556954Y-40220019D01*
X105033145Y-40220019D02*
X104842669Y-40220019D01*
X104842669Y-40220019D02*
X104747431Y-40172400D01*
X104747431Y-40172400D02*
X104699812Y-40124780D01*
X104699812Y-40124780D02*
X104604574Y-39981923D01*
X104604574Y-39981923D02*
X104556955Y-39791447D01*
X104556955Y-39791447D02*
X104556955Y-39410495D01*
X104556955Y-39410495D02*
X104604574Y-39315257D01*
X104604574Y-39315257D02*
X104652193Y-39267638D01*
X104652193Y-39267638D02*
X104747431Y-39220019D01*
X104747431Y-39220019D02*
X104937907Y-39220019D01*
X104937907Y-39220019D02*
X105033145Y-39267638D01*
X105033145Y-39267638D02*
X105080764Y-39315257D01*
X105080764Y-39315257D02*
X105128383Y-39410495D01*
X105128383Y-39410495D02*
X105128383Y-39648590D01*
X105128383Y-39648590D02*
X105080764Y-39743828D01*
X105080764Y-39743828D02*
X105033145Y-39791447D01*
X105033145Y-39791447D02*
X104937907Y-39839066D01*
X104937907Y-39839066D02*
X104747431Y-39839066D01*
X104747431Y-39839066D02*
X104652193Y-39791447D01*
X104652193Y-39791447D02*
X104604574Y-39743828D01*
X104604574Y-39743828D02*
X104556955Y-39648590D01*
X103604574Y-40220019D02*
X104176002Y-40220019D01*
X103890288Y-40220019D02*
X103890288Y-39220019D01*
X103890288Y-39220019D02*
X103985526Y-39362876D01*
X103985526Y-39362876D02*
X104080764Y-39458114D01*
X104080764Y-39458114D02*
X104176002Y-39505733D01*
X117599043Y-37394628D02*
X117599043Y-35894628D01*
X117599043Y-36608914D02*
X116741900Y-36608914D01*
X116741900Y-37394628D02*
X116741900Y-35894628D01*
X116027614Y-36608914D02*
X115527614Y-36608914D01*
X115313328Y-37394628D02*
X116027614Y-37394628D01*
X116027614Y-37394628D02*
X116027614Y-35894628D01*
X116027614Y-35894628D02*
X115313328Y-35894628D01*
X114813328Y-35894628D02*
X113813328Y-37394628D01*
X113813328Y-35894628D02*
X114813328Y-37394628D01*
X112741900Y-36608914D02*
X112527614Y-36680342D01*
X112527614Y-36680342D02*
X112456185Y-36751771D01*
X112456185Y-36751771D02*
X112384757Y-36894628D01*
X112384757Y-36894628D02*
X112384757Y-37108914D01*
X112384757Y-37108914D02*
X112456185Y-37251771D01*
X112456185Y-37251771D02*
X112527614Y-37323200D01*
X112527614Y-37323200D02*
X112670471Y-37394628D01*
X112670471Y-37394628D02*
X113241900Y-37394628D01*
X113241900Y-37394628D02*
X113241900Y-35894628D01*
X113241900Y-35894628D02*
X112741900Y-35894628D01*
X112741900Y-35894628D02*
X112599043Y-35966057D01*
X112599043Y-35966057D02*
X112527614Y-36037485D01*
X112527614Y-36037485D02*
X112456185Y-36180342D01*
X112456185Y-36180342D02*
X112456185Y-36323200D01*
X112456185Y-36323200D02*
X112527614Y-36466057D01*
X112527614Y-36466057D02*
X112599043Y-36537485D01*
X112599043Y-36537485D02*
X112741900Y-36608914D01*
X112741900Y-36608914D02*
X113241900Y-36608914D01*
X111741900Y-36608914D02*
X111241900Y-36608914D01*
X111027614Y-37394628D02*
X111741900Y-37394628D01*
X111741900Y-37394628D02*
X111741900Y-35894628D01*
X111741900Y-35894628D02*
X111027614Y-35894628D01*
X109527614Y-37394628D02*
X110027614Y-36680342D01*
X110384757Y-37394628D02*
X110384757Y-35894628D01*
X110384757Y-35894628D02*
X109813328Y-35894628D01*
X109813328Y-35894628D02*
X109670471Y-35966057D01*
X109670471Y-35966057D02*
X109599042Y-36037485D01*
X109599042Y-36037485D02*
X109527614Y-36180342D01*
X109527614Y-36180342D02*
X109527614Y-36394628D01*
X109527614Y-36394628D02*
X109599042Y-36537485D01*
X109599042Y-36537485D02*
X109670471Y-36608914D01*
X109670471Y-36608914D02*
X109813328Y-36680342D01*
X109813328Y-36680342D02*
X110384757Y-36680342D01*
X108027614Y-37394628D02*
X108527614Y-36680342D01*
X108884757Y-37394628D02*
X108884757Y-35894628D01*
X108884757Y-35894628D02*
X108313328Y-35894628D01*
X108313328Y-35894628D02*
X108170471Y-35966057D01*
X108170471Y-35966057D02*
X108099042Y-36037485D01*
X108099042Y-36037485D02*
X108027614Y-36180342D01*
X108027614Y-36180342D02*
X108027614Y-36394628D01*
X108027614Y-36394628D02*
X108099042Y-36537485D01*
X108099042Y-36537485D02*
X108170471Y-36608914D01*
X108170471Y-36608914D02*
X108313328Y-36680342D01*
X108313328Y-36680342D02*
X108884757Y-36680342D01*
X107099042Y-36680342D02*
X107099042Y-37394628D01*
X107599042Y-35894628D02*
X107099042Y-36680342D01*
X107099042Y-36680342D02*
X106599042Y-35894628D01*
X106099043Y-36823200D02*
X104956186Y-36823200D01*
X104456185Y-35894628D02*
X103956185Y-37394628D01*
X103956185Y-37394628D02*
X103456185Y-35894628D01*
X102956186Y-36823200D02*
X101813329Y-36823200D01*
X101170471Y-36037485D02*
X101099043Y-35966057D01*
X101099043Y-35966057D02*
X100956186Y-35894628D01*
X100956186Y-35894628D02*
X100599043Y-35894628D01*
X100599043Y-35894628D02*
X100456186Y-35966057D01*
X100456186Y-35966057D02*
X100384757Y-36037485D01*
X100384757Y-36037485D02*
X100313328Y-36180342D01*
X100313328Y-36180342D02*
X100313328Y-36323200D01*
X100313328Y-36323200D02*
X100384757Y-36537485D01*
X100384757Y-36537485D02*
X101241900Y-37394628D01*
X101241900Y-37394628D02*
X100313328Y-37394628D01*
X99384757Y-35894628D02*
X99241900Y-35894628D01*
X99241900Y-35894628D02*
X99099043Y-35966057D01*
X99099043Y-35966057D02*
X99027615Y-36037485D01*
X99027615Y-36037485D02*
X98956186Y-36180342D01*
X98956186Y-36180342D02*
X98884757Y-36466057D01*
X98884757Y-36466057D02*
X98884757Y-36823200D01*
X98884757Y-36823200D02*
X98956186Y-37108914D01*
X98956186Y-37108914D02*
X99027615Y-37251771D01*
X99027615Y-37251771D02*
X99099043Y-37323200D01*
X99099043Y-37323200D02*
X99241900Y-37394628D01*
X99241900Y-37394628D02*
X99384757Y-37394628D01*
X99384757Y-37394628D02*
X99527615Y-37323200D01*
X99527615Y-37323200D02*
X99599043Y-37251771D01*
X99599043Y-37251771D02*
X99670472Y-37108914D01*
X99670472Y-37108914D02*
X99741900Y-36823200D01*
X99741900Y-36823200D02*
X99741900Y-36466057D01*
X99741900Y-36466057D02*
X99670472Y-36180342D01*
X99670472Y-36180342D02*
X99599043Y-36037485D01*
X99599043Y-36037485D02*
X99527615Y-35966057D01*
X99527615Y-35966057D02*
X99384757Y-35894628D01*
X97241901Y-37537485D02*
X97384758Y-37466057D01*
X97384758Y-37466057D02*
X97527615Y-37323200D01*
X97527615Y-37323200D02*
X97741901Y-37108914D01*
X97741901Y-37108914D02*
X97884758Y-37037485D01*
X97884758Y-37037485D02*
X98027615Y-37037485D01*
X97956186Y-37394628D02*
X98099044Y-37323200D01*
X98099044Y-37323200D02*
X98241901Y-37180342D01*
X98241901Y-37180342D02*
X98313329Y-36894628D01*
X98313329Y-36894628D02*
X98313329Y-36394628D01*
X98313329Y-36394628D02*
X98241901Y-36108914D01*
X98241901Y-36108914D02*
X98099044Y-35966057D01*
X98099044Y-35966057D02*
X97956186Y-35894628D01*
X97956186Y-35894628D02*
X97670472Y-35894628D01*
X97670472Y-35894628D02*
X97527615Y-35966057D01*
X97527615Y-35966057D02*
X97384758Y-36108914D01*
X97384758Y-36108914D02*
X97313329Y-36394628D01*
X97313329Y-36394628D02*
X97313329Y-36894628D01*
X97313329Y-36894628D02*
X97384758Y-37180342D01*
X97384758Y-37180342D02*
X97527615Y-37323200D01*
X97527615Y-37323200D02*
X97670472Y-37394628D01*
X97670472Y-37394628D02*
X97956186Y-37394628D01*
X95884757Y-37394628D02*
X96741900Y-37394628D01*
X96313329Y-37394628D02*
X96313329Y-35894628D01*
X96313329Y-35894628D02*
X96456186Y-36108914D01*
X96456186Y-36108914D02*
X96599043Y-36251771D01*
X96599043Y-36251771D02*
X96741900Y-36323200D01*
X94956186Y-35894628D02*
X94813329Y-35894628D01*
X94813329Y-35894628D02*
X94670472Y-35966057D01*
X94670472Y-35966057D02*
X94599044Y-36037485D01*
X94599044Y-36037485D02*
X94527615Y-36180342D01*
X94527615Y-36180342D02*
X94456186Y-36466057D01*
X94456186Y-36466057D02*
X94456186Y-36823200D01*
X94456186Y-36823200D02*
X94527615Y-37108914D01*
X94527615Y-37108914D02*
X94599044Y-37251771D01*
X94599044Y-37251771D02*
X94670472Y-37323200D01*
X94670472Y-37323200D02*
X94813329Y-37394628D01*
X94813329Y-37394628D02*
X94956186Y-37394628D01*
X94956186Y-37394628D02*
X95099044Y-37323200D01*
X95099044Y-37323200D02*
X95170472Y-37251771D01*
X95170472Y-37251771D02*
X95241901Y-37108914D01*
X95241901Y-37108914D02*
X95313329Y-36823200D01*
X95313329Y-36823200D02*
X95313329Y-36466057D01*
X95313329Y-36466057D02*
X95241901Y-36180342D01*
X95241901Y-36180342D02*
X95170472Y-36037485D01*
X95170472Y-36037485D02*
X95099044Y-35966057D01*
X95099044Y-35966057D02*
X94956186Y-35894628D01*
X93527615Y-35894628D02*
X93384758Y-35894628D01*
X93384758Y-35894628D02*
X93241901Y-35966057D01*
X93241901Y-35966057D02*
X93170473Y-36037485D01*
X93170473Y-36037485D02*
X93099044Y-36180342D01*
X93099044Y-36180342D02*
X93027615Y-36466057D01*
X93027615Y-36466057D02*
X93027615Y-36823200D01*
X93027615Y-36823200D02*
X93099044Y-37108914D01*
X93099044Y-37108914D02*
X93170473Y-37251771D01*
X93170473Y-37251771D02*
X93241901Y-37323200D01*
X93241901Y-37323200D02*
X93384758Y-37394628D01*
X93384758Y-37394628D02*
X93527615Y-37394628D01*
X93527615Y-37394628D02*
X93670473Y-37323200D01*
X93670473Y-37323200D02*
X93741901Y-37251771D01*
X93741901Y-37251771D02*
X93813330Y-37108914D01*
X93813330Y-37108914D02*
X93884758Y-36823200D01*
X93884758Y-36823200D02*
X93884758Y-36466057D01*
X93884758Y-36466057D02*
X93813330Y-36180342D01*
X93813330Y-36180342D02*
X93741901Y-36037485D01*
X93741901Y-36037485D02*
X93670473Y-35966057D01*
X93670473Y-35966057D02*
X93527615Y-35894628D01*
X79546161Y-38906831D02*
X81546161Y-38906831D01*
X79546161Y-38049688D02*
X80593780Y-38049688D01*
X80593780Y-38049688D02*
X80784257Y-38144926D01*
X80784257Y-38144926D02*
X80879495Y-38335402D01*
X80879495Y-38335402D02*
X80879495Y-38621117D01*
X80879495Y-38621117D02*
X80784257Y-38811593D01*
X80784257Y-38811593D02*
X80689019Y-38906831D01*
X79641400Y-36335402D02*
X79546161Y-36525878D01*
X79546161Y-36525878D02*
X79546161Y-36906831D01*
X79546161Y-36906831D02*
X79641400Y-37097307D01*
X79641400Y-37097307D02*
X79831876Y-37192545D01*
X79831876Y-37192545D02*
X80593780Y-37192545D01*
X80593780Y-37192545D02*
X80784257Y-37097307D01*
X80784257Y-37097307D02*
X80879495Y-36906831D01*
X80879495Y-36906831D02*
X80879495Y-36525878D01*
X80879495Y-36525878D02*
X80784257Y-36335402D01*
X80784257Y-36335402D02*
X80593780Y-36240164D01*
X80593780Y-36240164D02*
X80403304Y-36240164D01*
X80403304Y-36240164D02*
X80212828Y-37192545D01*
X79546161Y-35573497D02*
X80879495Y-34525878D01*
X80879495Y-35573497D02*
X79546161Y-34525878D01*
X79546161Y-33763973D02*
X81546161Y-33763973D01*
X80784257Y-33763973D02*
X80879495Y-33573497D01*
X80879495Y-33573497D02*
X80879495Y-33192544D01*
X80879495Y-33192544D02*
X80784257Y-33002068D01*
X80784257Y-33002068D02*
X80689019Y-32906830D01*
X80689019Y-32906830D02*
X80498542Y-32811592D01*
X80498542Y-32811592D02*
X79927114Y-32811592D01*
X79927114Y-32811592D02*
X79736638Y-32906830D01*
X79736638Y-32906830D02*
X79641400Y-33002068D01*
X79641400Y-33002068D02*
X79546161Y-33192544D01*
X79546161Y-33192544D02*
X79546161Y-33573497D01*
X79546161Y-33573497D02*
X79641400Y-33763973D01*
X79641400Y-31192544D02*
X79546161Y-31383020D01*
X79546161Y-31383020D02*
X79546161Y-31763973D01*
X79546161Y-31763973D02*
X79641400Y-31954449D01*
X79641400Y-31954449D02*
X79831876Y-32049687D01*
X79831876Y-32049687D02*
X80593780Y-32049687D01*
X80593780Y-32049687D02*
X80784257Y-31954449D01*
X80784257Y-31954449D02*
X80879495Y-31763973D01*
X80879495Y-31763973D02*
X80879495Y-31383020D01*
X80879495Y-31383020D02*
X80784257Y-31192544D01*
X80784257Y-31192544D02*
X80593780Y-31097306D01*
X80593780Y-31097306D02*
X80403304Y-31097306D01*
X80403304Y-31097306D02*
X80212828Y-32049687D01*
X79546161Y-30240163D02*
X80879495Y-30240163D01*
X80498542Y-30240163D02*
X80689019Y-30144925D01*
X80689019Y-30144925D02*
X80784257Y-30049687D01*
X80784257Y-30049687D02*
X80879495Y-29859211D01*
X80879495Y-29859211D02*
X80879495Y-29668734D01*
X79546161Y-29002068D02*
X80879495Y-29002068D01*
X80498542Y-29002068D02*
X80689019Y-28906830D01*
X80689019Y-28906830D02*
X80784257Y-28811592D01*
X80784257Y-28811592D02*
X80879495Y-28621116D01*
X80879495Y-28621116D02*
X80879495Y-28430639D01*
X80879495Y-27954449D02*
X79546161Y-27478259D01*
X80879495Y-27002068D02*
X79546161Y-27478259D01*
X79546161Y-27478259D02*
X79069971Y-27668735D01*
X79069971Y-27668735D02*
X78974733Y-27763973D01*
X78974733Y-27763973D02*
X78879495Y-27954449D01*
X80879495Y-26430639D02*
X79546161Y-25954449D01*
X79546161Y-25954449D02*
X80879495Y-25478258D01*
X79736638Y-24716353D02*
X79641400Y-24621115D01*
X79641400Y-24621115D02*
X79546161Y-24716353D01*
X79546161Y-24716353D02*
X79641400Y-24811591D01*
X79641400Y-24811591D02*
X79736638Y-24716353D01*
X79736638Y-24716353D02*
X79546161Y-24716353D01*
X79641400Y-23002067D02*
X79546161Y-23192543D01*
X79546161Y-23192543D02*
X79546161Y-23573496D01*
X79546161Y-23573496D02*
X79641400Y-23763972D01*
X79641400Y-23763972D02*
X79831876Y-23859210D01*
X79831876Y-23859210D02*
X80593780Y-23859210D01*
X80593780Y-23859210D02*
X80784257Y-23763972D01*
X80784257Y-23763972D02*
X80879495Y-23573496D01*
X80879495Y-23573496D02*
X80879495Y-23192543D01*
X80879495Y-23192543D02*
X80784257Y-23002067D01*
X80784257Y-23002067D02*
X80593780Y-22906829D01*
X80593780Y-22906829D02*
X80403304Y-22906829D01*
X80403304Y-22906829D02*
X80212828Y-23859210D01*
X80879495Y-21192543D02*
X79546161Y-21192543D01*
X80879495Y-22049686D02*
X79831876Y-22049686D01*
X79831876Y-22049686D02*
X79641400Y-21954448D01*
X79641400Y-21954448D02*
X79546161Y-21763972D01*
X79546161Y-21763972D02*
X79546161Y-21478257D01*
X79546161Y-21478257D02*
X79641400Y-21287781D01*
X79641400Y-21287781D02*
X79736638Y-21192543D01*
X93192993Y-18248095D02*
X93573945Y-18248095D01*
X93573945Y-18248095D02*
X93573945Y-17448095D01*
X92507279Y-17486190D02*
X92583469Y-17448095D01*
X92583469Y-17448095D02*
X92697755Y-17448095D01*
X92697755Y-17448095D02*
X92812041Y-17486190D01*
X92812041Y-17486190D02*
X92888231Y-17562380D01*
X92888231Y-17562380D02*
X92926326Y-17638571D01*
X92926326Y-17638571D02*
X92964422Y-17790952D01*
X92964422Y-17790952D02*
X92964422Y-17905238D01*
X92964422Y-17905238D02*
X92926326Y-18057619D01*
X92926326Y-18057619D02*
X92888231Y-18133809D01*
X92888231Y-18133809D02*
X92812041Y-18210000D01*
X92812041Y-18210000D02*
X92697755Y-18248095D01*
X92697755Y-18248095D02*
X92621564Y-18248095D01*
X92621564Y-18248095D02*
X92507279Y-18210000D01*
X92507279Y-18210000D02*
X92469183Y-18171904D01*
X92469183Y-18171904D02*
X92469183Y-17905238D01*
X92469183Y-17905238D02*
X92621564Y-17905238D01*
X92240612Y-17448095D02*
X91783469Y-17448095D01*
X92012041Y-18248095D02*
X92012041Y-17448095D01*
X91364421Y-17448095D02*
X91288231Y-17448095D01*
X91288231Y-17448095D02*
X91212040Y-17486190D01*
X91212040Y-17486190D02*
X91173945Y-17524285D01*
X91173945Y-17524285D02*
X91135850Y-17600476D01*
X91135850Y-17600476D02*
X91097755Y-17752857D01*
X91097755Y-17752857D02*
X91097755Y-17943333D01*
X91097755Y-17943333D02*
X91135850Y-18095714D01*
X91135850Y-18095714D02*
X91173945Y-18171904D01*
X91173945Y-18171904D02*
X91212040Y-18210000D01*
X91212040Y-18210000D02*
X91288231Y-18248095D01*
X91288231Y-18248095D02*
X91364421Y-18248095D01*
X91364421Y-18248095D02*
X91440612Y-18210000D01*
X91440612Y-18210000D02*
X91478707Y-18171904D01*
X91478707Y-18171904D02*
X91516802Y-18095714D01*
X91516802Y-18095714D02*
X91554898Y-17943333D01*
X91554898Y-17943333D02*
X91554898Y-17752857D01*
X91554898Y-17752857D02*
X91516802Y-17600476D01*
X91516802Y-17600476D02*
X91478707Y-17524285D01*
X91478707Y-17524285D02*
X91440612Y-17486190D01*
X91440612Y-17486190D02*
X91364421Y-17448095D01*
X90602516Y-17448095D02*
X90526326Y-17448095D01*
X90526326Y-17448095D02*
X90450135Y-17486190D01*
X90450135Y-17486190D02*
X90412040Y-17524285D01*
X90412040Y-17524285D02*
X90373945Y-17600476D01*
X90373945Y-17600476D02*
X90335850Y-17752857D01*
X90335850Y-17752857D02*
X90335850Y-17943333D01*
X90335850Y-17943333D02*
X90373945Y-18095714D01*
X90373945Y-18095714D02*
X90412040Y-18171904D01*
X90412040Y-18171904D02*
X90450135Y-18210000D01*
X90450135Y-18210000D02*
X90526326Y-18248095D01*
X90526326Y-18248095D02*
X90602516Y-18248095D01*
X90602516Y-18248095D02*
X90678707Y-18210000D01*
X90678707Y-18210000D02*
X90716802Y-18171904D01*
X90716802Y-18171904D02*
X90754897Y-18095714D01*
X90754897Y-18095714D02*
X90792993Y-17943333D01*
X90792993Y-17943333D02*
X90792993Y-17752857D01*
X90792993Y-17752857D02*
X90754897Y-17600476D01*
X90754897Y-17600476D02*
X90716802Y-17524285D01*
X90716802Y-17524285D02*
X90678707Y-17486190D01*
X90678707Y-17486190D02*
X90602516Y-17448095D01*
X89840611Y-17448095D02*
X89764421Y-17448095D01*
X89764421Y-17448095D02*
X89688230Y-17486190D01*
X89688230Y-17486190D02*
X89650135Y-17524285D01*
X89650135Y-17524285D02*
X89612040Y-17600476D01*
X89612040Y-17600476D02*
X89573945Y-17752857D01*
X89573945Y-17752857D02*
X89573945Y-17943333D01*
X89573945Y-17943333D02*
X89612040Y-18095714D01*
X89612040Y-18095714D02*
X89650135Y-18171904D01*
X89650135Y-18171904D02*
X89688230Y-18210000D01*
X89688230Y-18210000D02*
X89764421Y-18248095D01*
X89764421Y-18248095D02*
X89840611Y-18248095D01*
X89840611Y-18248095D02*
X89916802Y-18210000D01*
X89916802Y-18210000D02*
X89954897Y-18171904D01*
X89954897Y-18171904D02*
X89992992Y-18095714D01*
X89992992Y-18095714D02*
X90031088Y-17943333D01*
X90031088Y-17943333D02*
X90031088Y-17752857D01*
X90031088Y-17752857D02*
X89992992Y-17600476D01*
X89992992Y-17600476D02*
X89954897Y-17524285D01*
X89954897Y-17524285D02*
X89916802Y-17486190D01*
X89916802Y-17486190D02*
X89840611Y-17448095D01*
X88812040Y-18248095D02*
X89269183Y-18248095D01*
X89040611Y-18248095D02*
X89040611Y-17448095D01*
X89040611Y-17448095D02*
X89116802Y-17562380D01*
X89116802Y-17562380D02*
X89192992Y-17638571D01*
X89192992Y-17638571D02*
X89269183Y-17676666D01*
X88469182Y-17943333D02*
X87859659Y-17943333D01*
X87478706Y-18248095D02*
X87478706Y-17448095D01*
X87478706Y-17448095D02*
X87173944Y-17448095D01*
X87173944Y-17448095D02*
X87097754Y-17486190D01*
X87097754Y-17486190D02*
X87059659Y-17524285D01*
X87059659Y-17524285D02*
X87021563Y-17600476D01*
X87021563Y-17600476D02*
X87021563Y-17714761D01*
X87021563Y-17714761D02*
X87059659Y-17790952D01*
X87059659Y-17790952D02*
X87097754Y-17829047D01*
X87097754Y-17829047D02*
X87173944Y-17867142D01*
X87173944Y-17867142D02*
X87478706Y-17867142D01*
X86526325Y-17448095D02*
X86450135Y-17448095D01*
X86450135Y-17448095D02*
X86373944Y-17486190D01*
X86373944Y-17486190D02*
X86335849Y-17524285D01*
X86335849Y-17524285D02*
X86297754Y-17600476D01*
X86297754Y-17600476D02*
X86259659Y-17752857D01*
X86259659Y-17752857D02*
X86259659Y-17943333D01*
X86259659Y-17943333D02*
X86297754Y-18095714D01*
X86297754Y-18095714D02*
X86335849Y-18171904D01*
X86335849Y-18171904D02*
X86373944Y-18210000D01*
X86373944Y-18210000D02*
X86450135Y-18248095D01*
X86450135Y-18248095D02*
X86526325Y-18248095D01*
X86526325Y-18248095D02*
X86602516Y-18210000D01*
X86602516Y-18210000D02*
X86640611Y-18171904D01*
X86640611Y-18171904D02*
X86678706Y-18095714D01*
X86678706Y-18095714D02*
X86716802Y-17943333D01*
X86716802Y-17943333D02*
X86716802Y-17752857D01*
X86716802Y-17752857D02*
X86678706Y-17600476D01*
X86678706Y-17600476D02*
X86640611Y-17524285D01*
X86640611Y-17524285D02*
X86602516Y-17486190D01*
X86602516Y-17486190D02*
X86526325Y-17448095D01*
X85497754Y-18248095D02*
X85954897Y-18248095D01*
X85726325Y-18248095D02*
X85726325Y-17448095D01*
X85726325Y-17448095D02*
X85802516Y-17562380D01*
X85802516Y-17562380D02*
X85878706Y-17638571D01*
X85878706Y-17638571D02*
X85954897Y-17676666D01*
D15*
X122774114Y-23767611D02*
X122774114Y-24196182D01*
X122774114Y-24196182D02*
X122802685Y-24281897D01*
X122802685Y-24281897D02*
X122859828Y-24339040D01*
X122859828Y-24339040D02*
X122945542Y-24367611D01*
X122945542Y-24367611D02*
X123002685Y-24367611D01*
X122488399Y-24367611D02*
X122488399Y-23767611D01*
X122488399Y-23767611D02*
X122259828Y-23767611D01*
X122259828Y-23767611D02*
X122202685Y-23796182D01*
X122202685Y-23796182D02*
X122174114Y-23824754D01*
X122174114Y-23824754D02*
X122145542Y-23881897D01*
X122145542Y-23881897D02*
X122145542Y-23967611D01*
X122145542Y-23967611D02*
X122174114Y-24024754D01*
X122174114Y-24024754D02*
X122202685Y-24053325D01*
X122202685Y-24053325D02*
X122259828Y-24081897D01*
X122259828Y-24081897D02*
X122488399Y-24081897D01*
X121574114Y-24367611D02*
X121916971Y-24367611D01*
X121745542Y-24367611D02*
X121745542Y-23767611D01*
X121745542Y-23767611D02*
X121802685Y-23853325D01*
X121802685Y-23853325D02*
X121859828Y-23910468D01*
X121859828Y-23910468D02*
X121916971Y-23939040D01*
X121345542Y-23824754D02*
X121316970Y-23796182D01*
X121316970Y-23796182D02*
X121259828Y-23767611D01*
X121259828Y-23767611D02*
X121116970Y-23767611D01*
X121116970Y-23767611D02*
X121059828Y-23796182D01*
X121059828Y-23796182D02*
X121031256Y-23824754D01*
X121031256Y-23824754D02*
X121002685Y-23881897D01*
X121002685Y-23881897D02*
X121002685Y-23939040D01*
X121002685Y-23939040D02*
X121031256Y-24024754D01*
X121031256Y-24024754D02*
X121374113Y-24367611D01*
X121374113Y-24367611D02*
X121002685Y-24367611D01*
X123493371Y-22970611D02*
X123836228Y-22970611D01*
X123664799Y-22970611D02*
X123664799Y-22370611D01*
X123664799Y-22370611D02*
X123721942Y-22456325D01*
X123721942Y-22456325D02*
X123779085Y-22513468D01*
X123779085Y-22513468D02*
X123836228Y-22542040D01*
X119014914Y-23767611D02*
X119014914Y-24196182D01*
X119014914Y-24196182D02*
X119043485Y-24281897D01*
X119043485Y-24281897D02*
X119100628Y-24339040D01*
X119100628Y-24339040D02*
X119186342Y-24367611D01*
X119186342Y-24367611D02*
X119243485Y-24367611D01*
X118729199Y-24367611D02*
X118729199Y-23767611D01*
X118729199Y-23767611D02*
X118500628Y-23767611D01*
X118500628Y-23767611D02*
X118443485Y-23796182D01*
X118443485Y-23796182D02*
X118414914Y-23824754D01*
X118414914Y-23824754D02*
X118386342Y-23881897D01*
X118386342Y-23881897D02*
X118386342Y-23967611D01*
X118386342Y-23967611D02*
X118414914Y-24024754D01*
X118414914Y-24024754D02*
X118443485Y-24053325D01*
X118443485Y-24053325D02*
X118500628Y-24081897D01*
X118500628Y-24081897D02*
X118729199Y-24081897D01*
X117814914Y-24367611D02*
X118157771Y-24367611D01*
X117986342Y-24367611D02*
X117986342Y-23767611D01*
X117986342Y-23767611D02*
X118043485Y-23853325D01*
X118043485Y-23853325D02*
X118100628Y-23910468D01*
X118100628Y-23910468D02*
X118157771Y-23939040D01*
X117614913Y-23767611D02*
X117243485Y-23767611D01*
X117243485Y-23767611D02*
X117443485Y-23996182D01*
X117443485Y-23996182D02*
X117357770Y-23996182D01*
X117357770Y-23996182D02*
X117300628Y-24024754D01*
X117300628Y-24024754D02*
X117272056Y-24053325D01*
X117272056Y-24053325D02*
X117243485Y-24110468D01*
X117243485Y-24110468D02*
X117243485Y-24253325D01*
X117243485Y-24253325D02*
X117272056Y-24310468D01*
X117272056Y-24310468D02*
X117300628Y-24339040D01*
X117300628Y-24339040D02*
X117357770Y-24367611D01*
X117357770Y-24367611D02*
X117529199Y-24367611D01*
X117529199Y-24367611D02*
X117586342Y-24339040D01*
X117586342Y-24339040D02*
X117614913Y-24310468D01*
X117473571Y-22970611D02*
X117816428Y-22970611D01*
X117644999Y-22970611D02*
X117644999Y-22370611D01*
X117644999Y-22370611D02*
X117702142Y-22456325D01*
X117702142Y-22456325D02*
X117759285Y-22513468D01*
X117759285Y-22513468D02*
X117816428Y-22542040D01*
D16*
X127371514Y-23818931D02*
X127371514Y-24247502D01*
X127371514Y-24247502D02*
X127400085Y-24333217D01*
X127400085Y-24333217D02*
X127457228Y-24390360D01*
X127457228Y-24390360D02*
X127542942Y-24418931D01*
X127542942Y-24418931D02*
X127600085Y-24418931D01*
X127085799Y-24418931D02*
X127085799Y-23818931D01*
X127085799Y-23818931D02*
X126857228Y-23818931D01*
X126857228Y-23818931D02*
X126800085Y-23847502D01*
X126800085Y-23847502D02*
X126771514Y-23876074D01*
X126771514Y-23876074D02*
X126742942Y-23933217D01*
X126742942Y-23933217D02*
X126742942Y-24018931D01*
X126742942Y-24018931D02*
X126771514Y-24076074D01*
X126771514Y-24076074D02*
X126800085Y-24104645D01*
X126800085Y-24104645D02*
X126857228Y-24133217D01*
X126857228Y-24133217D02*
X127085799Y-24133217D01*
X126171514Y-24418931D02*
X126514371Y-24418931D01*
X126342942Y-24418931D02*
X126342942Y-23818931D01*
X126342942Y-23818931D02*
X126400085Y-23904645D01*
X126400085Y-23904645D02*
X126457228Y-23961788D01*
X126457228Y-23961788D02*
X126514371Y-23990360D01*
X125800085Y-23818931D02*
X125742942Y-23818931D01*
X125742942Y-23818931D02*
X125685799Y-23847502D01*
X125685799Y-23847502D02*
X125657228Y-23876074D01*
X125657228Y-23876074D02*
X125628656Y-23933217D01*
X125628656Y-23933217D02*
X125600085Y-24047502D01*
X125600085Y-24047502D02*
X125600085Y-24190360D01*
X125600085Y-24190360D02*
X125628656Y-24304645D01*
X125628656Y-24304645D02*
X125657228Y-24361788D01*
X125657228Y-24361788D02*
X125685799Y-24390360D01*
X125685799Y-24390360D02*
X125742942Y-24418931D01*
X125742942Y-24418931D02*
X125800085Y-24418931D01*
X125800085Y-24418931D02*
X125857228Y-24390360D01*
X125857228Y-24390360D02*
X125885799Y-24361788D01*
X125885799Y-24361788D02*
X125914370Y-24304645D01*
X125914370Y-24304645D02*
X125942942Y-24190360D01*
X125942942Y-24190360D02*
X125942942Y-24047502D01*
X125942942Y-24047502D02*
X125914370Y-23933217D01*
X125914370Y-23933217D02*
X125885799Y-23876074D01*
X125885799Y-23876074D02*
X125857228Y-23847502D01*
X125857228Y-23847502D02*
X125800085Y-23818931D01*
D15*
X127912971Y-20075011D02*
X128255828Y-20075011D01*
X128084399Y-20075011D02*
X128084399Y-19475011D01*
X128084399Y-19475011D02*
X128141542Y-19560725D01*
X128141542Y-19560725D02*
X128198685Y-19617868D01*
X128198685Y-19617868D02*
X128255828Y-19646440D01*
D16*
X120963000Y-19232000D02*
X122963000Y-19232000D01*
X120963000Y-23332000D02*
X120963000Y-19232000D01*
X122963000Y-19232000D02*
X122963000Y-23332000D01*
X122963000Y-23332000D02*
X120963000Y-23332000D01*
X118372200Y-19227400D02*
X120372200Y-19227400D01*
X118372200Y-23327400D02*
X118372200Y-19227400D01*
X120372200Y-19227400D02*
X120372200Y-23327400D01*
X120372200Y-23327400D02*
X118372200Y-23327400D01*
X135332600Y-40276600D02*
X135332600Y-41606600D01*
X135332600Y-41606600D02*
X134002600Y-41606600D01*
X125509600Y-19227400D02*
X127509600Y-19227400D01*
X125509600Y-23327400D02*
X125509600Y-19227400D01*
X127509600Y-19227400D02*
X127509600Y-23327400D01*
X127509600Y-23327400D02*
X125509600Y-23327400D01*
D17*
G36*
X100645122Y-27281343D02*
G01*
X100645122Y-28938127D01*
X100542702Y-28938127D01*
X100440283Y-28938127D01*
X100440283Y-27281343D01*
X100440283Y-25624560D01*
X100542702Y-25624560D01*
X100645122Y-25624560D01*
X100645122Y-27281343D01*
G37*
G36*
X101199391Y-27823563D02*
G01*
X101199391Y-28926078D01*
X101096972Y-28926078D01*
X100994553Y-28926078D01*
X100994553Y-27823563D01*
X100994553Y-26721049D01*
X101096972Y-26721049D01*
X101199391Y-26721049D01*
X101199391Y-27823563D01*
G37*
G36*
X103295976Y-30450319D02*
G01*
X103295976Y-30480442D01*
X102946545Y-30480442D01*
X102597114Y-30480442D01*
X102597114Y-30450319D01*
X102597114Y-30420195D01*
X102946545Y-30420195D01*
X103295976Y-30420195D01*
X103295976Y-30450319D01*
G37*
G36*
X103187532Y-27823563D02*
G01*
X103187532Y-28926078D01*
X103085112Y-28926078D01*
X102982693Y-28926078D01*
X102982693Y-27823563D01*
X102982693Y-26721049D01*
X103085112Y-26721049D01*
X103187532Y-26721049D01*
X103187532Y-27823563D01*
G37*
G36*
X110344837Y-30872045D02*
G01*
X110344837Y-31311846D01*
X110314714Y-31311846D01*
X110284590Y-31311846D01*
X110284590Y-30872045D01*
X110284590Y-30432245D01*
X110314714Y-30432245D01*
X110344837Y-30432245D01*
X110344837Y-30872045D01*
G37*
G36*
X110356886Y-27269294D02*
G01*
X110356886Y-28926078D01*
X109471260Y-28926078D01*
X108585634Y-28926078D01*
X108585634Y-28811609D01*
X108585634Y-28697140D01*
X109356792Y-28697140D01*
X110127949Y-28697140D01*
X110127949Y-27154825D01*
X110127949Y-25612510D01*
X110242418Y-25612510D01*
X110356886Y-25612510D01*
X110356886Y-27269294D01*
G37*
G36*
X97731497Y-31068812D02*
G01*
X97735207Y-31404146D01*
X97768966Y-31448379D01*
X97796600Y-31479562D01*
X97847845Y-31514880D01*
X97913351Y-31535067D01*
X97937843Y-31541075D01*
X97954165Y-31552713D01*
X97958120Y-31573834D01*
X97958000Y-31581439D01*
X97954172Y-31596294D01*
X97939949Y-31600604D01*
X97908658Y-31597569D01*
X97899933Y-31596264D01*
X97824499Y-31573021D01*
X97759925Y-31531507D01*
X97711216Y-31474833D01*
X97674961Y-31416226D01*
X97671260Y-31074852D01*
X97667559Y-30733478D01*
X97697673Y-30733478D01*
X97727786Y-30733478D01*
X97731497Y-31068812D01*
G37*
G36*
X103295976Y-31076884D02*
G01*
X103295966Y-31110418D01*
X103295747Y-31182725D01*
X103294991Y-31235281D01*
X103293377Y-31271230D01*
X103290580Y-31293716D01*
X103286280Y-31305885D01*
X103280153Y-31310880D01*
X103271877Y-31311846D01*
X103264204Y-31311119D01*
X103257535Y-31306496D01*
X103252967Y-31294602D01*
X103250103Y-31272072D01*
X103248548Y-31235539D01*
X103247905Y-31181640D01*
X103247778Y-31107007D01*
X103247778Y-30902169D01*
X102922446Y-30902169D01*
X102597114Y-30902169D01*
X102597114Y-30872045D01*
X102597114Y-30841922D01*
X102946545Y-30841922D01*
X103295976Y-30841922D01*
X103295976Y-31076884D01*
G37*
G36*
X98804011Y-30736051D02*
G01*
X98821002Y-30738422D01*
X98896433Y-30762035D01*
X98957478Y-30804439D01*
X99002444Y-30864109D01*
X99029643Y-30939520D01*
X99034653Y-30975165D01*
X99038763Y-31027849D01*
X99041540Y-31090429D01*
X99042560Y-31155798D01*
X99042560Y-31311846D01*
X99013518Y-31311846D01*
X98984476Y-31311846D01*
X98980263Y-31128094D01*
X98980000Y-31116949D01*
X98977645Y-31043934D01*
X98974340Y-30990032D01*
X98969573Y-30950835D01*
X98962830Y-30921934D01*
X98953597Y-30898919D01*
X98926825Y-30858066D01*
X98876502Y-30817683D01*
X98810965Y-30795880D01*
X98782149Y-30789423D01*
X98762696Y-30777982D01*
X98755329Y-30758614D01*
X98754241Y-30749318D01*
X98756929Y-30736841D01*
X98771529Y-30733341D01*
X98804011Y-30736051D01*
G37*
G36*
X103826994Y-30736282D02*
G01*
X103845354Y-30738848D01*
X103913363Y-30762794D01*
X103972881Y-30806488D01*
X104018936Y-30866556D01*
X104024142Y-30876042D01*
X104034093Y-30897080D01*
X104041173Y-30919698D01*
X104045997Y-30948400D01*
X104049183Y-30987689D01*
X104051348Y-31042070D01*
X104053108Y-31116044D01*
X104057157Y-31311846D01*
X104025997Y-31311846D01*
X103994837Y-31311846D01*
X103994573Y-31134118D01*
X103993140Y-31048678D01*
X103988271Y-30979530D01*
X103978993Y-30927112D01*
X103964325Y-30887727D01*
X103943290Y-30857680D01*
X103914908Y-30833274D01*
X103899570Y-30822952D01*
X103874763Y-30809790D01*
X103844260Y-30799496D01*
X103799035Y-30788590D01*
X103774734Y-30777920D01*
X103765900Y-30755814D01*
X103766487Y-30746212D01*
X103772791Y-30736407D01*
X103790959Y-30733737D01*
X103826994Y-30736282D01*
G37*
G36*
X106994917Y-30736181D02*
G01*
X107016677Y-30739254D01*
X107085974Y-30763934D01*
X107144003Y-30808895D01*
X107187911Y-30872125D01*
X107190144Y-30876623D01*
X107201123Y-30901085D01*
X107208969Y-30925755D01*
X107214337Y-30955409D01*
X107217880Y-30994828D01*
X107220251Y-31048788D01*
X107222105Y-31122069D01*
X107226176Y-31311846D01*
X107196053Y-31311846D01*
X107165930Y-31311846D01*
X107161730Y-31122069D01*
X107161525Y-31113034D01*
X107159218Y-31037861D01*
X107156025Y-30982375D01*
X107151509Y-30942581D01*
X107145231Y-30914481D01*
X107136754Y-30894082D01*
X107109609Y-30856856D01*
X107057273Y-30817582D01*
X106992464Y-30795880D01*
X106963721Y-30789444D01*
X106944217Y-30778009D01*
X106936835Y-30758666D01*
X106935657Y-30744717D01*
X106940857Y-30735496D01*
X106958733Y-30733378D01*
X106994917Y-30736181D01*
G37*
G36*
X104868453Y-30436406D02*
G01*
X104945346Y-30456862D01*
X105010512Y-30495527D01*
X105059526Y-30550211D01*
X105090076Y-30619009D01*
X105091690Y-30626251D01*
X105096239Y-30662296D01*
X105099921Y-30714664D01*
X105102392Y-30777497D01*
X105103309Y-30844934D01*
X105103376Y-31022662D01*
X104958784Y-31022662D01*
X104814192Y-31022662D01*
X104814192Y-30992539D01*
X104814227Y-30987113D01*
X104816073Y-30975090D01*
X104824033Y-30967784D01*
X104842601Y-30964019D01*
X104876274Y-30962620D01*
X104929550Y-30962415D01*
X105044907Y-30962415D01*
X105041006Y-30790712D01*
X105039250Y-30724628D01*
X105036914Y-30674700D01*
X105033358Y-30639768D01*
X105027862Y-30615183D01*
X105019707Y-30596292D01*
X105008173Y-30578445D01*
X104994043Y-30561763D01*
X104949861Y-30527340D01*
X104897510Y-30502502D01*
X104847328Y-30492756D01*
X104835605Y-30492189D01*
X104818303Y-30484101D01*
X104814192Y-30460730D01*
X104814533Y-30448152D01*
X104819410Y-30435682D01*
X104835242Y-30432727D01*
X104868453Y-30436406D01*
G37*
G36*
X96319410Y-30738910D02*
G01*
X96319331Y-30775891D01*
X96318378Y-30869963D01*
X96316441Y-30953656D01*
X96313647Y-31023542D01*
X96310120Y-31076192D01*
X96305984Y-31108177D01*
X96290815Y-31153785D01*
X96252893Y-31214177D01*
X96200863Y-31262572D01*
X96140043Y-31293046D01*
X96133450Y-31295056D01*
X96083456Y-31308062D01*
X96051736Y-31310552D01*
X96035066Y-31302226D01*
X96030226Y-31282782D01*
X96032958Y-31265215D01*
X96046751Y-31253260D01*
X96078143Y-31245622D01*
X96133324Y-31228544D01*
X96189173Y-31190640D01*
X96229040Y-31136972D01*
X96234307Y-31125701D01*
X96240746Y-31107544D01*
X96245682Y-31084948D01*
X96249378Y-31054638D01*
X96252100Y-31013336D01*
X96254114Y-30957765D01*
X96255685Y-30884650D01*
X96257078Y-30790712D01*
X96261018Y-30492491D01*
X96145622Y-30492491D01*
X96124782Y-30492482D01*
X96078753Y-30491999D01*
X96050779Y-30489920D01*
X96036363Y-30485071D01*
X96031011Y-30476278D01*
X96030226Y-30462368D01*
X96030226Y-30432245D01*
X96174818Y-30432245D01*
X96319410Y-30432245D01*
X96319410Y-30738910D01*
G37*
G36*
X96665049Y-30728390D02*
G01*
X96670785Y-30729484D01*
X96749294Y-30756362D01*
X96814105Y-30801062D01*
X96863270Y-30860499D01*
X96894843Y-30931592D01*
X96906878Y-31011259D01*
X96897428Y-31096416D01*
X96895843Y-31102797D01*
X96881351Y-31143996D01*
X96858147Y-31180564D01*
X96820641Y-31221618D01*
X96785001Y-31253389D01*
X96747191Y-31280703D01*
X96717038Y-31296093D01*
X96681706Y-31306043D01*
X96645889Y-31310705D01*
X96626482Y-31303250D01*
X96620644Y-31283299D01*
X96622371Y-31268791D01*
X96634670Y-31255341D01*
X96664477Y-31247639D01*
X96676131Y-31245335D01*
X96736553Y-31219913D01*
X96789478Y-31175947D01*
X96830456Y-31118037D01*
X96855032Y-31050781D01*
X96857149Y-31038040D01*
X96853511Y-30978282D01*
X96830730Y-30919547D01*
X96792561Y-30866191D01*
X96742758Y-30822567D01*
X96685076Y-30793032D01*
X96623269Y-30781940D01*
X96616115Y-30782111D01*
X96565871Y-30791581D01*
X96513903Y-30812019D01*
X96473105Y-30838564D01*
X96462461Y-30847566D01*
X96447848Y-30851454D01*
X96430492Y-30837192D01*
X96423664Y-30829819D01*
X96418002Y-30817292D01*
X96426283Y-30803339D01*
X96450982Y-30781194D01*
X96480254Y-30761553D01*
X96539026Y-30738079D01*
X96604032Y-30726184D01*
X96665049Y-30728390D01*
G37*
G36*
X107666116Y-30734937D02*
G01*
X107725824Y-30754990D01*
X107754307Y-30772510D01*
X107805170Y-30817169D01*
X107846980Y-30870526D01*
X107872789Y-30924562D01*
X107882859Y-30962223D01*
X107885861Y-30991780D01*
X107877865Y-31006573D01*
X107858189Y-31010613D01*
X107841117Y-31007925D01*
X107829314Y-30994141D01*
X107821949Y-30962730D01*
X107804429Y-30913017D01*
X107767452Y-30862913D01*
X107717302Y-30821277D01*
X107659662Y-30792742D01*
X107600214Y-30781940D01*
X107545516Y-30788814D01*
X107484500Y-30815381D01*
X107433661Y-30858152D01*
X107395642Y-30913092D01*
X107373086Y-30976169D01*
X107368635Y-31043348D01*
X107384930Y-31110595D01*
X107398019Y-31134877D01*
X107437476Y-31180271D01*
X107488717Y-31217813D01*
X107543677Y-31240885D01*
X107545217Y-31241275D01*
X107578334Y-31251843D01*
X107593781Y-31264388D01*
X107597589Y-31283699D01*
X107597562Y-31287515D01*
X107594575Y-31304045D01*
X107581803Y-31308725D01*
X107552404Y-31304738D01*
X107486237Y-31285174D01*
X107420779Y-31246624D01*
X107370053Y-31194771D01*
X107334579Y-31133126D01*
X107314875Y-31065202D01*
X107311460Y-30994510D01*
X107324853Y-30924562D01*
X107355573Y-30858870D01*
X107404139Y-30800946D01*
X107471071Y-30754302D01*
X107527978Y-30734993D01*
X107596849Y-30728263D01*
X107666116Y-30734937D01*
G37*
G36*
X104488021Y-30732638D02*
G01*
X104562874Y-30758605D01*
X104568480Y-30761572D01*
X104607788Y-30789309D01*
X104643838Y-30825517D01*
X104674771Y-30866445D01*
X104698730Y-30908343D01*
X104713858Y-30947460D01*
X104718296Y-30980044D01*
X104710187Y-31002345D01*
X104687674Y-31010613D01*
X104677161Y-31010102D01*
X104661369Y-31001581D01*
X104657551Y-30976877D01*
X104652555Y-30945922D01*
X104628626Y-30898541D01*
X104589501Y-30854021D01*
X104540274Y-30816766D01*
X104486038Y-30791182D01*
X104431885Y-30781675D01*
X104412820Y-30782540D01*
X104346175Y-30799629D01*
X104287929Y-30835753D01*
X104241718Y-30887162D01*
X104211176Y-30950108D01*
X104199941Y-31020841D01*
X104201003Y-31042974D01*
X104218870Y-31109666D01*
X104256095Y-31167803D01*
X104309199Y-31213003D01*
X104374702Y-31240885D01*
X104376242Y-31241275D01*
X104409359Y-31251843D01*
X104424805Y-31264388D01*
X104428613Y-31283699D01*
X104428587Y-31287502D01*
X104425601Y-31304041D01*
X104412829Y-31308730D01*
X104383428Y-31304757D01*
X104323743Y-31287831D01*
X104253747Y-31248043D01*
X104198851Y-31191112D01*
X104161133Y-31119368D01*
X104142677Y-31035141D01*
X104141811Y-31022492D01*
X104149025Y-30945821D01*
X104175844Y-30877269D01*
X104218954Y-30819017D01*
X104275041Y-30773247D01*
X104340791Y-30742140D01*
X104412889Y-30727877D01*
X104488021Y-30732638D01*
G37*
G36*
X98402154Y-30732321D02*
G01*
X98471692Y-30759187D01*
X98533362Y-30802692D01*
X98582392Y-30859767D01*
X98614011Y-30927339D01*
X98621825Y-30953953D01*
X98629981Y-30986161D01*
X98630285Y-31003043D01*
X98622217Y-31009545D01*
X98605258Y-31010613D01*
X98605039Y-31010612D01*
X98586764Y-31006249D01*
X98574081Y-30989463D01*
X98562631Y-30954519D01*
X98553956Y-30929015D01*
X98517730Y-30870122D01*
X98465266Y-30823537D01*
X98401409Y-30792872D01*
X98331003Y-30781742D01*
X98313791Y-30784257D01*
X98277560Y-30795588D01*
X98237446Y-30812963D01*
X98224556Y-30819880D01*
X98168658Y-30864765D01*
X98130460Y-30922367D01*
X98111392Y-30988248D01*
X98112882Y-31057965D01*
X98136360Y-31127079D01*
X98169136Y-31175152D01*
X98219591Y-31215053D01*
X98287735Y-31241630D01*
X98299437Y-31245109D01*
X98333100Y-31261916D01*
X98345625Y-31282171D01*
X98335533Y-31303946D01*
X98329555Y-31307159D01*
X98308422Y-31307074D01*
X98286645Y-31301663D01*
X98254491Y-31294198D01*
X98231415Y-31287187D01*
X98174806Y-31255835D01*
X98123910Y-31209150D01*
X98085839Y-31153086D01*
X98083705Y-31148724D01*
X98057948Y-31069987D01*
X98054215Y-30991722D01*
X98070740Y-30917369D01*
X98105758Y-30850371D01*
X98157500Y-30794168D01*
X98224201Y-30752202D01*
X98304094Y-30727913D01*
X98329522Y-30725166D01*
X98402154Y-30732321D01*
G37*
G36*
X109850814Y-30459919D02*
G01*
X109850814Y-30490374D01*
X109661037Y-30494445D01*
X109611796Y-30495558D01*
X109552882Y-30497425D01*
X109510194Y-30500141D01*
X109478960Y-30504457D01*
X109454412Y-30511121D01*
X109431778Y-30520886D01*
X109406288Y-30534499D01*
X109372221Y-30555660D01*
X109320705Y-30603149D01*
X109290749Y-30658905D01*
X109281053Y-30724905D01*
X109285918Y-30778056D01*
X109308805Y-30839159D01*
X109351958Y-30890222D01*
X109417038Y-30933797D01*
X109426801Y-30938521D01*
X109449277Y-30946118D01*
X109479165Y-30951633D01*
X109520636Y-30955532D01*
X109577861Y-30958279D01*
X109655013Y-30960342D01*
X109850814Y-30964489D01*
X109850814Y-31138167D01*
X109850814Y-31311846D01*
X109820691Y-31311846D01*
X109790568Y-31311846D01*
X109790568Y-31168384D01*
X109790568Y-31024922D01*
X109618865Y-31020779D01*
X109578319Y-31019694D01*
X109518553Y-31017239D01*
X109474961Y-31013604D01*
X109442383Y-31008058D01*
X109415662Y-30999871D01*
X109389640Y-30988313D01*
X109329854Y-30952041D01*
X109270565Y-30895773D01*
X109230828Y-30831576D01*
X109210584Y-30762675D01*
X109209771Y-30692299D01*
X109228329Y-30623675D01*
X109266195Y-30560029D01*
X109323310Y-30504589D01*
X109399613Y-30460582D01*
X109422716Y-30452717D01*
X109456511Y-30446097D01*
X109502941Y-30441154D01*
X109565827Y-30437494D01*
X109648988Y-30434720D01*
X109850814Y-30429464D01*
X109850814Y-30459919D01*
G37*
G36*
X102512769Y-30459715D02*
G01*
X102512769Y-30489966D01*
X102322992Y-30494710D01*
X102272729Y-30496244D01*
X102197753Y-30500535D01*
X102140139Y-30507891D01*
X102095557Y-30519633D01*
X102059676Y-30537087D01*
X102028165Y-30561575D01*
X101996693Y-30594422D01*
X101980276Y-30614431D01*
X101956887Y-30654918D01*
X101947410Y-30699634D01*
X101949187Y-30757722D01*
X101949853Y-30763742D01*
X101969734Y-30829575D01*
X102010630Y-30885534D01*
X102070654Y-30928960D01*
X102070687Y-30928977D01*
X102092412Y-30939156D01*
X102115913Y-30946590D01*
X102145654Y-30951847D01*
X102186101Y-30955491D01*
X102241717Y-30958090D01*
X102316967Y-30960210D01*
X102512769Y-30964892D01*
X102512769Y-31138369D01*
X102512769Y-31311846D01*
X102482646Y-31311846D01*
X102452522Y-31311846D01*
X102452522Y-31168594D01*
X102452522Y-31025342D01*
X102280819Y-31019853D01*
X102264277Y-31019297D01*
X102186066Y-31015380D01*
X102126086Y-31008975D01*
X102079385Y-30998649D01*
X102041007Y-30982971D01*
X102006000Y-30960508D01*
X101969408Y-30929828D01*
X101959351Y-30920472D01*
X101910435Y-30861939D01*
X101882828Y-30798717D01*
X101874154Y-30725713D01*
X101874177Y-30721802D01*
X101885858Y-30641830D01*
X101918264Y-30572762D01*
X101970434Y-30516681D01*
X101998114Y-30495713D01*
X102031495Y-30474649D01*
X102066345Y-30459397D01*
X102107190Y-30448867D01*
X102158554Y-30441971D01*
X102224963Y-30437618D01*
X102310942Y-30434720D01*
X102512769Y-30429464D01*
X102512769Y-30459715D01*
G37*
G36*
X99495535Y-30738606D02*
G01*
X99566453Y-30769538D01*
X99628616Y-30819780D01*
X99639336Y-30831238D01*
X99660450Y-30855112D01*
X99676991Y-30877949D01*
X99689560Y-30902891D01*
X99698756Y-30933080D01*
X99705181Y-30971657D01*
X99709435Y-31021764D01*
X99712118Y-31086544D01*
X99713830Y-31169137D01*
X99715173Y-31272686D01*
X99719047Y-31601030D01*
X99689082Y-31601030D01*
X99659117Y-31601030D01*
X99655015Y-31278710D01*
X99654564Y-31244704D01*
X99653045Y-31151957D01*
X99651235Y-31079500D01*
X99648940Y-31024437D01*
X99645966Y-30983874D01*
X99642121Y-30954918D01*
X99637210Y-30934672D01*
X99631041Y-30920243D01*
X99603927Y-30880639D01*
X99552324Y-30834239D01*
X99491633Y-30804048D01*
X99426414Y-30790786D01*
X99361227Y-30795176D01*
X99300632Y-30817939D01*
X99249190Y-30859797D01*
X99221220Y-30900235D01*
X99196554Y-30959119D01*
X99187287Y-31016637D01*
X99189379Y-31045165D01*
X99209406Y-31110255D01*
X99247259Y-31168079D01*
X99298763Y-31213223D01*
X99359741Y-31240272D01*
X99367420Y-31242248D01*
X99398452Y-31252666D01*
X99412678Y-31265181D01*
X99416090Y-31284494D01*
X99416064Y-31288459D01*
X99413170Y-31305486D01*
X99400599Y-31310271D01*
X99371465Y-31306156D01*
X99351838Y-31301819D01*
X99277832Y-31271945D01*
X99217474Y-31225817D01*
X99171972Y-31167114D01*
X99142535Y-31099515D01*
X99130372Y-31026696D01*
X99136691Y-30952337D01*
X99162702Y-30880115D01*
X99209614Y-30813707D01*
X99213822Y-30809274D01*
X99275006Y-30762318D01*
X99345336Y-30734931D01*
X99420338Y-30727049D01*
X99495535Y-30738606D01*
G37*
G36*
X106606618Y-30734282D02*
G01*
X106622842Y-30739726D01*
X106679541Y-30771376D01*
X106732671Y-30818003D01*
X106775584Y-30872951D01*
X106801632Y-30929562D01*
X106807669Y-30955619D01*
X106811656Y-31036289D01*
X106794907Y-31113609D01*
X106759363Y-31183339D01*
X106706969Y-31241237D01*
X106639666Y-31283062D01*
X106604639Y-31293862D01*
X106563520Y-31299325D01*
X106541838Y-31298510D01*
X106528108Y-31291379D01*
X106527372Y-31273132D01*
X106537601Y-31252250D01*
X106567370Y-31239000D01*
X106613318Y-31225467D01*
X106675672Y-31189376D01*
X106720665Y-31137905D01*
X106746592Y-31073288D01*
X106751744Y-30997758D01*
X106747639Y-30966849D01*
X106723753Y-30899625D01*
X106683092Y-30845508D01*
X106629290Y-30806660D01*
X106565981Y-30785247D01*
X106496800Y-30783433D01*
X106425379Y-30803382D01*
X106410237Y-30811079D01*
X106368453Y-30841785D01*
X106331938Y-30880846D01*
X106306077Y-30921804D01*
X106296260Y-30958199D01*
X106296283Y-30961672D01*
X106298041Y-30973590D01*
X106305854Y-30980918D01*
X106324232Y-30984771D01*
X106357687Y-30986264D01*
X106410729Y-30986514D01*
X106461780Y-30986835D01*
X106496230Y-30988465D01*
X106515303Y-30992343D01*
X106523469Y-30999412D01*
X106525198Y-31010613D01*
X106524625Y-31017993D01*
X106519871Y-31025759D01*
X106506912Y-31030658D01*
X106481774Y-31033347D01*
X106440486Y-31034479D01*
X106379073Y-31034711D01*
X106232948Y-31034711D01*
X106238730Y-30974531D01*
X106245649Y-30934476D01*
X106274416Y-30864404D01*
X106320492Y-30805912D01*
X106380312Y-30761327D01*
X106450315Y-30732977D01*
X106526938Y-30723186D01*
X106606618Y-30734282D01*
G37*
G36*
X108380931Y-30438783D02*
G01*
X108423004Y-30441444D01*
X108456264Y-30447809D01*
X108488612Y-30459433D01*
X108527951Y-30477872D01*
X108572136Y-30502748D01*
X108648957Y-30565351D01*
X108707995Y-30642333D01*
X108747922Y-30731141D01*
X108767409Y-30829221D01*
X108765129Y-30934016D01*
X108757324Y-30976263D01*
X108724260Y-31065252D01*
X108672014Y-31145487D01*
X108603771Y-31213479D01*
X108522722Y-31265735D01*
X108432054Y-31298764D01*
X108428812Y-31299525D01*
X108380819Y-31309066D01*
X108351408Y-31309958D01*
X108336645Y-31301593D01*
X108332598Y-31283361D01*
X108332729Y-31278232D01*
X108337738Y-31262500D01*
X108354532Y-31253436D01*
X108389253Y-31247110D01*
X108471210Y-31225793D01*
X108549700Y-31183650D01*
X108615789Y-31124712D01*
X108666625Y-31052234D01*
X108699360Y-30969466D01*
X108711144Y-30879663D01*
X108711128Y-30872850D01*
X108700103Y-30775890D01*
X108668436Y-30690589D01*
X108615516Y-30615262D01*
X108594242Y-30593401D01*
X108518951Y-30537969D01*
X108432960Y-30503354D01*
X108339478Y-30491003D01*
X108278299Y-30493620D01*
X108202009Y-30509877D01*
X108133985Y-30543437D01*
X108066918Y-30597144D01*
X108053576Y-30609423D01*
X108031861Y-30626040D01*
X108016584Y-30628731D01*
X108000647Y-30619936D01*
X107990250Y-30611585D01*
X107985506Y-30600998D01*
X107994084Y-30586085D01*
X108017827Y-30560472D01*
X108044104Y-30537175D01*
X108086999Y-30505937D01*
X108132295Y-30478296D01*
X108134771Y-30476955D01*
X108169825Y-30458926D01*
X108199077Y-30447581D01*
X108230001Y-30441382D01*
X108270070Y-30438791D01*
X108326759Y-30438269D01*
X108380931Y-30438783D01*
G37*
G36*
X101409873Y-30435673D02*
G01*
X101468242Y-30448247D01*
X101541018Y-30478054D01*
X101609607Y-30519600D01*
X101664895Y-30568150D01*
X101691489Y-30600161D01*
X101736721Y-30675500D01*
X101764135Y-30760447D01*
X101775626Y-30859996D01*
X101774745Y-30933363D01*
X101760593Y-31017662D01*
X101730146Y-31090815D01*
X101681818Y-31157855D01*
X101639142Y-31197605D01*
X101576872Y-31240613D01*
X101508936Y-31276136D01*
X101444984Y-31298444D01*
X101427677Y-31301113D01*
X101386149Y-31304592D01*
X101329285Y-31307503D01*
X101262218Y-31309599D01*
X101190082Y-31310636D01*
X100981960Y-31311846D01*
X100985244Y-31091946D01*
X100985663Y-31064147D01*
X100986894Y-30993615D01*
X100988392Y-30942786D01*
X100990607Y-30908345D01*
X100993989Y-30886980D01*
X100998988Y-30875375D01*
X101006055Y-30870218D01*
X101015639Y-30868195D01*
X101042750Y-30864345D01*
X101042750Y-31057972D01*
X101042750Y-31251599D01*
X101229063Y-31251599D01*
X101263058Y-31251527D01*
X101330393Y-31250594D01*
X101380738Y-31248200D01*
X101419115Y-31243859D01*
X101450543Y-31237089D01*
X101480042Y-31227404D01*
X101555596Y-31188636D01*
X101624025Y-31129528D01*
X101676132Y-31056010D01*
X101709508Y-30971547D01*
X101721745Y-30879604D01*
X101721526Y-30851344D01*
X101717213Y-30807276D01*
X101705424Y-30766645D01*
X101683352Y-30717615D01*
X101675638Y-30702682D01*
X101622401Y-30625566D01*
X101555857Y-30563533D01*
X101479855Y-30519567D01*
X101398244Y-30496653D01*
X101389103Y-30495346D01*
X101359815Y-30488806D01*
X101346886Y-30478168D01*
X101343983Y-30459044D01*
X101345141Y-30442541D01*
X101352586Y-30433987D01*
X101372202Y-30432393D01*
X101409873Y-30435673D01*
G37*
G36*
X97333225Y-30726271D02*
G01*
X97409963Y-30749760D01*
X97439611Y-30765557D01*
X97500684Y-30814636D01*
X97544616Y-30875123D01*
X97571206Y-30943192D01*
X97580252Y-31015016D01*
X97571552Y-31086765D01*
X97544906Y-31154614D01*
X97500113Y-31214735D01*
X97436971Y-31263301D01*
X97407990Y-31277996D01*
X97366653Y-31293587D01*
X97334567Y-31299684D01*
X97314096Y-31298673D01*
X97298875Y-31290579D01*
X97295406Y-31269673D01*
X97295924Y-31259098D01*
X97304466Y-31243354D01*
X97329195Y-31239550D01*
X97352543Y-31237022D01*
X97402618Y-31216441D01*
X97449250Y-31179294D01*
X97488026Y-31130582D01*
X97514528Y-31075307D01*
X97524344Y-31018471D01*
X97521838Y-30983545D01*
X97502125Y-30918425D01*
X97465996Y-30864272D01*
X97417284Y-30822625D01*
X97359819Y-30795022D01*
X97297435Y-30783001D01*
X97233964Y-30788100D01*
X97173237Y-30811857D01*
X97119088Y-30855811D01*
X97099815Y-30880549D01*
X97077790Y-30916032D01*
X97061061Y-30950054D01*
X97054420Y-30973866D01*
X97055711Y-30976138D01*
X97074846Y-30981758D01*
X97115268Y-30985289D01*
X97174913Y-30986514D01*
X97181366Y-30986516D01*
X97234052Y-30986931D01*
X97267437Y-30988676D01*
X97285884Y-30992623D01*
X97293753Y-30999644D01*
X97295406Y-31010613D01*
X97294640Y-31018785D01*
X97289377Y-31026189D01*
X97275675Y-31030857D01*
X97249619Y-31033416D01*
X97207296Y-31034492D01*
X97144790Y-31034711D01*
X97100304Y-31034735D01*
X97048296Y-31033793D01*
X97015319Y-31029545D01*
X96998281Y-31019589D01*
X96994093Y-31001525D01*
X96999663Y-30972952D01*
X97011901Y-30931467D01*
X97021784Y-30903444D01*
X97061620Y-30834578D01*
X97116528Y-30780673D01*
X97182662Y-30743483D01*
X97256176Y-30724764D01*
X97333225Y-30726271D01*
G37*
G36*
X102633191Y-26766111D02*
G01*
X102633182Y-26854875D01*
X102633111Y-27050361D01*
X102632918Y-27223953D01*
X102632540Y-27377206D01*
X102631914Y-27511673D01*
X102630975Y-27628908D01*
X102629662Y-27730466D01*
X102627909Y-27817901D01*
X102625654Y-27892766D01*
X102622833Y-27956615D01*
X102619383Y-28011003D01*
X102615240Y-28057484D01*
X102610341Y-28097611D01*
X102604622Y-28132939D01*
X102598020Y-28165022D01*
X102590471Y-28195414D01*
X102581911Y-28225668D01*
X102572279Y-28257339D01*
X102569724Y-28265450D01*
X102523071Y-28383156D01*
X102461985Y-28493616D01*
X102389953Y-28591322D01*
X102310462Y-28670766D01*
X102279773Y-28695623D01*
X102159597Y-28778238D01*
X102033938Y-28840568D01*
X101898162Y-28884601D01*
X101747636Y-28912326D01*
X101703301Y-28917264D01*
X101646647Y-28922095D01*
X101600032Y-28924553D01*
X101536773Y-28926078D01*
X101536773Y-28813844D01*
X101536773Y-28701611D01*
X101668760Y-28687811D01*
X101808007Y-28664913D01*
X101940652Y-28623668D01*
X102056662Y-28565041D01*
X102156119Y-28488978D01*
X102239106Y-28395428D01*
X102305709Y-28284338D01*
X102319491Y-28256298D01*
X102332919Y-28228704D01*
X102344703Y-28202820D01*
X102354956Y-28177035D01*
X102363793Y-28149735D01*
X102371324Y-28119307D01*
X102377665Y-28084138D01*
X102382927Y-28042615D01*
X102387224Y-27993125D01*
X102390669Y-27934054D01*
X102393375Y-27863790D01*
X102395455Y-27780720D01*
X102397022Y-27683230D01*
X102398189Y-27569707D01*
X102399069Y-27438539D01*
X102399775Y-27288112D01*
X102400421Y-27116812D01*
X102401119Y-26923028D01*
X102405170Y-25829704D01*
X101973984Y-25826539D01*
X101542797Y-25823374D01*
X101542797Y-25708905D01*
X101542797Y-25594436D01*
X102088030Y-25591301D01*
X102633262Y-25588166D01*
X102633191Y-26766111D01*
G37*
G36*
X100519484Y-30432891D02*
G01*
X100527801Y-30436549D01*
X100536773Y-30445385D01*
X100547434Y-30461550D01*
X100560817Y-30487193D01*
X100577956Y-30524467D01*
X100599885Y-30575522D01*
X100627638Y-30642510D01*
X100662247Y-30727580D01*
X100704748Y-30832885D01*
X100738214Y-30915931D01*
X100774269Y-31005352D01*
X100807062Y-31086631D01*
X100835444Y-31156927D01*
X100858269Y-31213397D01*
X100874389Y-31253197D01*
X100882655Y-31273486D01*
X100899150Y-31313447D01*
X100861621Y-31309634D01*
X100859597Y-31309426D01*
X100849737Y-31307827D01*
X100840762Y-31303794D01*
X100831594Y-31295106D01*
X100821158Y-31279538D01*
X100808379Y-31254870D01*
X100792181Y-31218878D01*
X100771488Y-31169341D01*
X100745223Y-31104035D01*
X100712313Y-31020739D01*
X100671680Y-30917230D01*
X100641633Y-30840985D01*
X100607859Y-30756201D01*
X100577547Y-30681097D01*
X100551748Y-30618232D01*
X100531514Y-30570163D01*
X100517896Y-30539446D01*
X100511944Y-30528639D01*
X100507570Y-30536168D01*
X100495213Y-30563728D01*
X100476091Y-30609081D01*
X100451254Y-30669667D01*
X100421747Y-30742927D01*
X100388620Y-30826301D01*
X100352918Y-30917230D01*
X100349900Y-30924963D01*
X100309979Y-31027084D01*
X100277663Y-31109124D01*
X100251886Y-31173309D01*
X100231582Y-31221862D01*
X100215685Y-31257010D01*
X100203131Y-31280976D01*
X100192852Y-31295987D01*
X100183784Y-31304266D01*
X100174861Y-31308038D01*
X100165017Y-31309529D01*
X100128816Y-31313238D01*
X100304958Y-30872741D01*
X100321316Y-30831849D01*
X100362895Y-30728183D01*
X100396899Y-30644154D01*
X100424294Y-30577706D01*
X100446046Y-30526785D01*
X100463123Y-30489335D01*
X100476492Y-30463303D01*
X100487119Y-30446632D01*
X100495971Y-30437269D01*
X100504015Y-30433158D01*
X100512219Y-30432245D01*
X100519484Y-30432891D01*
G37*
G36*
X105755746Y-30733484D02*
G01*
X105851786Y-30734843D01*
X105927589Y-30739004D01*
X105986653Y-30746593D01*
X106032477Y-30758235D01*
X106068558Y-30774554D01*
X106098396Y-30796175D01*
X106102872Y-30800147D01*
X106126670Y-30825514D01*
X106137228Y-30851650D01*
X106139619Y-30890119D01*
X106139593Y-30896034D01*
X106136444Y-30932349D01*
X106124508Y-30957746D01*
X106098753Y-30983751D01*
X106076548Y-31000503D01*
X106037565Y-31019827D01*
X105986828Y-31034275D01*
X105920241Y-31044913D01*
X105833709Y-31052808D01*
X105753613Y-31061627D01*
X105688039Y-31076994D01*
X105645571Y-31098294D01*
X105626345Y-31125481D01*
X105623417Y-31140663D01*
X105627870Y-31183176D01*
X105653810Y-31215246D01*
X105701365Y-31236982D01*
X105770666Y-31248496D01*
X105777216Y-31249028D01*
X105817263Y-31253147D01*
X105839254Y-31258687D01*
X105848530Y-31267984D01*
X105850435Y-31283372D01*
X105847724Y-31301368D01*
X105834658Y-31309929D01*
X105804425Y-31311846D01*
X105753046Y-31306732D01*
X105694741Y-31292327D01*
X105641338Y-31271662D01*
X105602435Y-31247781D01*
X105578336Y-31216703D01*
X105563941Y-31170537D01*
X105565442Y-31122435D01*
X105583847Y-31081425D01*
X105588547Y-31075708D01*
X105616212Y-31050293D01*
X105652553Y-31030606D01*
X105701425Y-31015380D01*
X105766680Y-31003350D01*
X105852172Y-30993250D01*
X105929756Y-30984305D01*
X105989273Y-30973678D01*
X106030456Y-30960314D01*
X106056241Y-30942844D01*
X106069560Y-30919902D01*
X106073348Y-30890119D01*
X106073341Y-30888724D01*
X106065557Y-30853201D01*
X106039370Y-30825148D01*
X106029144Y-30818158D01*
X106013857Y-30810874D01*
X105993323Y-30805598D01*
X105963774Y-30801902D01*
X105921437Y-30799355D01*
X105862543Y-30797528D01*
X105783322Y-30795992D01*
X105561251Y-30792234D01*
X105561251Y-30762856D01*
X105561251Y-30733478D01*
X105747422Y-30733478D01*
X105755746Y-30733484D01*
G37*
G36*
X95549958Y-30733484D02*
G01*
X95645998Y-30734843D01*
X95721801Y-30739004D01*
X95780865Y-30746593D01*
X95826689Y-30758235D01*
X95862771Y-30774554D01*
X95892609Y-30796175D01*
X95897085Y-30800147D01*
X95920883Y-30825514D01*
X95931440Y-30851650D01*
X95933831Y-30890119D01*
X95933805Y-30896034D01*
X95930656Y-30932349D01*
X95918720Y-30957746D01*
X95892965Y-30983751D01*
X95870146Y-31000898D01*
X95831156Y-31020064D01*
X95780403Y-31034403D01*
X95713796Y-31044982D01*
X95627239Y-31052864D01*
X95560961Y-31059897D01*
X95496956Y-31072835D01*
X95450719Y-31089993D01*
X95425354Y-31110487D01*
X95419321Y-31127601D01*
X95415895Y-31157397D01*
X95423781Y-31187521D01*
X95452889Y-31216697D01*
X95501413Y-31237513D01*
X95567224Y-31248684D01*
X95569810Y-31248892D01*
X95610679Y-31252987D01*
X95633163Y-31258480D01*
X95642679Y-31267799D01*
X95644647Y-31283372D01*
X95641936Y-31301368D01*
X95628871Y-31309929D01*
X95598637Y-31311846D01*
X95547258Y-31306732D01*
X95488953Y-31292327D01*
X95435551Y-31271662D01*
X95396648Y-31247781D01*
X95372548Y-31216703D01*
X95358154Y-31170537D01*
X95359654Y-31122435D01*
X95378059Y-31081425D01*
X95382760Y-31075708D01*
X95410424Y-31050293D01*
X95446766Y-31030606D01*
X95495638Y-31015380D01*
X95560893Y-31003350D01*
X95646384Y-30993250D01*
X95723969Y-30984305D01*
X95783485Y-30973678D01*
X95824669Y-30960314D01*
X95850453Y-30942844D01*
X95863772Y-30919902D01*
X95867560Y-30890119D01*
X95867553Y-30888724D01*
X95859770Y-30853201D01*
X95833582Y-30825148D01*
X95823356Y-30818158D01*
X95808069Y-30810874D01*
X95787536Y-30805598D01*
X95757986Y-30801902D01*
X95715650Y-30799355D01*
X95656756Y-30797528D01*
X95577534Y-30795992D01*
X95355463Y-30792234D01*
X95355463Y-30762856D01*
X95355463Y-30733478D01*
X95541635Y-30733478D01*
X95549958Y-30733484D01*
G37*
G36*
X107220915Y-26713783D02*
G01*
X107365198Y-26734368D01*
X107504905Y-26773621D01*
X107638144Y-26830617D01*
X107763022Y-26904434D01*
X107877644Y-26994148D01*
X107980120Y-27098835D01*
X108068554Y-27217572D01*
X108141055Y-27349435D01*
X108195729Y-27493502D01*
X108230683Y-27648848D01*
X108239138Y-27703009D01*
X108245615Y-27750135D01*
X108245869Y-27780182D01*
X108237737Y-27796946D01*
X108219054Y-27804222D01*
X108187658Y-27805805D01*
X108141385Y-27805489D01*
X108034517Y-27805489D01*
X108020828Y-27698747D01*
X108019424Y-27688183D01*
X107991018Y-27551932D01*
X107944299Y-27429213D01*
X107877412Y-27316113D01*
X107788502Y-27208721D01*
X107688132Y-27115722D01*
X107576050Y-27039425D01*
X107453786Y-26983185D01*
X107317864Y-26945054D01*
X107278984Y-26937817D01*
X107145772Y-26926094D01*
X107016121Y-26936223D01*
X106886720Y-26968667D01*
X106754258Y-27023889D01*
X106714284Y-27044124D01*
X106662460Y-27073333D01*
X106619026Y-27103494D01*
X106575980Y-27140406D01*
X106525321Y-27189873D01*
X106480748Y-27237482D01*
X106400741Y-27342482D01*
X106339816Y-27455572D01*
X106294553Y-27582577D01*
X106278170Y-27660402D01*
X106268293Y-27756579D01*
X106266590Y-27856904D01*
X106273186Y-27952485D01*
X106288205Y-28034427D01*
X106312245Y-28111245D01*
X106371880Y-28242973D01*
X106449995Y-28360750D01*
X106544948Y-28463179D01*
X106655095Y-28548861D01*
X106778793Y-28616398D01*
X106914399Y-28664390D01*
X107060267Y-28691440D01*
X107139714Y-28699948D01*
X107139714Y-28806988D01*
X107139904Y-28835828D01*
X107139560Y-28874044D01*
X107134961Y-28897913D01*
X107122147Y-28910026D01*
X107097157Y-28912971D01*
X107056030Y-28909337D01*
X106994806Y-28901713D01*
X106941073Y-28893917D01*
X106787444Y-28856247D01*
X106644482Y-28798018D01*
X106513523Y-28720611D01*
X106395903Y-28625405D01*
X106292960Y-28513782D01*
X106206028Y-28387122D01*
X106136446Y-28246804D01*
X106085549Y-28094210D01*
X106054673Y-27930719D01*
X106051206Y-27897697D01*
X106049032Y-27741831D01*
X106069534Y-27588634D01*
X106111534Y-27440415D01*
X106173857Y-27299482D01*
X106255327Y-27168141D01*
X106354768Y-27048702D01*
X106471005Y-26943471D01*
X106602862Y-26854757D01*
X106635889Y-26836585D01*
X106779543Y-26773266D01*
X106926195Y-26732309D01*
X107073949Y-26712789D01*
X107220915Y-26713783D01*
G37*
G36*
X99128867Y-26702777D02*
G01*
X99213999Y-26714020D01*
X99227861Y-26716795D01*
X99353487Y-26752037D01*
X99478651Y-26803766D01*
X99592772Y-26867691D01*
X99599492Y-26872110D01*
X99729509Y-26971832D01*
X99840854Y-27085292D01*
X99933099Y-27210553D01*
X100005818Y-27345678D01*
X100058581Y-27488731D01*
X100090963Y-27637775D01*
X100102534Y-27790872D01*
X100092868Y-27946085D01*
X100061537Y-28101478D01*
X100008113Y-28255114D01*
X99932169Y-28405055D01*
X99913093Y-28433345D01*
X99877778Y-28478506D01*
X99834802Y-28528440D01*
X99789619Y-28576584D01*
X99773294Y-28592826D01*
X99649481Y-28698297D01*
X99516433Y-28782174D01*
X99375212Y-28843879D01*
X99226878Y-28882836D01*
X99225638Y-28883059D01*
X99169958Y-28891662D01*
X99113990Y-28898065D01*
X99069671Y-28900898D01*
X99006412Y-28901979D01*
X99006412Y-28795949D01*
X99006412Y-28689919D01*
X99107308Y-28675330D01*
X99126997Y-28672290D01*
X99273297Y-28636791D01*
X99408624Y-28580788D01*
X99531354Y-28505442D01*
X99639862Y-28411912D01*
X99732524Y-28301360D01*
X99807715Y-28174946D01*
X99824653Y-28138074D01*
X99859255Y-28036135D01*
X99879246Y-27924795D01*
X99885804Y-27798380D01*
X99875669Y-27660992D01*
X99843187Y-27522872D01*
X99789486Y-27393705D01*
X99715740Y-27275356D01*
X99623122Y-27169690D01*
X99512807Y-27078573D01*
X99385966Y-27003871D01*
X99296493Y-26964339D01*
X99203243Y-26934960D01*
X99107488Y-26918954D01*
X98999303Y-26914017D01*
X98952505Y-26915032D01*
X98818622Y-26931333D01*
X98691370Y-26968353D01*
X98567674Y-27027172D01*
X98444458Y-27108869D01*
X98439947Y-27112308D01*
X98361082Y-27184091D01*
X98286539Y-27272463D01*
X98220746Y-27370843D01*
X98168137Y-27472649D01*
X98133140Y-27571300D01*
X98127469Y-27591638D01*
X98119865Y-27617352D01*
X98115201Y-27637908D01*
X98115594Y-27653878D01*
X98123157Y-27665831D01*
X98140006Y-27674340D01*
X98168257Y-27679974D01*
X98210024Y-27683303D01*
X98267423Y-27684900D01*
X98342569Y-27685334D01*
X98437577Y-27685176D01*
X98554562Y-27684996D01*
X98994363Y-27684996D01*
X98994363Y-27793440D01*
X98994363Y-27901884D01*
X98446118Y-27901884D01*
X97897873Y-27901884D01*
X97898294Y-27802477D01*
X97905286Y-27683424D01*
X97934044Y-27529158D01*
X97983574Y-27382066D01*
X98052306Y-27244084D01*
X98138668Y-27117148D01*
X98241091Y-27003193D01*
X98358004Y-26904154D01*
X98487836Y-26821967D01*
X98629018Y-26758566D01*
X98779979Y-26715888D01*
X98835620Y-26707010D01*
X98929875Y-26699315D01*
X99030891Y-26697889D01*
X99128867Y-26702777D01*
G37*
G36*
X103298988Y-25705678D02*
G01*
X103278854Y-25707690D01*
X103257114Y-25713518D01*
X103248993Y-25727942D01*
X103247778Y-25757795D01*
X103247778Y-25805300D01*
X103298988Y-25807405D01*
X103350198Y-25809510D01*
X103298988Y-25814122D01*
X103271272Y-25817919D01*
X103252681Y-25826480D01*
X103247778Y-25842140D01*
X103243906Y-25856945D01*
X103223680Y-25865546D01*
X103209146Y-25868835D01*
X103200773Y-25883851D01*
X103197476Y-25916756D01*
X103195371Y-25967966D01*
X103190758Y-25916756D01*
X103188747Y-25896622D01*
X103182919Y-25874882D01*
X103168495Y-25866761D01*
X103138642Y-25865546D01*
X103091137Y-25865546D01*
X103089032Y-25916756D01*
X103086927Y-25967966D01*
X103082314Y-25916756D01*
X103080303Y-25896622D01*
X103074475Y-25874882D01*
X103060051Y-25866761D01*
X103030197Y-25865546D01*
X102982693Y-25865546D01*
X102980588Y-25916756D01*
X102978483Y-25967966D01*
X102973870Y-25916756D01*
X102970073Y-25889040D01*
X102961512Y-25870449D01*
X102945852Y-25865546D01*
X102931048Y-25861674D01*
X102922446Y-25841448D01*
X102919158Y-25826914D01*
X102904141Y-25818541D01*
X102871237Y-25815244D01*
X102820027Y-25813139D01*
X102871237Y-25808526D01*
X102891371Y-25806515D01*
X102913111Y-25800687D01*
X102921231Y-25786262D01*
X102922446Y-25756409D01*
X102922446Y-25708905D01*
X102871237Y-25706800D01*
X102820027Y-25704695D01*
X102871237Y-25700082D01*
X102891371Y-25698071D01*
X102913111Y-25692243D01*
X102921231Y-25677818D01*
X102922446Y-25647965D01*
X102922446Y-25600461D01*
X102871237Y-25598356D01*
X102820027Y-25596251D01*
X102871237Y-25591638D01*
X102898952Y-25587841D01*
X102917544Y-25579280D01*
X102922229Y-25564313D01*
X102946545Y-25564313D01*
X102946545Y-25702880D01*
X102946545Y-25841448D01*
X103085112Y-25841448D01*
X103223680Y-25841448D01*
X103223680Y-25702880D01*
X103223680Y-25564313D01*
X103085112Y-25564313D01*
X102946545Y-25564313D01*
X102922229Y-25564313D01*
X102922446Y-25563620D01*
X102926319Y-25548816D01*
X102946545Y-25540214D01*
X102961079Y-25536926D01*
X102969452Y-25521909D01*
X102972749Y-25489005D01*
X102974854Y-25437796D01*
X102979466Y-25489005D01*
X102981478Y-25509139D01*
X102987306Y-25530879D01*
X103001730Y-25538999D01*
X103031583Y-25540214D01*
X103079088Y-25540214D01*
X103081193Y-25489005D01*
X103083298Y-25437796D01*
X103087910Y-25489005D01*
X103089922Y-25509139D01*
X103095750Y-25530879D01*
X103110174Y-25538999D01*
X103140027Y-25540214D01*
X103187532Y-25540214D01*
X103189637Y-25489005D01*
X103191742Y-25437796D01*
X103196354Y-25489005D01*
X103200151Y-25516720D01*
X103208712Y-25535312D01*
X103224372Y-25540214D01*
X103239177Y-25544086D01*
X103247778Y-25564313D01*
X103251067Y-25578847D01*
X103266083Y-25587220D01*
X103298988Y-25590517D01*
X103350198Y-25592622D01*
X103298988Y-25597234D01*
X103278854Y-25599246D01*
X103257114Y-25605074D01*
X103248993Y-25619498D01*
X103247778Y-25649351D01*
X103247778Y-25696856D01*
X103298988Y-25698961D01*
X103350198Y-25701066D01*
X103330056Y-25702880D01*
X103298988Y-25705678D01*
G37*
G36*
X96057337Y-26736785D02*
G01*
X96076841Y-26736948D01*
X96232102Y-26738333D01*
X96365792Y-26739793D01*
X96480175Y-26741482D01*
X96577518Y-26743552D01*
X96660084Y-26746158D01*
X96730138Y-26749453D01*
X96789946Y-26753590D01*
X96841772Y-26758721D01*
X96887881Y-26765001D01*
X96930538Y-26772583D01*
X96972007Y-26781619D01*
X97014555Y-26792264D01*
X97060444Y-26804670D01*
X97137978Y-26829134D01*
X97250709Y-26877049D01*
X97349414Y-26934767D01*
X97431610Y-27000494D01*
X97494816Y-27072437D01*
X97536550Y-27148801D01*
X97546288Y-27178053D01*
X97562100Y-27261901D01*
X97565665Y-27353437D01*
X97556996Y-27443328D01*
X97536103Y-27522241D01*
X97505228Y-27583343D01*
X97445625Y-27657820D01*
X97365799Y-27725662D01*
X97267689Y-27785724D01*
X97153232Y-27836863D01*
X97024367Y-27877932D01*
X96883034Y-27907789D01*
X96868275Y-27909960D01*
X96815068Y-27915998D01*
X96745124Y-27922209D01*
X96663766Y-27928188D01*
X96576317Y-27933530D01*
X96488101Y-27937829D01*
X96447754Y-27939562D01*
X96363900Y-27943412D01*
X96285907Y-27947308D01*
X96218330Y-27951005D01*
X96165725Y-27954261D01*
X96132646Y-27956832D01*
X96103326Y-27960139D01*
X96000290Y-27977939D01*
X95899965Y-28004108D01*
X95807692Y-28036830D01*
X95728811Y-28074288D01*
X95668664Y-28114666D01*
X95646446Y-28136028D01*
X95606150Y-28196288D01*
X95583855Y-28265650D01*
X95579507Y-28339301D01*
X95593050Y-28412425D01*
X95624427Y-28480209D01*
X95673582Y-28537839D01*
X95713138Y-28568796D01*
X95805446Y-28621564D01*
X95915870Y-28663955D01*
X96041672Y-28695201D01*
X96180111Y-28714535D01*
X96328447Y-28721190D01*
X96451953Y-28721239D01*
X96451953Y-28831539D01*
X96451953Y-28941839D01*
X96297153Y-28934004D01*
X96280865Y-28933128D01*
X96106512Y-28916781D01*
X95948566Y-28888786D01*
X95807814Y-28849595D01*
X95685046Y-28799657D01*
X95581049Y-28739421D01*
X95496613Y-28669337D01*
X95432526Y-28589856D01*
X95389577Y-28501425D01*
X95368553Y-28404496D01*
X95365753Y-28356400D01*
X95368900Y-28270880D01*
X95381383Y-28190983D01*
X95402157Y-28125390D01*
X95424126Y-28084349D01*
X95480834Y-28013308D01*
X95557347Y-27947221D01*
X95650986Y-27887684D01*
X95759075Y-27836294D01*
X95878935Y-27794646D01*
X96007888Y-27764338D01*
X96053229Y-27756978D01*
X96145242Y-27745468D01*
X96250517Y-27735606D01*
X96362250Y-27727909D01*
X96473635Y-27722892D01*
X96577867Y-27721073D01*
X96605787Y-27720889D01*
X96761266Y-27712915D01*
X96899606Y-27693427D01*
X97020060Y-27662789D01*
X97121882Y-27621366D01*
X97204322Y-27569522D01*
X97266635Y-27507622D01*
X97308072Y-27436031D01*
X97327886Y-27355114D01*
X97328888Y-27300385D01*
X97312038Y-27223803D01*
X97273300Y-27156187D01*
X97213072Y-27097816D01*
X97131753Y-27048969D01*
X97029742Y-27009923D01*
X96907436Y-26980957D01*
X96765236Y-26962349D01*
X96758155Y-26961787D01*
X96713646Y-26959440D01*
X96648629Y-26957254D01*
X96566018Y-26955274D01*
X96468728Y-26953547D01*
X96359673Y-26952119D01*
X96241768Y-26951036D01*
X96117928Y-26950344D01*
X95991066Y-26950090D01*
X95355463Y-26949986D01*
X95355463Y-26840472D01*
X95355463Y-26730958D01*
X96057337Y-26736785D01*
G37*
G36*
X104797587Y-26784991D02*
G01*
X104903673Y-26803661D01*
X104994758Y-26830765D01*
X105134695Y-26891377D01*
X105266121Y-26971379D01*
X105385593Y-27068212D01*
X105489663Y-27179316D01*
X105574887Y-27302134D01*
X105635840Y-27424808D01*
X105684738Y-27571711D01*
X105712219Y-27724245D01*
X105718190Y-27879357D01*
X105702558Y-28033994D01*
X105665230Y-28185104D01*
X105606114Y-28329635D01*
X105525244Y-28467655D01*
X105424852Y-28594346D01*
X105308941Y-28703278D01*
X105178744Y-28793599D01*
X105035497Y-28864458D01*
X104880432Y-28915004D01*
X104714785Y-28944387D01*
X104645501Y-28951910D01*
X104645501Y-28836575D01*
X104645501Y-28721239D01*
X104709845Y-28721239D01*
X104774627Y-28716906D01*
X104880659Y-28694324D01*
X104989117Y-28654691D01*
X105094547Y-28600540D01*
X105191495Y-28534405D01*
X105274508Y-28458821D01*
X105362755Y-28348268D01*
X105432659Y-28223786D01*
X105480751Y-28089935D01*
X105506535Y-27948104D01*
X105509515Y-27799684D01*
X105506216Y-27758262D01*
X105480369Y-27617856D01*
X105433560Y-27486384D01*
X105367437Y-27365737D01*
X105283650Y-27257810D01*
X105183850Y-27164495D01*
X105069684Y-27087684D01*
X104942805Y-27029271D01*
X104804860Y-26991149D01*
X104751646Y-26982445D01*
X104628828Y-26975035D01*
X104508979Y-26987154D01*
X104387532Y-27019487D01*
X104259923Y-27072715D01*
X104211278Y-27096942D01*
X104162790Y-27124312D01*
X104121722Y-27153185D01*
X104080342Y-27189134D01*
X104030917Y-27237728D01*
X103968778Y-27304945D01*
X103900404Y-27395027D01*
X103847227Y-27489278D01*
X103804860Y-27594626D01*
X103772142Y-27691021D01*
X103768465Y-28367285D01*
X103768329Y-28392350D01*
X103767611Y-28534491D01*
X103767148Y-28655098D01*
X103766995Y-28756379D01*
X103767210Y-28840541D01*
X103767851Y-28909793D01*
X103768973Y-28966343D01*
X103770635Y-29012398D01*
X103772894Y-29050167D01*
X103775806Y-29081858D01*
X103779429Y-29109679D01*
X103783820Y-29135837D01*
X103789036Y-29162541D01*
X103820501Y-29281824D01*
X103866826Y-29391165D01*
X103929653Y-29489721D01*
X104011901Y-29583001D01*
X104078406Y-29643481D01*
X104169571Y-29707557D01*
X104270244Y-29756674D01*
X104387140Y-29794621D01*
X104417069Y-29801973D01*
X104464246Y-29810724D01*
X104515960Y-29816222D01*
X104578717Y-29819071D01*
X104659024Y-29819876D01*
X104745215Y-29818761D01*
X104855691Y-29812790D01*
X104951154Y-29801034D01*
X105036749Y-29782793D01*
X105117624Y-29757365D01*
X105218087Y-29712197D01*
X105311669Y-29648164D01*
X105390371Y-29566712D01*
X105456999Y-29465428D01*
X105494979Y-29396288D01*
X105606665Y-29396145D01*
X105718351Y-29396002D01*
X105710370Y-29429137D01*
X105676848Y-29533231D01*
X105618595Y-29644591D01*
X105540787Y-29742904D01*
X105444106Y-29827684D01*
X105329236Y-29898441D01*
X105196858Y-29954687D01*
X105047657Y-29995934D01*
X104882314Y-30021692D01*
X104837822Y-30025328D01*
X104755169Y-30028695D01*
X104664544Y-30029158D01*
X104572346Y-30026907D01*
X104484972Y-30022134D01*
X104408822Y-30015030D01*
X104350293Y-30005787D01*
X104205873Y-29966322D01*
X104065430Y-29907707D01*
X103942116Y-29832348D01*
X103835388Y-29739764D01*
X103744702Y-29629480D01*
X103669513Y-29501014D01*
X103609279Y-29353890D01*
X103602994Y-29335119D01*
X103591497Y-29299010D01*
X103581707Y-29264164D01*
X103573502Y-29228466D01*
X103566758Y-29189805D01*
X103561354Y-29146065D01*
X103557166Y-29095135D01*
X103554073Y-29034901D01*
X103551952Y-28963249D01*
X103550679Y-28878066D01*
X103550133Y-28777239D01*
X103550191Y-28658654D01*
X103550730Y-28520198D01*
X103551628Y-28359759D01*
X103551650Y-28356075D01*
X103552571Y-28207050D01*
X103553448Y-28080055D01*
X103554360Y-27973065D01*
X103555385Y-27884060D01*
X103556601Y-27811014D01*
X103558086Y-27751906D01*
X103559918Y-27704713D01*
X103562176Y-27667412D01*
X103564938Y-27637979D01*
X103568281Y-27614392D01*
X103572284Y-27594628D01*
X103577025Y-27576665D01*
X103582582Y-27558478D01*
X103589027Y-27538634D01*
X103652429Y-27384335D01*
X103734198Y-27244562D01*
X103833141Y-27120450D01*
X103948064Y-27013134D01*
X104077775Y-26923748D01*
X104221079Y-26853426D01*
X104376785Y-26803304D01*
X104443256Y-26790146D01*
X104558038Y-26778227D01*
X104679262Y-26776510D01*
X104797587Y-26784991D01*
G37*
G36*
X101354804Y-25711606D02*
G01*
X101338017Y-25718282D01*
X101307835Y-25720954D01*
X101293613Y-25721049D01*
X101270106Y-25724126D01*
X101261097Y-25736125D01*
X101259638Y-25763127D01*
X101259746Y-25775571D01*
X101263262Y-25796140D01*
X101276976Y-25804023D01*
X101307835Y-25805300D01*
X101318639Y-25805607D01*
X101345343Y-25809804D01*
X101356033Y-25817349D01*
X101354804Y-25820050D01*
X101338017Y-25826726D01*
X101307835Y-25829398D01*
X101293979Y-25829726D01*
X101267597Y-25834905D01*
X101259638Y-25847472D01*
X101257539Y-25855901D01*
X101241564Y-25865546D01*
X101236368Y-25866421D01*
X101226474Y-25880231D01*
X101223490Y-25913744D01*
X101223488Y-25914718D01*
X101219970Y-25948815D01*
X101212077Y-25960785D01*
X101203295Y-25950231D01*
X101197106Y-25916756D01*
X101196989Y-25915351D01*
X101192246Y-25886026D01*
X101180253Y-25872762D01*
X101154206Y-25867795D01*
X101141616Y-25866714D01*
X101123186Y-25868622D01*
X101116164Y-25881928D01*
X101115046Y-25912980D01*
X101115036Y-25915310D01*
X101111389Y-25948994D01*
X101103513Y-25960787D01*
X101094805Y-25950203D01*
X101088662Y-25916756D01*
X101088545Y-25915351D01*
X101083802Y-25886026D01*
X101071809Y-25872762D01*
X101045762Y-25867795D01*
X101033172Y-25866714D01*
X101014742Y-25868622D01*
X101007720Y-25881928D01*
X101006602Y-25912980D01*
X101006265Y-25924462D01*
X101002049Y-25951240D01*
X100994553Y-25961941D01*
X100991852Y-25960712D01*
X100985176Y-25943925D01*
X100982503Y-25913744D01*
X100981139Y-25885924D01*
X100974171Y-25869588D01*
X100958405Y-25865546D01*
X100944351Y-25862192D01*
X100934306Y-25847472D01*
X100933431Y-25842276D01*
X100919622Y-25832383D01*
X100886109Y-25829398D01*
X100875305Y-25829091D01*
X100848601Y-25824894D01*
X100837911Y-25817349D01*
X100839140Y-25814648D01*
X100855927Y-25807972D01*
X100886109Y-25805300D01*
X100900330Y-25805205D01*
X100923838Y-25802128D01*
X100932847Y-25790129D01*
X100934306Y-25763127D01*
X100934198Y-25750683D01*
X100930682Y-25730114D01*
X100916968Y-25722231D01*
X100886109Y-25720954D01*
X100875305Y-25720647D01*
X100848601Y-25716450D01*
X100837911Y-25708905D01*
X100839140Y-25706204D01*
X100855927Y-25699528D01*
X100886109Y-25696856D01*
X100900330Y-25696761D01*
X100923838Y-25693684D01*
X100932847Y-25681685D01*
X100934306Y-25654683D01*
X100934198Y-25642239D01*
X100930682Y-25621670D01*
X100916968Y-25613787D01*
X100886109Y-25612510D01*
X100875305Y-25612203D01*
X100848601Y-25608006D01*
X100837911Y-25600461D01*
X100839140Y-25597760D01*
X100855927Y-25591084D01*
X100886109Y-25588412D01*
X100899965Y-25588084D01*
X100926347Y-25582905D01*
X100934306Y-25570338D01*
X100936863Y-25564313D01*
X100958405Y-25564313D01*
X100958405Y-25708905D01*
X100958405Y-25853497D01*
X101096972Y-25853497D01*
X101235539Y-25853497D01*
X101235539Y-25708905D01*
X101235539Y-25564313D01*
X101096972Y-25564313D01*
X100958405Y-25564313D01*
X100936863Y-25564313D01*
X100938779Y-25559798D01*
X100958405Y-25552264D01*
X100972314Y-25549535D01*
X100980482Y-25535599D01*
X100982503Y-25504066D01*
X100982810Y-25493262D01*
X100987007Y-25466558D01*
X100994553Y-25455869D01*
X100997378Y-25457237D01*
X101003968Y-25474367D01*
X101006602Y-25504830D01*
X101006708Y-25520561D01*
X101009656Y-25543318D01*
X101020840Y-25551020D01*
X101045762Y-25550015D01*
X101046979Y-25549896D01*
X101072423Y-25544770D01*
X101084049Y-25531078D01*
X101088662Y-25501054D01*
X101088863Y-25498754D01*
X101095222Y-25466502D01*
X101103970Y-25457088D01*
X101111711Y-25470026D01*
X101115046Y-25504830D01*
X101115152Y-25520561D01*
X101118100Y-25543318D01*
X101129284Y-25551020D01*
X101154206Y-25550015D01*
X101155423Y-25549896D01*
X101180867Y-25544770D01*
X101192493Y-25531078D01*
X101197106Y-25501054D01*
X101197188Y-25500089D01*
X101203469Y-25467111D01*
X101212269Y-25457047D01*
X101220104Y-25469498D01*
X101223490Y-25504066D01*
X101223818Y-25517923D01*
X101228997Y-25544305D01*
X101241564Y-25552264D01*
X101249993Y-25554363D01*
X101259638Y-25570338D01*
X101260513Y-25575534D01*
X101274322Y-25585427D01*
X101307835Y-25588412D01*
X101318639Y-25588719D01*
X101345343Y-25592916D01*
X101356033Y-25600461D01*
X101354804Y-25603162D01*
X101338017Y-25609838D01*
X101307835Y-25612510D01*
X101293613Y-25612605D01*
X101270106Y-25615682D01*
X101261097Y-25627681D01*
X101259638Y-25654683D01*
X101259746Y-25667127D01*
X101263262Y-25687696D01*
X101276976Y-25695579D01*
X101307835Y-25696856D01*
X101318639Y-25697163D01*
X101345343Y-25701360D01*
X101356033Y-25708905D01*
X101354804Y-25711606D01*
G37*
D16*
X78162500Y-12443300D02*
X78162500Y-9843300D01*
X78162500Y-15043300D02*
X78162500Y-13713300D01*
X79492500Y-15043300D02*
X78162500Y-15043300D01*
X80762500Y-12443300D02*
X78162500Y-12443300D01*
X80762500Y-15043300D02*
X80762500Y-12443300D01*
X129082500Y-9843300D02*
X78162500Y-9843300D01*
X129082500Y-15043300D02*
X80762500Y-15043300D01*
X129082500Y-15043300D02*
X129082500Y-9843300D01*
M02*
