%TF.GenerationSoftware,KiCad,Pcbnew,8.0.5-8.0.5-0~ubuntu24.04.1*%
%TF.CreationDate,2024-09-24T12:38:32+02:00*%
%TF.ProjectId,HEXBERRY-V-20Q100,48455842-4552-4525-992d-562d32305131,1.0*%
%TF.SameCoordinates,PX5f5e100PY5f5e100*%
%TF.FileFunction,Drillmap*%
%TF.FilePolarity,Positive*%
%FSLAX45Y45*%
G04 Gerber Fmt 4.5, Leading zero omitted, Abs format (unit mm)*
G04 Created by KiCad (PCBNEW 8.0.5-8.0.5-0~ubuntu24.04.1) date 2024-09-24 12:38:32*
%MOMM*%
%LPD*%
G01*
G04 APERTURE LIST*
%ADD10C,0.100000*%
%ADD11C,0.200000*%
%ADD12C,0.270000*%
G04 APERTURE END LIST*
D10*
X13312240Y-894332D02*
X7412250Y-894332D01*
X13312240Y-894332D02*
G75*
G02*
X13612252Y-1192443I0J-300018D01*
G01*
X7412250Y-4894332D02*
G75*
G02*
X7112252Y-4595860I0J300002D01*
G01*
X7412250Y-4894332D02*
X13312250Y-4894332D01*
X7112252Y-1194330D02*
X7112252Y-4595860D01*
X7112252Y-1194330D02*
G75*
G02*
X7412250Y-894332I299998J0D01*
G01*
X13612252Y-4594330D02*
X13612252Y-1192443D01*
X13612252Y-4594330D02*
G75*
G02*
X13312250Y-4894332I-300002J0D01*
G01*
D11*
D12*
X7327250Y-1109330D02*
X7597250Y-1379330D01*
X7597250Y-1109330D02*
X7327250Y-1379330D01*
X7327250Y-4409330D02*
X7597250Y-4679330D01*
X7597250Y-4409330D02*
X7327250Y-4679330D01*
X13127250Y-1109330D02*
X13397250Y-1379330D01*
X13397250Y-1109330D02*
X13127250Y-1379330D01*
X13127250Y-4409330D02*
X13397250Y-4679330D01*
X13397250Y-4409330D02*
X13127250Y-4679330D01*
D11*
X7368029Y-5210816D02*
X7368029Y-5010816D01*
X7368029Y-5010816D02*
X7415648Y-5010816D01*
X7415648Y-5010816D02*
X7444219Y-5020340D01*
X7444219Y-5020340D02*
X7463267Y-5039387D01*
X7463267Y-5039387D02*
X7472791Y-5058435D01*
X7472791Y-5058435D02*
X7482314Y-5096530D01*
X7482314Y-5096530D02*
X7482314Y-5125102D01*
X7482314Y-5125102D02*
X7472791Y-5163197D01*
X7472791Y-5163197D02*
X7463267Y-5182244D01*
X7463267Y-5182244D02*
X7444219Y-5201292D01*
X7444219Y-5201292D02*
X7415648Y-5210816D01*
X7415648Y-5210816D02*
X7368029Y-5210816D01*
X7568029Y-5210816D02*
X7568029Y-5077482D01*
X7568029Y-5115578D02*
X7577553Y-5096530D01*
X7577553Y-5096530D02*
X7587076Y-5087006D01*
X7587076Y-5087006D02*
X7606124Y-5077482D01*
X7606124Y-5077482D02*
X7625172Y-5077482D01*
X7691838Y-5210816D02*
X7691838Y-5077482D01*
X7691838Y-5010816D02*
X7682314Y-5020340D01*
X7682314Y-5020340D02*
X7691838Y-5029863D01*
X7691838Y-5029863D02*
X7701362Y-5020340D01*
X7701362Y-5020340D02*
X7691838Y-5010816D01*
X7691838Y-5010816D02*
X7691838Y-5029863D01*
X7815648Y-5210816D02*
X7796600Y-5201292D01*
X7796600Y-5201292D02*
X7787076Y-5182244D01*
X7787076Y-5182244D02*
X7787076Y-5010816D01*
X7920410Y-5210816D02*
X7901362Y-5201292D01*
X7901362Y-5201292D02*
X7891838Y-5182244D01*
X7891838Y-5182244D02*
X7891838Y-5010816D01*
X8148981Y-5210816D02*
X8148981Y-5010816D01*
X8148981Y-5010816D02*
X8215648Y-5153673D01*
X8215648Y-5153673D02*
X8282314Y-5010816D01*
X8282314Y-5010816D02*
X8282314Y-5210816D01*
X8463267Y-5210816D02*
X8463267Y-5106054D01*
X8463267Y-5106054D02*
X8453743Y-5087006D01*
X8453743Y-5087006D02*
X8434696Y-5077482D01*
X8434696Y-5077482D02*
X8396600Y-5077482D01*
X8396600Y-5077482D02*
X8377553Y-5087006D01*
X8463267Y-5201292D02*
X8444219Y-5210816D01*
X8444219Y-5210816D02*
X8396600Y-5210816D01*
X8396600Y-5210816D02*
X8377553Y-5201292D01*
X8377553Y-5201292D02*
X8368029Y-5182244D01*
X8368029Y-5182244D02*
X8368029Y-5163197D01*
X8368029Y-5163197D02*
X8377553Y-5144149D01*
X8377553Y-5144149D02*
X8396600Y-5134625D01*
X8396600Y-5134625D02*
X8444219Y-5134625D01*
X8444219Y-5134625D02*
X8463267Y-5125102D01*
X8558505Y-5077482D02*
X8558505Y-5277482D01*
X8558505Y-5087006D02*
X8577553Y-5077482D01*
X8577553Y-5077482D02*
X8615648Y-5077482D01*
X8615648Y-5077482D02*
X8634696Y-5087006D01*
X8634696Y-5087006D02*
X8644219Y-5096530D01*
X8644219Y-5096530D02*
X8653743Y-5115578D01*
X8653743Y-5115578D02*
X8653743Y-5172721D01*
X8653743Y-5172721D02*
X8644219Y-5191768D01*
X8644219Y-5191768D02*
X8634696Y-5201292D01*
X8634696Y-5201292D02*
X8615648Y-5210816D01*
X8615648Y-5210816D02*
X8577553Y-5210816D01*
X8577553Y-5210816D02*
X8558505Y-5201292D01*
X8739457Y-5191768D02*
X8748981Y-5201292D01*
X8748981Y-5201292D02*
X8739457Y-5210816D01*
X8739457Y-5210816D02*
X8729934Y-5201292D01*
X8729934Y-5201292D02*
X8739457Y-5191768D01*
X8739457Y-5191768D02*
X8739457Y-5210816D01*
X8739457Y-5087006D02*
X8748981Y-5096530D01*
X8748981Y-5096530D02*
X8739457Y-5106054D01*
X8739457Y-5106054D02*
X8729934Y-5096530D01*
X8729934Y-5096530D02*
X8739457Y-5087006D01*
X8739457Y-5087006D02*
X8739457Y-5106054D01*
X6907252Y-5439332D02*
X7107252Y-5639332D01*
X7107252Y-5439332D02*
X6907252Y-5639332D01*
X7358505Y-5449863D02*
X7368029Y-5440340D01*
X7368029Y-5440340D02*
X7387076Y-5430816D01*
X7387076Y-5430816D02*
X7434695Y-5430816D01*
X7434695Y-5430816D02*
X7453743Y-5440340D01*
X7453743Y-5440340D02*
X7463267Y-5449863D01*
X7463267Y-5449863D02*
X7472791Y-5468911D01*
X7472791Y-5468911D02*
X7472791Y-5487959D01*
X7472791Y-5487959D02*
X7463267Y-5516530D01*
X7463267Y-5516530D02*
X7348981Y-5630816D01*
X7348981Y-5630816D02*
X7472791Y-5630816D01*
X7558505Y-5611768D02*
X7568029Y-5621292D01*
X7568029Y-5621292D02*
X7558505Y-5630816D01*
X7558505Y-5630816D02*
X7548981Y-5621292D01*
X7548981Y-5621292D02*
X7558505Y-5611768D01*
X7558505Y-5611768D02*
X7558505Y-5630816D01*
X7634695Y-5430816D02*
X7768029Y-5430816D01*
X7768029Y-5430816D02*
X7682314Y-5630816D01*
X7882314Y-5430816D02*
X7901362Y-5430816D01*
X7901362Y-5430816D02*
X7920410Y-5440340D01*
X7920410Y-5440340D02*
X7929934Y-5449863D01*
X7929934Y-5449863D02*
X7939457Y-5468911D01*
X7939457Y-5468911D02*
X7948981Y-5507006D01*
X7948981Y-5507006D02*
X7948981Y-5554625D01*
X7948981Y-5554625D02*
X7939457Y-5592720D01*
X7939457Y-5592720D02*
X7929934Y-5611768D01*
X7929934Y-5611768D02*
X7920410Y-5621292D01*
X7920410Y-5621292D02*
X7901362Y-5630816D01*
X7901362Y-5630816D02*
X7882314Y-5630816D01*
X7882314Y-5630816D02*
X7863267Y-5621292D01*
X7863267Y-5621292D02*
X7853743Y-5611768D01*
X7853743Y-5611768D02*
X7844219Y-5592720D01*
X7844219Y-5592720D02*
X7834695Y-5554625D01*
X7834695Y-5554625D02*
X7834695Y-5507006D01*
X7834695Y-5507006D02*
X7844219Y-5468911D01*
X7844219Y-5468911D02*
X7853743Y-5449863D01*
X7853743Y-5449863D02*
X7863267Y-5440340D01*
X7863267Y-5440340D02*
X7882314Y-5430816D01*
X8072791Y-5430816D02*
X8091838Y-5430816D01*
X8091838Y-5430816D02*
X8110886Y-5440340D01*
X8110886Y-5440340D02*
X8120410Y-5449863D01*
X8120410Y-5449863D02*
X8129934Y-5468911D01*
X8129934Y-5468911D02*
X8139457Y-5507006D01*
X8139457Y-5507006D02*
X8139457Y-5554625D01*
X8139457Y-5554625D02*
X8129934Y-5592720D01*
X8129934Y-5592720D02*
X8120410Y-5611768D01*
X8120410Y-5611768D02*
X8110886Y-5621292D01*
X8110886Y-5621292D02*
X8091838Y-5630816D01*
X8091838Y-5630816D02*
X8072791Y-5630816D01*
X8072791Y-5630816D02*
X8053743Y-5621292D01*
X8053743Y-5621292D02*
X8044219Y-5611768D01*
X8044219Y-5611768D02*
X8034695Y-5592720D01*
X8034695Y-5592720D02*
X8025172Y-5554625D01*
X8025172Y-5554625D02*
X8025172Y-5507006D01*
X8025172Y-5507006D02*
X8034695Y-5468911D01*
X8034695Y-5468911D02*
X8044219Y-5449863D01*
X8044219Y-5449863D02*
X8053743Y-5440340D01*
X8053743Y-5440340D02*
X8072791Y-5430816D01*
X8225172Y-5630816D02*
X8225172Y-5497482D01*
X8225172Y-5516530D02*
X8234695Y-5507006D01*
X8234695Y-5507006D02*
X8253743Y-5497482D01*
X8253743Y-5497482D02*
X8282315Y-5497482D01*
X8282315Y-5497482D02*
X8301362Y-5507006D01*
X8301362Y-5507006D02*
X8310886Y-5526054D01*
X8310886Y-5526054D02*
X8310886Y-5630816D01*
X8310886Y-5526054D02*
X8320410Y-5507006D01*
X8320410Y-5507006D02*
X8339457Y-5497482D01*
X8339457Y-5497482D02*
X8368029Y-5497482D01*
X8368029Y-5497482D02*
X8387076Y-5507006D01*
X8387076Y-5507006D02*
X8396600Y-5526054D01*
X8396600Y-5526054D02*
X8396600Y-5630816D01*
X8491838Y-5630816D02*
X8491838Y-5497482D01*
X8491838Y-5516530D02*
X8501362Y-5507006D01*
X8501362Y-5507006D02*
X8520410Y-5497482D01*
X8520410Y-5497482D02*
X8548981Y-5497482D01*
X8548981Y-5497482D02*
X8568029Y-5507006D01*
X8568029Y-5507006D02*
X8577553Y-5526054D01*
X8577553Y-5526054D02*
X8577553Y-5630816D01*
X8577553Y-5526054D02*
X8587077Y-5507006D01*
X8587077Y-5507006D02*
X8606124Y-5497482D01*
X8606124Y-5497482D02*
X8634696Y-5497482D01*
X8634696Y-5497482D02*
X8653743Y-5507006D01*
X8653743Y-5507006D02*
X8663267Y-5526054D01*
X8663267Y-5526054D02*
X8663267Y-5630816D01*
X9053743Y-5421292D02*
X8882315Y-5678435D01*
X9310886Y-5430816D02*
X9329934Y-5430816D01*
X9329934Y-5430816D02*
X9348981Y-5440340D01*
X9348981Y-5440340D02*
X9358505Y-5449863D01*
X9358505Y-5449863D02*
X9368029Y-5468911D01*
X9368029Y-5468911D02*
X9377553Y-5507006D01*
X9377553Y-5507006D02*
X9377553Y-5554625D01*
X9377553Y-5554625D02*
X9368029Y-5592720D01*
X9368029Y-5592720D02*
X9358505Y-5611768D01*
X9358505Y-5611768D02*
X9348981Y-5621292D01*
X9348981Y-5621292D02*
X9329934Y-5630816D01*
X9329934Y-5630816D02*
X9310886Y-5630816D01*
X9310886Y-5630816D02*
X9291839Y-5621292D01*
X9291839Y-5621292D02*
X9282315Y-5611768D01*
X9282315Y-5611768D02*
X9272791Y-5592720D01*
X9272791Y-5592720D02*
X9263267Y-5554625D01*
X9263267Y-5554625D02*
X9263267Y-5507006D01*
X9263267Y-5507006D02*
X9272791Y-5468911D01*
X9272791Y-5468911D02*
X9282315Y-5449863D01*
X9282315Y-5449863D02*
X9291839Y-5440340D01*
X9291839Y-5440340D02*
X9310886Y-5430816D01*
X9463267Y-5611768D02*
X9472791Y-5621292D01*
X9472791Y-5621292D02*
X9463267Y-5630816D01*
X9463267Y-5630816D02*
X9453743Y-5621292D01*
X9453743Y-5621292D02*
X9463267Y-5611768D01*
X9463267Y-5611768D02*
X9463267Y-5630816D01*
X9663267Y-5630816D02*
X9548981Y-5630816D01*
X9606124Y-5630816D02*
X9606124Y-5430816D01*
X9606124Y-5430816D02*
X9587077Y-5459387D01*
X9587077Y-5459387D02*
X9568029Y-5478435D01*
X9568029Y-5478435D02*
X9548981Y-5487959D01*
X9787077Y-5430816D02*
X9806124Y-5430816D01*
X9806124Y-5430816D02*
X9825172Y-5440340D01*
X9825172Y-5440340D02*
X9834696Y-5449863D01*
X9834696Y-5449863D02*
X9844220Y-5468911D01*
X9844220Y-5468911D02*
X9853743Y-5507006D01*
X9853743Y-5507006D02*
X9853743Y-5554625D01*
X9853743Y-5554625D02*
X9844220Y-5592720D01*
X9844220Y-5592720D02*
X9834696Y-5611768D01*
X9834696Y-5611768D02*
X9825172Y-5621292D01*
X9825172Y-5621292D02*
X9806124Y-5630816D01*
X9806124Y-5630816D02*
X9787077Y-5630816D01*
X9787077Y-5630816D02*
X9768029Y-5621292D01*
X9768029Y-5621292D02*
X9758505Y-5611768D01*
X9758505Y-5611768D02*
X9748981Y-5592720D01*
X9748981Y-5592720D02*
X9739458Y-5554625D01*
X9739458Y-5554625D02*
X9739458Y-5507006D01*
X9739458Y-5507006D02*
X9748981Y-5468911D01*
X9748981Y-5468911D02*
X9758505Y-5449863D01*
X9758505Y-5449863D02*
X9768029Y-5440340D01*
X9768029Y-5440340D02*
X9787077Y-5430816D01*
X10025172Y-5430816D02*
X9987077Y-5430816D01*
X9987077Y-5430816D02*
X9968029Y-5440340D01*
X9968029Y-5440340D02*
X9958505Y-5449863D01*
X9958505Y-5449863D02*
X9939458Y-5478435D01*
X9939458Y-5478435D02*
X9929934Y-5516530D01*
X9929934Y-5516530D02*
X9929934Y-5592720D01*
X9929934Y-5592720D02*
X9939458Y-5611768D01*
X9939458Y-5611768D02*
X9948981Y-5621292D01*
X9948981Y-5621292D02*
X9968029Y-5630816D01*
X9968029Y-5630816D02*
X10006124Y-5630816D01*
X10006124Y-5630816D02*
X10025172Y-5621292D01*
X10025172Y-5621292D02*
X10034696Y-5611768D01*
X10034696Y-5611768D02*
X10044220Y-5592720D01*
X10044220Y-5592720D02*
X10044220Y-5545102D01*
X10044220Y-5545102D02*
X10034696Y-5526054D01*
X10034696Y-5526054D02*
X10025172Y-5516530D01*
X10025172Y-5516530D02*
X10006124Y-5507006D01*
X10006124Y-5507006D02*
X9968029Y-5507006D01*
X9968029Y-5507006D02*
X9948981Y-5516530D01*
X9948981Y-5516530D02*
X9939458Y-5526054D01*
X9939458Y-5526054D02*
X9929934Y-5545102D01*
X10110886Y-5430816D02*
X10234696Y-5430816D01*
X10234696Y-5430816D02*
X10168029Y-5507006D01*
X10168029Y-5507006D02*
X10196601Y-5507006D01*
X10196601Y-5507006D02*
X10215648Y-5516530D01*
X10215648Y-5516530D02*
X10225172Y-5526054D01*
X10225172Y-5526054D02*
X10234696Y-5545102D01*
X10234696Y-5545102D02*
X10234696Y-5592720D01*
X10234696Y-5592720D02*
X10225172Y-5611768D01*
X10225172Y-5611768D02*
X10215648Y-5621292D01*
X10215648Y-5621292D02*
X10196601Y-5630816D01*
X10196601Y-5630816D02*
X10139458Y-5630816D01*
X10139458Y-5630816D02*
X10120410Y-5621292D01*
X10120410Y-5621292D02*
X10110886Y-5611768D01*
X10310886Y-5430816D02*
X10310886Y-5468911D01*
X10387077Y-5430816D02*
X10387077Y-5468911D01*
X10682315Y-5707006D02*
X10672791Y-5697482D01*
X10672791Y-5697482D02*
X10653743Y-5668911D01*
X10653743Y-5668911D02*
X10644220Y-5649863D01*
X10644220Y-5649863D02*
X10634696Y-5621292D01*
X10634696Y-5621292D02*
X10625172Y-5573673D01*
X10625172Y-5573673D02*
X10625172Y-5535578D01*
X10625172Y-5535578D02*
X10634696Y-5487959D01*
X10634696Y-5487959D02*
X10644220Y-5459387D01*
X10644220Y-5459387D02*
X10653743Y-5440340D01*
X10653743Y-5440340D02*
X10672791Y-5411768D01*
X10672791Y-5411768D02*
X10682315Y-5402244D01*
X10844220Y-5497482D02*
X10844220Y-5630816D01*
X10796601Y-5421292D02*
X10748982Y-5564149D01*
X10748982Y-5564149D02*
X10872791Y-5564149D01*
X11101363Y-5630816D02*
X11101363Y-5430816D01*
X11187077Y-5630816D02*
X11187077Y-5526054D01*
X11187077Y-5526054D02*
X11177553Y-5507006D01*
X11177553Y-5507006D02*
X11158505Y-5497482D01*
X11158505Y-5497482D02*
X11129934Y-5497482D01*
X11129934Y-5497482D02*
X11110886Y-5507006D01*
X11110886Y-5507006D02*
X11101363Y-5516530D01*
X11310886Y-5630816D02*
X11291839Y-5621292D01*
X11291839Y-5621292D02*
X11282315Y-5611768D01*
X11282315Y-5611768D02*
X11272791Y-5592720D01*
X11272791Y-5592720D02*
X11272791Y-5535578D01*
X11272791Y-5535578D02*
X11282315Y-5516530D01*
X11282315Y-5516530D02*
X11291839Y-5507006D01*
X11291839Y-5507006D02*
X11310886Y-5497482D01*
X11310886Y-5497482D02*
X11339458Y-5497482D01*
X11339458Y-5497482D02*
X11358505Y-5507006D01*
X11358505Y-5507006D02*
X11368029Y-5516530D01*
X11368029Y-5516530D02*
X11377553Y-5535578D01*
X11377553Y-5535578D02*
X11377553Y-5592720D01*
X11377553Y-5592720D02*
X11368029Y-5611768D01*
X11368029Y-5611768D02*
X11358505Y-5621292D01*
X11358505Y-5621292D02*
X11339458Y-5630816D01*
X11339458Y-5630816D02*
X11310886Y-5630816D01*
X11491839Y-5630816D02*
X11472791Y-5621292D01*
X11472791Y-5621292D02*
X11463267Y-5602244D01*
X11463267Y-5602244D02*
X11463267Y-5430816D01*
X11644220Y-5621292D02*
X11625172Y-5630816D01*
X11625172Y-5630816D02*
X11587077Y-5630816D01*
X11587077Y-5630816D02*
X11568029Y-5621292D01*
X11568029Y-5621292D02*
X11558505Y-5602244D01*
X11558505Y-5602244D02*
X11558505Y-5526054D01*
X11558505Y-5526054D02*
X11568029Y-5507006D01*
X11568029Y-5507006D02*
X11587077Y-5497482D01*
X11587077Y-5497482D02*
X11625172Y-5497482D01*
X11625172Y-5497482D02*
X11644220Y-5507006D01*
X11644220Y-5507006D02*
X11653743Y-5526054D01*
X11653743Y-5526054D02*
X11653743Y-5545102D01*
X11653743Y-5545102D02*
X11558505Y-5564149D01*
X11729934Y-5621292D02*
X11748982Y-5630816D01*
X11748982Y-5630816D02*
X11787077Y-5630816D01*
X11787077Y-5630816D02*
X11806124Y-5621292D01*
X11806124Y-5621292D02*
X11815648Y-5602244D01*
X11815648Y-5602244D02*
X11815648Y-5592720D01*
X11815648Y-5592720D02*
X11806124Y-5573673D01*
X11806124Y-5573673D02*
X11787077Y-5564149D01*
X11787077Y-5564149D02*
X11758505Y-5564149D01*
X11758505Y-5564149D02*
X11739458Y-5554625D01*
X11739458Y-5554625D02*
X11729934Y-5535578D01*
X11729934Y-5535578D02*
X11729934Y-5526054D01*
X11729934Y-5526054D02*
X11739458Y-5507006D01*
X11739458Y-5507006D02*
X11758505Y-5497482D01*
X11758505Y-5497482D02*
X11787077Y-5497482D01*
X11787077Y-5497482D02*
X11806124Y-5507006D01*
X11882315Y-5707006D02*
X11891839Y-5697482D01*
X11891839Y-5697482D02*
X11910886Y-5668911D01*
X11910886Y-5668911D02*
X11920410Y-5649863D01*
X11920410Y-5649863D02*
X11929934Y-5621292D01*
X11929934Y-5621292D02*
X11939458Y-5573673D01*
X11939458Y-5573673D02*
X11939458Y-5535578D01*
X11939458Y-5535578D02*
X11929934Y-5487959D01*
X11929934Y-5487959D02*
X11920410Y-5459387D01*
X11920410Y-5459387D02*
X11910886Y-5440340D01*
X11910886Y-5440340D02*
X11891839Y-5411768D01*
X11891839Y-5411768D02*
X11882315Y-5402244D01*
X12244220Y-5707006D02*
X12234696Y-5697482D01*
X12234696Y-5697482D02*
X12215648Y-5668911D01*
X12215648Y-5668911D02*
X12206124Y-5649863D01*
X12206124Y-5649863D02*
X12196601Y-5621292D01*
X12196601Y-5621292D02*
X12187077Y-5573673D01*
X12187077Y-5573673D02*
X12187077Y-5535578D01*
X12187077Y-5535578D02*
X12196601Y-5487959D01*
X12196601Y-5487959D02*
X12206124Y-5459387D01*
X12206124Y-5459387D02*
X12215648Y-5440340D01*
X12215648Y-5440340D02*
X12234696Y-5411768D01*
X12234696Y-5411768D02*
X12244220Y-5402244D01*
X12320410Y-5497482D02*
X12320410Y-5630816D01*
X12320410Y-5516530D02*
X12329934Y-5507006D01*
X12329934Y-5507006D02*
X12348982Y-5497482D01*
X12348982Y-5497482D02*
X12377553Y-5497482D01*
X12377553Y-5497482D02*
X12396601Y-5507006D01*
X12396601Y-5507006D02*
X12406124Y-5526054D01*
X12406124Y-5526054D02*
X12406124Y-5630816D01*
X12529934Y-5630816D02*
X12510886Y-5621292D01*
X12510886Y-5621292D02*
X12501363Y-5611768D01*
X12501363Y-5611768D02*
X12491839Y-5592720D01*
X12491839Y-5592720D02*
X12491839Y-5535578D01*
X12491839Y-5535578D02*
X12501363Y-5516530D01*
X12501363Y-5516530D02*
X12510886Y-5507006D01*
X12510886Y-5507006D02*
X12529934Y-5497482D01*
X12529934Y-5497482D02*
X12558505Y-5497482D01*
X12558505Y-5497482D02*
X12577553Y-5507006D01*
X12577553Y-5507006D02*
X12587077Y-5516530D01*
X12587077Y-5516530D02*
X12596601Y-5535578D01*
X12596601Y-5535578D02*
X12596601Y-5592720D01*
X12596601Y-5592720D02*
X12587077Y-5611768D01*
X12587077Y-5611768D02*
X12577553Y-5621292D01*
X12577553Y-5621292D02*
X12558505Y-5630816D01*
X12558505Y-5630816D02*
X12529934Y-5630816D01*
X12653744Y-5497482D02*
X12729934Y-5497482D01*
X12682315Y-5430816D02*
X12682315Y-5602244D01*
X12682315Y-5602244D02*
X12691839Y-5621292D01*
X12691839Y-5621292D02*
X12710886Y-5630816D01*
X12710886Y-5630816D02*
X12729934Y-5630816D01*
X12948982Y-5497482D02*
X12948982Y-5697482D01*
X12948982Y-5507006D02*
X12968029Y-5497482D01*
X12968029Y-5497482D02*
X13006125Y-5497482D01*
X13006125Y-5497482D02*
X13025172Y-5507006D01*
X13025172Y-5507006D02*
X13034696Y-5516530D01*
X13034696Y-5516530D02*
X13044220Y-5535578D01*
X13044220Y-5535578D02*
X13044220Y-5592720D01*
X13044220Y-5592720D02*
X13034696Y-5611768D01*
X13034696Y-5611768D02*
X13025172Y-5621292D01*
X13025172Y-5621292D02*
X13006125Y-5630816D01*
X13006125Y-5630816D02*
X12968029Y-5630816D01*
X12968029Y-5630816D02*
X12948982Y-5621292D01*
X13158505Y-5630816D02*
X13139458Y-5621292D01*
X13139458Y-5621292D02*
X13129934Y-5602244D01*
X13129934Y-5602244D02*
X13129934Y-5430816D01*
X13320410Y-5630816D02*
X13320410Y-5526054D01*
X13320410Y-5526054D02*
X13310886Y-5507006D01*
X13310886Y-5507006D02*
X13291839Y-5497482D01*
X13291839Y-5497482D02*
X13253744Y-5497482D01*
X13253744Y-5497482D02*
X13234696Y-5507006D01*
X13320410Y-5621292D02*
X13301363Y-5630816D01*
X13301363Y-5630816D02*
X13253744Y-5630816D01*
X13253744Y-5630816D02*
X13234696Y-5621292D01*
X13234696Y-5621292D02*
X13225172Y-5602244D01*
X13225172Y-5602244D02*
X13225172Y-5583197D01*
X13225172Y-5583197D02*
X13234696Y-5564149D01*
X13234696Y-5564149D02*
X13253744Y-5554625D01*
X13253744Y-5554625D02*
X13301363Y-5554625D01*
X13301363Y-5554625D02*
X13320410Y-5545102D01*
X13387077Y-5497482D02*
X13463267Y-5497482D01*
X13415648Y-5430816D02*
X13415648Y-5602244D01*
X13415648Y-5602244D02*
X13425172Y-5621292D01*
X13425172Y-5621292D02*
X13444220Y-5630816D01*
X13444220Y-5630816D02*
X13463267Y-5630816D01*
X13606125Y-5621292D02*
X13587077Y-5630816D01*
X13587077Y-5630816D02*
X13548982Y-5630816D01*
X13548982Y-5630816D02*
X13529934Y-5621292D01*
X13529934Y-5621292D02*
X13520410Y-5602244D01*
X13520410Y-5602244D02*
X13520410Y-5526054D01*
X13520410Y-5526054D02*
X13529934Y-5507006D01*
X13529934Y-5507006D02*
X13548982Y-5497482D01*
X13548982Y-5497482D02*
X13587077Y-5497482D01*
X13587077Y-5497482D02*
X13606125Y-5507006D01*
X13606125Y-5507006D02*
X13615648Y-5526054D01*
X13615648Y-5526054D02*
X13615648Y-5545102D01*
X13615648Y-5545102D02*
X13520410Y-5564149D01*
X13787077Y-5630816D02*
X13787077Y-5430816D01*
X13787077Y-5621292D02*
X13768029Y-5630816D01*
X13768029Y-5630816D02*
X13729934Y-5630816D01*
X13729934Y-5630816D02*
X13710886Y-5621292D01*
X13710886Y-5621292D02*
X13701363Y-5611768D01*
X13701363Y-5611768D02*
X13691839Y-5592720D01*
X13691839Y-5592720D02*
X13691839Y-5535578D01*
X13691839Y-5535578D02*
X13701363Y-5516530D01*
X13701363Y-5516530D02*
X13710886Y-5507006D01*
X13710886Y-5507006D02*
X13729934Y-5497482D01*
X13729934Y-5497482D02*
X13768029Y-5497482D01*
X13768029Y-5497482D02*
X13787077Y-5507006D01*
X13863267Y-5707006D02*
X13872791Y-5697482D01*
X13872791Y-5697482D02*
X13891839Y-5668911D01*
X13891839Y-5668911D02*
X13901363Y-5649863D01*
X13901363Y-5649863D02*
X13910886Y-5621292D01*
X13910886Y-5621292D02*
X13920410Y-5573673D01*
X13920410Y-5573673D02*
X13920410Y-5535578D01*
X13920410Y-5535578D02*
X13910886Y-5487959D01*
X13910886Y-5487959D02*
X13901363Y-5459387D01*
X13901363Y-5459387D02*
X13891839Y-5440340D01*
X13891839Y-5440340D02*
X13872791Y-5411768D01*
X13872791Y-5411768D02*
X13863267Y-5402244D01*
M02*
