M48
; DRILL file {KiCad 8.0.6-8.0.6-0~ubuntu24.04.1} date 2024-11-13T11:48:49+0100
; FORMAT={-:-/ absolute / inch / decimal}
; #@! TF.CreationDate,2024-11-13T11:48:49+01:00
; #@! TF.GenerationSoftware,Kicad,Pcbnew,8.0.6-8.0.6-0~ubuntu24.04.1
; #@! TF.FileFunction,Plated,1,4,PTH
FMAT,2
INCH
; #@! TA.AperFunction,Plated,PTH,ComponentDrill
T1C0.0118
; #@! TA.AperFunction,Plated,PTH,ViaDrill
T2C0.0140
; #@! TA.AperFunction,Plated,PTH,ViaDrill
T3C0.0200
; #@! TA.AperFunction,Plated,PTH,ComponentDrill
T4C0.0236
; #@! TA.AperFunction,Plated,PTH,ComponentDrill
T5C0.0394
; #@! TA.AperFunction,Plated,PTH,ComponentDrill
T6C0.1260
%
G90
G05
T1
X3.3602Y-0.952
X3.3602Y-0.9972
X3.3972Y-0.952
X3.3972Y-0.9972
X3.4342Y-0.952
X3.4342Y-0.9972
T2
X2.8387Y-1.5317
X2.8877Y-1.3687
X2.9057Y-1.1427
X2.929Y-1.2547
X2.9527Y-1.1427
X2.9647Y-0.8377
X2.9647Y-1.0537
X3.0497Y-1.5317
X3.0727Y-1.7907
X3.0777Y-1.8907
X3.0887Y-1.0567
X3.1087Y-1.7187
X3.1197Y-1.1097
X3.1217Y-1.0657
X3.1597Y-0.9117
X3.2006Y-1.3411
X3.2117Y-0.6007
X3.2167Y-1.5177
X3.2627Y-1.6277
X3.2877Y-0.6007
X3.3117Y-1.3897
X3.3157Y-0.7187
X3.3187Y-1.5177
X3.3242Y-1.1272
X3.3257Y-0.6667
X3.3267Y-1.2387
X3.3377Y-1.4287
X3.3467Y-0.7897
X3.3487Y-0.8907
X3.3647Y-1.6267
X3.3867Y-0.7907
X3.3885Y-1.128
X3.4037Y-0.6617
X3.4243Y-0.7923
X3.4407Y-1.2887
X3.4422Y-1.4619
X3.4487Y-0.8927
X3.4595Y-1.3882
X3.4667Y-0.7237
X3.4757Y-1.3307
X3.4797Y-0.6747
X3.4847Y-0.7727
X3.4867Y-0.8537
X3.4877Y-0.9317
X3.4877Y-1.0107
X3.4877Y-1.1497
X3.4877Y-1.5667
X3.4907Y-1.4277
X3.4946Y-1.2857
X3.5197Y-0.6017
X3.5277Y-1.6617
X3.5587Y-1.6027
X3.5877Y-0.9087
X3.5937Y-1.1967
X3.5987Y-0.5987
X3.6024Y-0.8372
X3.6077Y-1.0627
X3.6077Y-1.1407
X3.6111Y-0.9982
X3.6127Y-0.9027
X3.6137Y-1.1007
X3.6155Y-1.2106
X3.6457Y-1.2247
X3.6457Y-1.4027
X3.6577Y-1.1797
X3.6727Y-0.7917
X3.6837Y-0.8717
X3.6877Y-1.181
X3.7065Y-1.2137
X3.7105Y-1.288
X3.7127Y-0.6687
X3.7177Y-0.8087
X3.7182Y-1.1694
X3.7187Y-1.5047
X3.7298Y-1.3414
X3.7302Y-0.923
X3.7306Y-1.2182
X3.7567Y-1.9097
X3.7917Y-0.6677
X3.7972Y-0.7342
X3.8165Y-1.5288
X3.8287Y-1.0017
X3.8307Y-1.1007
X3.8327Y-1.0317
X3.8347Y-1.2667
X3.8434Y-0.7847
X3.8437Y-1.6047
X3.8488Y-1.0834
X3.8748Y-1.2439
X3.8797Y-1.6047
X3.8815Y-0.7469
X3.8827Y-1.4927
X3.9023Y-0.92
X3.9024Y-0.7714
X3.9077Y-0.6677
X3.9127Y-1.5037
X3.9204Y-0.7956
X3.9297Y-1.2897
X3.9417Y-0.6847
X3.9427Y-1.3877
X3.9607Y-1.6047
X3.9615Y-0.7906
X3.9848Y-0.8847
X4.0006Y-0.6857
X4.0007Y-1.6047
X4.0009Y-1.3948
X4.0094Y-0.8974
X4.0196Y-1.4886
X4.0402Y-0.79
X4.0467Y-1.6617
X4.0522Y-0.7187
X4.0597Y-0.8907
X4.0617Y-0.6677
X4.0657Y-1.4928
X4.083Y-1.3946
X4.1Y-1.5045
X4.104Y-0.884
X4.1119Y-1.6908
X4.1187Y-0.6837
X4.1188Y-1.6054
X4.1287Y-1.3887
X4.1387Y-0.884
X4.1528Y-1.4887
X4.1577Y-0.6837
X4.1767Y-0.5997
X4.1817Y-1.6627
X4.1846Y-0.8879
X4.1927Y-1.3474
X4.1987Y-1.6047
X4.2065Y-1.4929
X4.2327Y-0.6877
X4.2537Y-1.1834
X4.2537Y-0.5997
X4.2567Y-1.3897
X4.2577Y-1.5057
X4.2707Y-0.7857
X4.2767Y-0.8897
X4.2797Y-1.6027
X4.3047Y-1.5338
X4.3057Y-0.982
X4.3057Y-1.1197
X4.3067Y-0.7807
X4.3182Y-1.6672
X4.3221Y-1.328
X4.328Y-1.3709
X4.3477Y-0.6877
X4.3507Y-1.6067
X4.3543Y-1.4558
X4.3617Y-1.7137
X4.3677Y-0.7147
X4.3689Y-0.5853
X4.3697Y-0.8177
X4.3817Y-1.6597
X4.3827Y-1.4367
X4.3987Y-1.9097
X4.4127Y-1.4006
X4.4289Y-1.1392
X4.4335Y-1.1628
X4.4338Y-1.2773
X4.4417Y-0.9067
X4.4437Y-0.8657
X4.4478Y-1.2379
X4.4533Y-1.0056
X4.4555Y-1.3167
X4.4557Y-0.6517
X4.4747Y-0.7717
X4.4747Y-0.8097
X4.48Y-1.297
X4.4817Y-0.9627
X4.4826Y-1.2473
X4.4837Y-1.0947
X4.4937Y-0.7557
X4.4948Y-1.0504
X4.4951Y-0.6343
X4.5006Y-1.0264
X4.5009Y-1.4649
X4.5237Y-1.6597
X4.5362Y-1.0715
X4.5367Y-0.7177
X4.5427Y-0.8447
X4.5677Y-0.6857
X4.5743Y-1.1714
X4.5787Y-0.5207
X4.5922Y-1.7016
X4.6027Y-1.1457
X4.6047Y-0.9747
X4.6057Y-1.0967
X4.6294Y-0.795
X4.6391Y-1.4346
X4.6907Y-1.0324
X4.6993Y-0.9244
X4.7047Y-1.5457
X4.7047Y-1.1627
X4.7047Y-1.2107
X4.7057Y-1.4657
X4.7087Y-0.7207
X4.7127Y-1.3047
X4.7127Y-1.6257
X4.7157Y-0.9467
X4.7267Y-1.3707
X4.7287Y-0.7037
X4.7527Y-0.81
X4.7827Y-0.9257
X4.7878Y-1.3027
X4.8027Y-0.7387
X4.8067Y-0.9697
X4.8067Y-1.4377
X4.8387Y-1.0117
X4.8462Y-0.7807
X4.8497Y-0.7037
X4.8607Y-1.6597
X4.8627Y-1.2707
X4.9127Y-1.2707
X4.9127Y-0.8067
X4.9227Y-1.5657
X4.9356Y-0.9287
X4.9647Y-1.3297
X4.9657Y-1.4627
X5.0127Y-1.002
X5.0278Y-1.3824
X5.0591Y-0.9287
X5.0711Y-0.9952
X5.0767Y-0.9067
X5.0767Y-1.4657
X5.0817Y-0.6497
X5.0824Y-1.063
X5.1017Y-0.7767
X5.1167Y-1.1647
T3
X2.9197Y-0.8857
X2.9197Y-1.0057
T5
X3.1296Y-0.4399
X3.1296Y-0.5399
X3.2273Y-1.7533
X3.2273Y-1.8533
X3.2296Y-0.4399
X3.2296Y-0.5399
X3.3273Y-1.7533
X3.3273Y-1.8533
X3.3296Y-0.4399
X3.3296Y-0.5399
X3.4273Y-1.7533
X3.4273Y-1.8533
X3.4296Y-0.4399
X3.4296Y-0.5399
X3.5273Y-1.7533
X3.5273Y-1.8533
X3.5296Y-0.4399
X3.5296Y-0.5399
X3.6273Y-1.7533
X3.6273Y-1.8533
X3.6296Y-0.4399
X3.6296Y-0.5399
X3.7296Y-0.4399
X3.7296Y-0.5399
X3.8296Y-0.4399
X3.8296Y-0.5399
X3.8487Y-1.7533
X3.8487Y-1.8533
X3.9296Y-0.4399
X3.9296Y-0.5399
X3.9487Y-1.7533
X3.9487Y-1.8533
X4.0296Y-0.4399
X4.0296Y-0.5399
X4.0487Y-1.7533
X4.0487Y-1.8533
X4.1296Y-0.4399
X4.1296Y-0.5399
X4.1487Y-1.7533
X4.1487Y-1.8533
X4.2296Y-0.4399
X4.2296Y-0.5399
X4.2487Y-1.7533
X4.2487Y-1.8533
X4.3296Y-0.4399
X4.3296Y-0.5399
X4.4296Y-0.4399
X4.4296Y-0.5399
X4.4677Y-1.7533
X4.4677Y-1.8533
X4.5296Y-0.4399
X4.5296Y-0.5399
X4.5677Y-1.7533
X4.5677Y-1.8533
X4.6296Y-0.4399
X4.6296Y-0.5399
X4.6677Y-1.7533
X4.6677Y-1.8533
X4.7296Y-0.4399
X4.7296Y-0.5399
X4.7677Y-1.7533
X4.7677Y-1.8533
X4.8296Y-0.4399
X4.8296Y-0.5399
X4.8677Y-1.7533
X4.8677Y-1.8533
X4.9296Y-0.4399
X4.9296Y-0.5399
X4.9677Y-1.7533
X4.9677Y-1.8533
X5.0296Y-0.4399
X5.0296Y-0.5399
X5.1757Y-0.6887
X5.1757Y-0.7887
X5.1757Y-0.9857
X5.1757Y-1.0857
X5.1757Y-1.1857
X5.1757Y-1.2857
X5.1757Y-1.3857
X5.1757Y-1.4857
X5.1757Y-1.5857
X5.2757Y-0.6887
X5.2757Y-0.7887
X5.2757Y-0.9857
X5.2757Y-1.0857
X5.2757Y-1.1857
X5.2757Y-1.2857
X5.2757Y-1.3857
X5.2757Y-1.4857
X5.2757Y-1.5857
T6
X2.9379Y-0.4899
X2.9379Y-1.7891
X5.2214Y-0.4899
X5.2214Y-1.7891
T4
G00X2.868Y-0.7756
M15
G01X2.8444Y-0.7756
M16
G05
G00X2.868Y-1.1158
M15
G01X2.8444Y-1.1158
M16
G05
G00X3.0176Y-0.7756
M15
G01X2.994Y-0.7756
M16
G05
G00X3.0176Y-1.1158
M15
G01X2.994Y-1.1158
M16
G05
M30
